SplineFontDB: 3.0
FontName: cmr10
FullName: cmr10
FamilyName: cmr10
Weight: Book
Copyright: Copyright (C) 1994, Basil K. Malyshev. All Rights Reserved.012BaKoMa Fonts Collection, Level-B.
Version: 1.1/12-Nov-94
ItalicAngle: 0
UnderlinePosition: -123
UnderlineWidth: 20
Ascent: 1638
Descent: 410
LayerCount: 2
Layer: 0 1 "Back"  1
Layer: 1 1 "Fore"  0
NeedsXUIDChange: 1
XUID: [1021 951 870599173 8370598]
FSType: 0
OS2Version: 0
OS2_WeightWidthSlopeOnly: 0
OS2_UseTypoMetrics: 1
CreationTime: -2082844800
ModificationTime: 1421608422
PfmFamily: 17
TTFWeight: 400
TTFWidth: 5
LineGap: 0
VLineGap: 0
Panose: 2 11 5 0 0 0 0 0 0 0
OS2TypoAscent: -194
OS2TypoAOffset: 1
OS2TypoDescent: -12
OS2TypoDOffset: 1
OS2TypoLinegap: 0
OS2WinAscent: 0
OS2WinAOffset: 1
OS2WinDescent: 0
OS2WinDOffset: 1
HheadAscent: -92
HheadAOffset: 1
HheadDescent: 70
HheadDOffset: 1
OS2SubXSize: 410
OS2SubYSize: 369
OS2SubXOff: 0
OS2SubYOff: -422
OS2SupXSize: 410
OS2SupYSize: 369
OS2SupXOff: 0
OS2SupYOff: 1186
OS2StrikeYSize: 102
OS2StrikeYPos: 530
OS2UnicodeRanges: 00000000.00000000.00000000.00000000
DEI: 91125
TtTable: prep
NPUSHB
 30
 7
 39
 3
 34
 11
 31
 8
 15
 4
 39
 93
 14
 13
 7
 106
 12
 93
 7
 85
 5
 81
 35
 74
 5
 93
 93
 43
 13
 53
 0
SCANTYPE
PUSHW_1
 828
SCANCTRL
SCVTCI
CALL
CALL
EndTTInstrs
TtTable: fpgm
NPUSHB
 22
 21
 20
 19
 18
 17
 16
 15
 14
 13
 12
 11
 10
 9
 8
 7
 6
 5
 4
 3
 2
 1
 0
FDEF
PUSHB_3
 0
 128
 0
RS
DUP
ROLL
DIV
ROLL
SWAP
WS
FLOOR
ODD
ENDF
FDEF
PUSHB_3
 42
 0
 0
RS
EQ
JROT
PUSHB_1
 0
CALL
IF
SLOOP
IP
EIF
PUSHB_1
 0
CALL
IF
SLOOP
ALIGNRP
EIF
PUSHB_1
 0
CALL
IF
PUSHB_1
 10
LOOPCALL
EIF
PUSHB_1
 1
RS
SRP0
PUSHB_1
 0
CALL
IF
SLOOP
ALIGNRP
EIF
PUSHB_1
 0
CALL
IF
PUSHB_1
 10
LOOPCALL
EIF
ENDF
FDEF
CALL
ENDF
FDEF
CALL
PUSHB_1
 2
LOOPCALL
ENDF
FDEF
PUSHB_1
 2
LOOPCALL
ENDF
FDEF
PUSHB_1
 1
DIV
PUSHB_1
 0
SWAP
WS
PUSHB_2
 1
 3
CINDEX
WS
DUP
GC[cur]
DUP
ROUND[Grey]
SUB
ABS
PUSHB_1
 3
CINDEX
GC[cur]
DUP
ROUND[Grey]
DUP
PUSHB_1
 4
RS
SWAP
SUB
DUP
ABS
PUSHB_2
 64
 64
ROLL
EQ
IF
POP
POP

StartChar: .notdef
Encoding: 65536 -1 0
Width: 1536
Flags: W
LayerCount: 2
Fore
SplineSet
256 0 m 1,0,-1
 256 1280 l 1,1,-1
 1280 1280 l 1,2,-1
 1280 0 l 1,3,-1
 256 0 l 1,0,-1
1247 33 m 1,4,-1
 1247 1247 l 1,5,-1
 289 1247 l 1,6,-1
 289 33 l 1,7,-1
 1247 33 l 1,4,-1
EndSplineSet
EndChar

StartChar: yen
Encoding: 165 165 3
Width: 1364
Flags: W
LayerCount: 2
Fore
SplineSet
102 0 m 1,0,-1
 86 350 l 1,1,-1
 145 350 l 1,2,3
 150 193 150 193 174 166 c 0,4,5
 182 158 182 158 250 155 c 128,-1,6
 318 152 318 152 418 152 c 2,7,-1
 946 152 l 2,8,9
 1047 152 1047 152 1114.5 155 c 128,-1,10
 1182 158 1182 158 1190 166 c 0,11,12
 1214 193 1214 193 1219 350 c 1,13,-1
 1278 350 l 1,14,-1
 1262 0 l 1,15,-1
 102 0 l 1,0,-1
285 547 m 1,16,-1
 285 907 l 1,17,-1
 344 907 l 1,18,-1
 344 803 l 1,19,-1
 1020 803 l 1,20,-1
 1020 907 l 1,21,-1
 1079 907 l 1,22,-1
 1079 547 l 1,23,-1
 1020 547 l 1,24,-1
 1020 651 l 1,25,-1
 344 651 l 1,26,-1
 344 547 l 1,27,-1
 285 547 l 1,16,-1
96 1071 m 1,28,-1
 113 1399 l 1,29,-1
 1251 1399 l 1,30,-1
 1268 1071 l 1,31,-1
 1208 1071 l 1,32,33
 1203 1211 1203 1211 1182 1235 c 1,34,35
 1167 1247 1167 1247 940 1247 c 2,36,-1
 424 1247 l 2,37,38
 197 1247 197 1247 182 1235 c 1,39,40
 161 1211 161 1211 156 1071 c 1,41,-1
 96 1071 l 1,28,-1
EndSplineSet
EndChar

StartChar: uni00B3
Encoding: 179 179 4
Width: 567
Flags: W
LayerCount: 2
Fore
SplineSet
63 0 m 1,0,-1
 63 72 l 1,1,2
 133 72 133 72 178 83 c 128,-1,3
 223 94 223 94 223 137 c 2,4,-1
 223 696 l 2,5,6
 223 775 223 775 192.5 793 c 128,-1,7
 162 811 162 811 72 811 c 1,8,-1
 72 883 l 1,9,-1
 367 905 l 1,10,-1
 367 137 l 2,11,12
 367 94 367 94 406 83 c 128,-1,13
 445 72 445 72 510 72 c 1,14,-1
 510 0 l 1,15,-1
 63 0 l 1,0,-1
EndSplineSet
EndChar

StartChar: questiondown
Encoding: 191 191 5
Width: 1024
Flags: W
LayerCount: 2
Fore
SplineSet
119 -186 m 1,0,-1
 260 57 l 1,1,2
 170 121 170 121 119 222.5 c 128,-1,3
 68 324 68 324 68 436 c 0,4,5
 68 561 68 561 125.5 672 c 128,-1,6
 183 783 183 783 285.5 850.5 c 128,-1,7
 388 918 388 918 512 918 c 0,8,9
 621 918 621 918 721 860 c 1,10,-1
 856 1094 l 1,11,-1
 903 1069 l 1,12,-1
 766 829 l 1,13,14
 827 782 827 782 869 719.5 c 128,-1,15
 911 657 911 657 932.5 586 c 128,-1,16
 954 515 954 515 954 436 c 0,17,18
 954 345 954 345 920 261 c 128,-1,19
 886 177 886 177 826.5 114 c 128,-1,20
 767 51 767 51 685.5 14 c 128,-1,21
 604 -23 604 -23 512 -23 c 0,22,23
 401 -23 401 -23 305 31 c 1,24,-1
 166 -211 l 1,25,-1
 119 -186 l 1,0,-1
338 88 m 1,26,27
 379 58 379 58 421 44.5 c 128,-1,28
 463 31 463 31 512 31 c 0,29,30
 623 31 623 31 688 88 c 128,-1,31
 753 145 753 145 779 235.5 c 128,-1,32
 805 326 805 326 805 436 c 0,33,34
 805 540 805 540 789.5 619.5 c 128,-1,35
 774 699 774 699 725 760 c 1,36,-1
 338 88 l 1,26,27
299 127 m 1,37,-1
 686 801 l 1,38,39
 654 830 654 830 607.5 847 c 128,-1,40
 561 864 561 864 512 864 c 0,41,42
 347 864 347 864 282 739.5 c 128,-1,43
 217 615 217 615 217 436 c 0,44,45
 217 336 217 336 233.5 259 c 128,-1,46
 250 182 250 182 299 127 c 1,37,-1
EndSplineSet
EndChar

StartChar: cent
Encoding: 162 162 6
Width: 1706
Flags: W
LayerCount: 2
Fore
SplineSet
111 0 m 2,0,1
 94 0 94 0 94 16 c 1,2,3
 95 18 95 18 95.5 19 c 128,-1,4
 96 20 96 20 96 23 c 1,5,-1
 801 1444 l 1,6,7
 810 1466 810 1466 838 1466 c 2,8,-1
 866 1466 l 2,9,10
 894 1466 894 1466 903 1444 c 1,11,-1
 1608 23 l 2,12,13
 1609 21 1609 21 1609.5 19.5 c 128,-1,14
 1610 18 1610 18 1610 16 c 0,15,16
 1610 0 1610 0 1593 0 c 2,17,-1
 111 0 l 2,0,1
246 164 m 1,18,-1
 1325 164 l 1,19,-1
 786 1251 l 1,20,-1
 246 164 l 1,18,-1
EndSplineSet
EndChar

StartChar: sterling
Encoding: 163 163 7
Width: 1591
Flags: W
LayerCount: 2
Fore
SplineSet
797 -45 m 0,0,1
 602 -45 602 -45 446.5 58.5 c 128,-1,2
 291 162 291 162 203 333.5 c 128,-1,3
 115 505 115 505 115 694 c 0,4,5
 115 834 115 834 165.5 971 c 128,-1,6
 216 1108 216 1108 306.5 1214 c 128,-1,7
 397 1320 397 1320 524 1382 c 128,-1,8
 651 1444 651 1444 797 1444 c 0,9,10
 942 1444 942 1444 1069.5 1381.5 c 128,-1,11
 1197 1319 1197 1319 1288 1212 c 128,-1,12
 1379 1105 1379 1105 1428 972 c 128,-1,13
 1477 839 1477 839 1477 694 c 0,14,15
 1477 505 1477 505 1389 333.5 c 128,-1,16
 1301 162 1301 162 1145 58.5 c 128,-1,17
 989 -45 989 -45 797 -45 c 0,0,1
449 207 m 0,18,19
 488 150 488 150 541.5 105.5 c 128,-1,20
 595 61 595 61 660.5 35.5 c 128,-1,21
 726 10 726 10 797 10 c 0,22,23
 900 10 900 10 990.5 63.5 c 128,-1,24
 1081 117 1081 117 1143 207 c 0,25,26
 1270 390 1270 390 1270 694 c 0,27,28
 1270 1001 1270 1001 1143 1190 c 0,29,30
 1082 1280 1082 1280 991.5 1335.5 c 128,-1,31
 901 1391 901 1391 797 1391 c 0,32,33
 691 1391 691 1391 600.5 1335.5 c 128,-1,34
 510 1280 510 1280 449 1190 c 0,35,36
 380 1087 380 1087 351 962.5 c 128,-1,37
 322 838 322 838 322 694 c 0,38,39
 322 601 322 601 333.5 516.5 c 128,-1,40
 345 432 345 432 373.5 353.5 c 128,-1,41
 402 275 402 275 449 207 c 0,18,19
438 549 m 1,42,-1
 438 852 l 1,43,-1
 498 852 l 1,44,-1
 498 782 l 1,45,-1
 1094 782 l 1,46,-1
 1094 852 l 1,47,-1
 1153 852 l 1,48,-1
 1153 549 l 1,49,-1
 1094 549 l 1,50,-1
 1094 618 l 1,51,-1
 498 618 l 1,52,-1
 498 549 l 1,53,-1
 438 549 l 1,42,-1
EndSplineSet
EndChar

StartChar: onequarter
Encoding: 188 188 8
Width: 1024
Flags: W
LayerCount: 2
Fore
SplineSet
53 0 m 1,0,-1
 53 72 l 1,1,2
 123 72 123 72 168 83 c 128,-1,3
 213 94 213 94 213 137 c 2,4,-1
 213 811 l 1,5,-1
 53 811 l 1,6,-1
 53 883 l 1,7,-1
 213 883 l 1,8,-1
 213 1155 l 2,9,10
 213 1239 213 1239 263.5 1306 c 128,-1,11
 314 1373 314 1373 392.5 1408.5 c 128,-1,12
 471 1444 471 1444 555 1444 c 0,13,14
 641 1444 641 1444 722.5 1407.5 c 128,-1,15
 804 1371 804 1371 855.5 1305 c 128,-1,16
 907 1239 907 1239 907 1151 c 0,17,18
 907 1045 907 1045 831.5 966 c 128,-1,19
 756 887 756 887 647 852 c 1,20,21
 746 812 746 812 817.5 735 c 128,-1,22
 889 658 889 658 927 557.5 c 128,-1,23
 965 457 965 457 965 352 c 0,24,25
 965 254 965 254 917 167.5 c 128,-1,26
 869 81 869 81 784.5 29 c 128,-1,27
 700 -23 700 -23 602 -23 c 0,28,29
 532 -23 532 -23 474 23.5 c 128,-1,30
 416 70 416 70 416 139 c 0,31,32
 416 171 416 171 439 194 c 128,-1,33
 462 217 462 217 494 217 c 256,34,35
 526 217 526 217 548.5 194.5 c 128,-1,36
 571 172 571 172 571 139 c 0,37,38
 571 112 571 112 554.5 91 c 128,-1,39
 538 70 538 70 512 63 c 1,40,41
 548 31 548 31 602 31 c 0,42,43
 674 31 674 31 720 82 c 128,-1,44
 766 133 766 133 784.5 207.5 c 128,-1,45
 803 282 803 282 803 352 c 0,46,47
 803 430 803 430 787 512.5 c 128,-1,48
 771 595 771 595 733.5 667.5 c 128,-1,49
 696 740 696 740 634 784.5 c 128,-1,50
 572 829 572 829 489 829 c 0,51,52
 471 829 471 829 471 848 c 2,53,-1
 471 866 l 2,54,55
 471 883 471 883 489 883 c 0,56,57
 564 883 564 883 622.5 917.5 c 128,-1,58
 681 952 681 952 713 1013 c 128,-1,59
 745 1074 745 1074 745 1151 c 0,60,61
 745 1248 745 1248 697 1319.5 c 128,-1,62
 649 1391 649 1391 555 1391 c 256,63,64
 461 1391 461 1391 408.5 1319 c 128,-1,65
 356 1247 356 1247 356 1149 c 2,66,-1
 356 0 l 1,67,-1
 53 0 l 1,0,-1
EndSplineSet
EndChar

StartChar: copyright
Encoding: 169 169 9
Width: 1479
Flags: W
LayerCount: 2
Fore
SplineSet
381 0 m 1,0,-1
 381 72 l 1,1,2
 643 72 643 72 643 137 c 2,3,-1
 643 285 l 1,4,5
 446 304 446 304 297 403 c 0,6,7
 219 456 219 456 167 534 c 128,-1,8
 115 612 115 612 115 700 c 0,9,10
 115 787 115 787 167 865.5 c 128,-1,11
 219 944 219 944 297 995 c 1,12,13
 374 1047 374 1047 459.5 1075.5 c 128,-1,14
 545 1104 545 1104 643 1114 c 1,15,-1
 643 1262 l 2,16,17
 643 1327 643 1327 381 1327 c 1,18,-1
 381 1399 l 1,19,-1
 1083 1399 l 1,20,-1
 1083 1327 l 1,21,22
 821 1327 821 1327 821 1262 c 2,23,-1
 821 1114 l 1,24,25
 906 1114 906 1114 1001 1082.5 c 128,-1,26
 1096 1051 1096 1051 1177 997 c 128,-1,27
 1258 943 1258 943 1310 865.5 c 128,-1,28
 1362 788 1362 788 1362 700 c 256,29,30
 1362 612 1362 612 1310 535 c 128,-1,31
 1258 458 1258 458 1174.5 402 c 128,-1,32
 1091 346 1091 346 996 315.5 c 128,-1,33
 901 285 901 285 821 285 c 1,34,-1
 821 137 l 2,35,36
 821 72 821 72 1083 72 c 1,37,-1
 1083 0 l 1,38,-1
 381 0 l 1,0,-1
821 338 m 1,39,40
 986 359 986 359 1067.5 448.5 c 128,-1,41
 1149 538 1149 538 1149 700 c 0,42,43
 1149 863 1149 863 1066.5 952 c 128,-1,44
 984 1041 984 1041 821 1061 c 1,45,-1
 821 338 l 1,39,40
643 340 m 1,46,-1
 643 1059 l 1,47,48
 328 1015 328 1015 328 700 c 0,49,50
 328 384 328 384 643 340 c 1,46,-1
EndSplineSet
EndChar

StartChar: section
Encoding: 167 167 10
Width: 1479
Flags: W
LayerCount: 2
Fore
SplineSet
135 0 m 2,0,1
 115 0 115 0 115 23 c 0,2,3
 115 31 115 31 121 37 c 2,4,-1
 625 610 l 1,5,-1
 121 1335 l 1,6,7
 115 1341 115 1341 115 1346 c 2,8,-1
 115 1380 l 2,9,10
 115 1386 115 1386 121.5 1392.5 c 128,-1,11
 128 1399 128 1399 135 1399 c 2,12,-1
 1305 1399 l 1,13,-1
 1362 930 l 1,14,-1
 1303 930 l 1,15,16
 1285 1076 1285 1076 1244.5 1156.5 c 128,-1,17
 1204 1237 1204 1237 1137.5 1274 c 128,-1,18
 1071 1311 1071 1311 986.5 1319 c 128,-1,19
 902 1327 902 1327 739 1327 c 2,20,-1
 358 1327 l 1,21,-1
 786 715 l 1,22,23
 791 700 791 700 791 700 c 1,24,25
 791 688 791 688 786 686 c 1,26,-1
 266 94 l 1,27,-1
 733 94 l 2,28,29
 896 94 896 94 981.5 102 c 128,-1,30
 1067 110 1067 110 1135 146.5 c 128,-1,31
 1203 183 1203 183 1244.5 265.5 c 128,-1,32
 1286 348 1286 348 1303 492 c 1,33,-1
 1362 492 l 1,34,-1
 1305 0 l 1,35,-1
 135 0 l 2,0,1
EndSplineSet
EndChar

StartChar: dieresis
Encoding: 168 168 11
Width: 1591
Flags: W
LayerCount: 2
Fore
SplineSet
438 0 m 1,0,-1
 438 72 l 1,1,2
 700 72 700 72 700 137 c 2,3,-1
 700 700 l 2,4,5
 700 827 700 827 675 958.5 c 128,-1,6
 650 1090 650 1090 579 1185 c 128,-1,7
 508 1280 508 1280 383 1280 c 0,8,9
 337 1280 337 1280 290.5 1260.5 c 128,-1,10
 244 1241 244 1241 215 1204 c 128,-1,11
 186 1167 186 1167 186 1118 c 0,12,13
 186 1109 186 1109 179.5 1102.5 c 128,-1,14
 173 1096 173 1096 164 1096 c 2,15,-1
 137 1096 l 2,16,17
 115 1096 115 1096 115 1118 c 0,18,19
 115 1197 115 1197 147.5 1273 c 128,-1,20
 180 1349 180 1349 241.5 1396.5 c 128,-1,21
 303 1444 303 1444 383 1444 c 0,22,23
 507 1444 507 1444 593.5 1370.5 c 128,-1,24
 680 1297 680 1297 728.5 1183 c 128,-1,25
 777 1069 777 1069 797 946 c 1,26,27
 816 1071 816 1071 863.5 1184 c 128,-1,28
 911 1297 911 1297 997 1370.5 c 128,-1,29
 1083 1444 1083 1444 1208 1444 c 0,30,31
 1289 1444 1289 1444 1350.5 1397 c 128,-1,32
 1412 1350 1412 1350 1444.5 1273.5 c 128,-1,33
 1477 1197 1477 1197 1477 1118 c 0,34,35
 1477 1096 1477 1096 1454 1096 c 2,36,-1
 1427 1096 l 2,37,38
 1405 1096 1405 1096 1405 1118 c 0,39,40
 1405 1167 1405 1167 1376 1204 c 128,-1,41
 1347 1241 1347 1241 1300.5 1260.5 c 128,-1,42
 1254 1280 1254 1280 1208 1280 c 0,43,44
 1083 1280 1083 1280 1012 1185 c 128,-1,45
 941 1090 941 1090 916 958.5 c 128,-1,46
 891 827 891 827 891 700 c 2,47,-1
 891 137 l 2,48,49
 891 72 891 72 1153 72 c 1,50,-1
 1153 0 l 1,51,-1
 438 0 l 1,0,-1
EndSplineSet
EndChar

StartChar: uni00AD
Encoding: 173 173 12
Width: 1479
Flags: W
LayerCount: 2
Fore
SplineSet
158 0 m 1,0,-1
 90 340 l 1,1,-1
 150 340 l 1,2,3
 161 281 161 281 170 235.5 c 128,-1,4
 179 190 179 190 193.5 171.5 c 128,-1,5
 208 153 208 153 240 147 c 128,-1,6
 272 141 272 141 346 141 c 2,7,-1
 471 141 l 1,8,9
 441 257 441 257 321.5 443.5 c 128,-1,10
 202 630 202 630 158.5 714.5 c 128,-1,11
 115 799 115 799 115 932 c 0,12,13
 115 1087 115 1087 207 1203.5 c 128,-1,14
 299 1320 299 1320 444.5 1382 c 128,-1,15
 590 1444 590 1444 739 1444 c 0,16,17
 887 1444 887 1444 1032.5 1382 c 128,-1,18
 1178 1320 1178 1320 1270 1202.5 c 128,-1,19
 1362 1085 1362 1085 1362 932 c 0,20,21
 1362 828 1362 828 1324 736 c 128,-1,22
 1286 644 1286 644 1227 552 c 128,-1,23
 1168 460 1168 460 1099.5 347 c 128,-1,24
 1031 234 1031 234 1006 141 c 1,25,-1
 1130 141 l 2,26,27
 1205 141 1205 141 1238 147 c 128,-1,28
 1271 153 1271 153 1285 171.5 c 128,-1,29
 1299 190 1299 190 1307.5 235.5 c 128,-1,30
 1316 281 1316 281 1327 340 c 1,31,-1
 1386 340 l 1,32,-1
 1319 0 l 1,33,-1
 956 0 l 2,34,35
 936 0 936 0 936 27 c 0,36,37
 936 131 936 131 961.5 231 c 128,-1,38
 987 331 987 331 1037 473 c 128,-1,39
 1087 615 1087 615 1115 723.5 c 128,-1,40
 1143 832 1143 832 1143 932 c 0,41,42
 1143 1055 1143 1055 1095 1160 c 128,-1,43
 1047 1265 1047 1265 955 1328 c 128,-1,44
 863 1391 863 1391 739 1391 c 0,45,46
 552 1391 552 1391 443 1257.5 c 128,-1,47
 334 1124 334 1124 334 932 c 1,48,49
 335 827 335 827 359 734 c 128,-1,50
 383 641 383 641 436.5 486 c 128,-1,51
 490 331 490 331 515.5 231 c 128,-1,52
 541 131 541 131 541 27 c 0,53,54
 541 0 541 0 520 0 c 2,55,-1
 158 0 l 1,0,-1
EndSplineSet
EndChar

StartChar: Aacute
Encoding: 193 193 13
Width: 2075
Flags: W
LayerCount: 2
Fore
SplineSet
823 -45 m 0,0,1
 631 -45 631 -45 475 58.5 c 128,-1,2
 319 162 319 162 231 333.5 c 128,-1,3
 143 505 143 505 143 694 c 0,4,5
 143 834 143 834 193.5 971 c 128,-1,6
 244 1108 244 1108 334.5 1214 c 128,-1,7
 425 1320 425 1320 552 1382 c 128,-1,8
 679 1444 679 1444 823 1444 c 0,9,10
 868 1444 868 1444 924 1433 c 128,-1,11
 980 1422 980 1422 1035 1410.5 c 128,-1,12
 1090 1399 1090 1399 1135 1399 c 2,13,-1
 1903 1399 l 1,14,-1
 1960 930 l 1,15,-1
 1901 930 l 1,16,17
 1886 1060 1886 1060 1866 1131 c 128,-1,18
 1846 1202 1846 1202 1806 1245.5 c 128,-1,19
 1766 1289 1766 1289 1693.5 1308 c 128,-1,20
 1621 1327 1621 1327 1493 1327 c 2,21,-1
 1321 1327 l 2,22,23
 1284 1327 1284 1327 1263.5 1324 c 128,-1,24
 1243 1321 1243 1321 1230 1306.5 c 128,-1,25
 1217 1292 1217 1292 1217 1262 c 2,26,-1
 1217 762 l 1,27,-1
 1397 762 l 2,28,29
 1506 762 1506 762 1560 777.5 c 128,-1,30
 1614 793 1614 793 1636.5 842.5 c 128,-1,31
 1659 892 1659 892 1659 1001 c 1,32,-1
 1718 1001 l 1,33,-1
 1718 451 l 1,34,-1
 1659 451 l 1,35,36
 1659 560 1659 560 1636.5 609.5 c 128,-1,37
 1614 659 1614 659 1560 674.5 c 128,-1,38
 1506 690 1506 690 1397 690 c 2,39,-1
 1217 690 l 1,40,-1
 1217 137 l 2,41,42
 1217 93 1217 93 1242 82.5 c 128,-1,43
 1267 72 1267 72 1321 72 c 2,44,-1
 1509 72 l 2,45,46
 1685 72 1685 72 1772 119 c 128,-1,47
 1859 166 1859 166 1893.5 257 c 128,-1,48
 1928 348 1928 348 1958 537 c 1,49,-1
 2017 537 l 1,50,-1
 1931 0 l 1,51,-1
 1135 0 l 2,52,53
 1090 0 1090 0 1035 -11 c 128,-1,54
 980 -22 980 -22 924 -33.5 c 128,-1,55
 868 -45 868 -45 823 -45 c 0,0,1
823 8 m 0,56,57
 969 8 969 8 1012 90 c 1,58,59
 1039 145 1039 145 1046 237 c 128,-1,60
 1053 329 1053 329 1053 467 c 2,61,-1
 1053 932 l 2,62,63
 1053 1070 1053 1070 1046 1162 c 128,-1,64
 1039 1254 1039 1254 1012 1309 c 1,65,66
 969 1391 969 1391 823 1391 c 0,67,68
 709 1391 709 1391 620.5 1329 c 128,-1,69
 532 1267 532 1267 473 1164.5 c 128,-1,70
 414 1062 414 1062 385 948 c 128,-1,71
 356 834 356 834 356 727 c 0,72,73
 356 578 356 578 407 409.5 c 128,-1,74
 458 241 458 241 563.5 124.5 c 128,-1,75
 669 8 669 8 823 8 c 0,56,57
EndSplineSet
EndChar

StartChar: currency
Encoding: 164 164 14
Width: 1421
Flags: W
LayerCount: 2
Fore
SplineSet
66 0 m 1,0,-1
 66 72 l 1,1,2
 226 72 226 72 266 193 c 1,3,-1
 666 1444 l 2,4,5
 673 1466 673 1466 696 1466 c 2,6,-1
 723 1466 l 2,7,8
 734 1466 734 1466 742.5 1460 c 128,-1,9
 751 1454 751 1454 754 1444 c 2,10,-1
 1171 137 l 1,11,12
 1189 93 1189 93 1235 82.5 c 128,-1,13
 1281 72 1281 72 1354 72 c 1,14,-1
 1354 0 l 1,15,-1
 799 0 l 1,16,-1
 799 72 l 1,17,18
 973 72 973 72 973 127 c 0,19,20
 973 133 973 133 971 137 c 2,21,-1
 647 1153 l 1,22,-1
 342 193 l 2,23,24
 338 179 338 179 338 172 c 0,25,26
 338 121 338 121 388.5 96.5 c 128,-1,27
 439 72 439 72 496 72 c 1,28,-1
 496 0 l 1,29,-1
 66 0 l 1,0,-1
EndSplineSet
EndChar

StartChar: ordfeminine
Encoding: 170 170 15
Width: 1591
Flags: W
LayerCount: 2
Fore
SplineSet
438 0 m 1,0,-1
 438 72 l 1,1,2
 700 72 700 72 700 137 c 2,3,-1
 700 287 l 1,4,5
 586 302 586 302 503.5 346.5 c 128,-1,6
 421 391 421 391 365 463 c 128,-1,7
 309 535 309 535 280.5 630.5 c 128,-1,8
 252 726 252 726 252 836 c 0,9,10
 252 1077 252 1077 135 1077 c 0,11,12
 130 1077 130 1077 122.5 1083.5 c 128,-1,13
 115 1090 115 1090 115 1096 c 2,14,-1
 115 1112 l 2,15,16
 115 1119 115 1119 121.5 1124.5 c 128,-1,17
 128 1130 128 1130 135 1130 c 2,18,-1
 272 1130 l 2,19,20
 337 1130 337 1130 372 1083.5 c 128,-1,21
 407 1037 407 1037 418.5 974 c 128,-1,22
 430 911 430 911 430 844 c 0,23,24
 430 662 430 662 489 524.5 c 128,-1,25
 548 387 548 387 700 346 c 1,26,-1
 700 1262 l 2,27,28
 700 1327 700 1327 438 1327 c 1,29,-1
 438 1399 l 1,30,-1
 1141 1399 l 1,31,-1
 1141 1327 l 1,32,33
 879 1327 879 1327 879 1262 c 2,34,-1
 879 344 l 1,35,36
 986 371 986 371 1049 447.5 c 128,-1,37
 1112 524 1112 524 1136.5 626 c 128,-1,38
 1161 728 1161 728 1161 844 c 0,39,40
 1161 954 1161 954 1194 1042 c 128,-1,41
 1227 1130 1227 1130 1319 1130 c 2,42,-1
 1456 1130 l 2,43,44
 1463 1130 1463 1130 1470 1124.5 c 128,-1,45
 1477 1119 1477 1119 1477 1112 c 2,46,-1
 1477 1096 l 2,47,48
 1477 1089 1477 1089 1469 1083 c 128,-1,49
 1461 1077 1461 1077 1456 1077 c 0,50,51
 1339 1077 1339 1077 1339 836 c 0,52,53
 1339 725 1339 725 1310 629.5 c 128,-1,54
 1281 534 1281 534 1222.5 461.5 c 128,-1,55
 1164 389 1164 389 1079.5 344.5 c 128,-1,56
 995 300 995 300 879 285 c 1,57,-1
 879 137 l 2,58,59
 879 72 879 72 1141 72 c 1,60,-1
 1141 0 l 1,61,-1
 438 0 l 1,0,-1
EndSplineSet
EndChar

StartChar: onehalf
Encoding: 189 189 16
Width: 1479
Flags: W
LayerCount: 2
Fore
SplineSet
88 193 m 0,0,1
 88 284 88 284 145.5 348 c 128,-1,2
 203 412 203 412 294 448.5 c 128,-1,3
 385 485 385 485 483 500.5 c 128,-1,4
 581 516 581 516 664 516 c 1,5,-1
 664 623 l 2,6,7
 664 682 664 682 638 737.5 c 128,-1,8
 612 793 612 793 563 828.5 c 128,-1,9
 514 864 514 864 455 864 c 0,10,11
 319 864 319 864 248 803 c 1,12,13
 287 803 287 803 312.5 773.5 c 128,-1,14
 338 744 338 744 338 705 c 0,15,16
 338 664 338 664 309 635 c 128,-1,17
 280 606 280 606 240 606 c 0,18,19
 199 606 199 606 170 635 c 128,-1,20
 141 664 141 664 141 705 c 0,21,22
 141 813 141 813 239.5 865.5 c 128,-1,23
 338 918 338 918 455 918 c 0,24,25
 514 918 514 918 575 901 c 128,-1,26
 636 884 636 884 687 848.5 c 128,-1,27
 738 813 738 813 770 764 c 1,28,29
 828 836 828 836 906 877 c 128,-1,30
 984 918 984 918 1073 918 c 0,31,32
 1190 918 1190 918 1267.5 861.5 c 128,-1,33
 1345 805 1345 805 1382 710 c 128,-1,34
 1419 615 1419 615 1419 500 c 0,35,36
 1419 473 1419 473 1399 473 c 2,37,-1
 813 473 l 1,38,-1
 813 449 l 2,39,40
 813 347 813 347 844.5 252.5 c 128,-1,41
 876 158 876 158 945 97.5 c 128,-1,42
 1014 37 1014 37 1118 37 c 0,43,44
 1206 37 1206 37 1272.5 99 c 128,-1,45
 1339 161 1339 161 1360 250 c 0,46,47
 1362 257 1362 257 1367.5 262.5 c 128,-1,48
 1373 268 1373 268 1380 268 c 2,49,-1
 1399 268 l 2,50,51
 1419 268 1419 268 1419 242 c 1,52,53
 1401 169 1401 169 1355.5 108.5 c 128,-1,54
 1310 48 1310 48 1243.5 12.5 c 128,-1,55
 1177 -23 1177 -23 1102 -23 c 0,56,57
 1004 -23 1004 -23 913 24.5 c 128,-1,58
 822 72 822 72 760 154 c 1,59,60
 730 95 730 95 673 55 c 128,-1,61
 616 15 616 15 547.5 -4 c 128,-1,62
 479 -23 479 -23 412 -23 c 0,63,64
 293 -23 293 -23 190.5 30 c 128,-1,65
 88 83 88 83 88 193 c 0,0,1
254 193 m 0,66,67
 254 125 254 125 306 78 c 128,-1,68
 358 31 358 31 426 31 c 256,69,70
 494 31 494 31 554 62.5 c 128,-1,71
 614 94 614 94 651 149.5 c 128,-1,72
 688 205 688 205 688 272 c 0,73,74
 688 281 688 281 687.5 287 c 128,-1,75
 687 293 687 293 686 299 c 0,76,77
 664 366 664 366 664 449 c 2,78,-1
 664 465 l 1,79,80
 574 465 574 465 478.5 436.5 c 128,-1,81
 383 408 383 408 318.5 347.5 c 128,-1,82
 254 287 254 287 254 193 c 0,66,67
815 524 m 1,83,-1
 1276 524 l 1,84,85
 1276 601 1276 601 1257.5 678 c 128,-1,86
 1239 755 1239 755 1194 809.5 c 128,-1,87
 1149 864 1149 864 1073 864 c 0,88,89
 957 864 957 864 886 755 c 128,-1,90
 815 646 815 646 815 524 c 1,83,-1
EndSplineSet
EndChar

StartChar: brokenbar
Encoding: 166 166 17
Width: 1536
Flags: W
LayerCount: 2
Fore
SplineSet
63 0 m 1,0,-1
 63 72 l 1,1,2
 274 72 274 72 274 137 c 2,3,-1
 274 1262 l 2,4,5
 274 1327 274 1327 63 1327 c 1,6,-1
 63 1399 l 1,7,-1
 1470 1399 l 1,8,-1
 1470 1327 l 1,9,10
 1260 1327 1260 1327 1260 1262 c 2,11,-1
 1260 137 l 2,12,13
 1260 72 1260 72 1470 72 c 1,14,-1
 1470 0 l 1,15,-1
 858 0 l 1,16,-1
 858 72 l 1,17,18
 1069 72 1069 72 1069 137 c 2,19,-1
 1069 1327 l 1,20,-1
 465 1327 l 1,21,-1
 465 137 l 2,22,23
 465 72 465 72 676 72 c 1,24,-1
 676 0 l 1,25,-1
 63 0 l 1,0,-1
EndSplineSet
EndChar

StartChar: threequarters
Encoding: 190 190 18
Width: 1591
Flags: W
LayerCount: 2
Fore
SplineSet
498 -23 m 0,0,1
 374 -23 374 -23 273 43 c 128,-1,2
 172 109 172 109 114.5 218 c 128,-1,3
 57 327 57 327 57 449 c 0,4,5
 57 568 57 568 115 678 c 128,-1,6
 173 788 173 788 274.5 853 c 128,-1,7
 376 918 376 918 498 918 c 0,8,9
 606 918 606 918 699.5 863 c 128,-1,10
 793 808 793 808 852 717 c 1,11,12
 908 808 908 808 997.5 863 c 128,-1,13
 1087 918 1087 918 1188 918 c 0,14,15
 1305 918 1305 918 1382.5 861.5 c 128,-1,16
 1460 805 1460 805 1497 710 c 128,-1,17
 1534 615 1534 615 1534 500 c 0,18,19
 1534 473 1534 473 1513 473 c 2,20,-1
 928 473 l 1,21,-1
 928 449 l 2,22,23
 928 347 928 347 959.5 252.5 c 128,-1,24
 991 158 991 158 1060 97.5 c 128,-1,25
 1129 37 1129 37 1233 37 c 0,26,27
 1321 37 1321 37 1387.5 99 c 128,-1,28
 1454 161 1454 161 1475 250 c 0,29,30
 1477 257 1477 257 1482.5 262.5 c 128,-1,31
 1488 268 1488 268 1495 268 c 2,32,-1
 1513 268 l 2,33,34
 1534 268 1534 268 1534 242 c 1,35,36
 1516 169 1516 169 1470.5 108.5 c 128,-1,37
 1425 48 1425 48 1358.5 12.5 c 128,-1,38
 1292 -23 1292 -23 1217 -23 c 0,39,40
 1144 -23 1144 -23 1075 3 c 128,-1,41
 1006 29 1006 29 949 76 c 128,-1,42
 892 123 892 123 854 184 c 1,43,44
 796 91 796 91 700.5 34 c 128,-1,45
 605 -23 605 -23 498 -23 c 0,0,1
498 31 m 0,46,47
 648 31 648 31 713 161 c 128,-1,48
 778 291 778 291 778 459 c 0,49,50
 778 559 778 559 751.5 651 c 128,-1,51
 725 743 725 743 662 803.5 c 128,-1,52
 599 864 599 864 498 864 c 0,53,54
 351 864 351 864 287 742 c 128,-1,55
 223 620 223 620 223 459 c 0,56,57
 223 355 223 355 246.5 259.5 c 128,-1,58
 270 164 270 164 331 97.5 c 128,-1,59
 392 31 392 31 498 31 c 0,46,47
930 524 m 1,60,-1
 1391 524 l 1,61,62
 1391 601 1391 601 1372.5 678 c 128,-1,63
 1354 755 1354 755 1309 809.5 c 128,-1,64
 1264 864 1264 864 1188 864 c 0,65,66
 1072 864 1072 864 1001 755 c 128,-1,67
 930 646 930 646 930 524 c 1,60,-1
EndSplineSet
EndChar

StartChar: exclamdown
Encoding: 161 161 19
Width: 1280
Flags: W
LayerCount: 2
Fore
SplineSet
63 0 m 1,0,-1
 63 72 l 1,1,2
 274 72 274 72 274 137 c 2,3,-1
 274 1262 l 2,4,5
 274 1327 274 1327 63 1327 c 1,6,-1
 63 1399 l 1,7,-1
 1135 1399 l 1,8,-1
 1192 930 l 1,9,-1
 1133 930 l 1,10,11
 1118 1060 1118 1060 1098.5 1131 c 128,-1,12
 1079 1202 1079 1202 1039 1245.5 c 128,-1,13
 999 1289 999 1289 927 1308 c 128,-1,14
 855 1327 855 1327 727 1327 c 2,15,-1
 569 1327 l 2,16,17
 532 1327 532 1327 511.5 1324 c 128,-1,18
 491 1321 491 1321 478 1306.5 c 128,-1,19
 465 1292 465 1292 465 1262 c 2,20,-1
 465 137 l 2,21,22
 465 72 465 72 727 72 c 1,23,-1
 727 0 l 1,24,-1
 63 0 l 1,0,-1
EndSplineSet
EndChar

StartChar: Acircumflex
Encoding: 194 194 20
Width: 1591
Flags: W
LayerCount: 2
Fore
SplineSet
238 -84 m 1,0,-1
 371 117 l 1,1,2
 247 224 247 224 181 376.5 c 128,-1,3
 115 529 115 529 115 694 c 0,4,5
 115 834 115 834 165.5 971 c 128,-1,6
 216 1108 216 1108 306.5 1214 c 128,-1,7
 397 1320 397 1320 524 1382 c 128,-1,8
 651 1444 651 1444 797 1444 c 0,9,10
 899 1444 899 1444 994.5 1411.5 c 128,-1,11
 1090 1379 1090 1379 1171 1319 c 1,12,-1
 1303 1516 l 1,13,-1
 1354 1483 l 1,14,-1
 1219 1282 l 1,15,16
 1303 1207 1303 1207 1360 1113.5 c 128,-1,17
 1417 1020 1417 1020 1447 913 c 128,-1,18
 1477 806 1477 806 1477 694 c 0,19,20
 1477 505 1477 505 1389 333.5 c 128,-1,21
 1301 162 1301 162 1145 58.5 c 128,-1,22
 989 -45 989 -45 797 -45 c 0,23,24
 695 -45 695 -45 597.5 -12.5 c 128,-1,25
 500 20 500 20 418 80 c 1,26,-1
 289 -117 l 1,27,-1
 238 -84 l 1,0,-1
467 154 m 1,28,29
 534 84 534 84 620 46 c 128,-1,30
 706 8 706 8 797 8 c 0,31,32
 905 8 905 8 1002 60.5 c 128,-1,33
 1099 113 1099 113 1165 203 c 1,34,35
 1235 301 1235 301 1260.5 422 c 128,-1,36
 1286 543 1286 543 1286 694 c 0,37,38
 1286 846 1286 846 1259.5 972.5 c 128,-1,39
 1233 1099 1233 1099 1163 1196 c 1,40,-1
 467 154 l 1,28,29
428 201 m 1,41,-1
 1122 1245 l 1,42,43
 1057 1315 1057 1315 972.5 1353 c 128,-1,44
 888 1391 888 1391 797 1391 c 0,45,46
 686 1391 686 1391 587 1336.5 c 128,-1,47
 488 1282 488 1282 426 1192 c 0,48,49
 358 1095 358 1095 331.5 970.5 c 128,-1,50
 305 846 305 846 305 694 c 0,51,52
 305 596 305 596 315 511.5 c 128,-1,53
 325 427 325 427 352 347 c 128,-1,54
 379 267 379 267 428 201 c 1,41,-1
EndSplineSet
EndChar

StartChar: comma
Encoding: 44 44 21
Width: 567
Flags: W
LayerCount: 2
Fore
SplineSet
203 -369 m 0,0,1
 203 -360 203 -360 211 -352 c 0,2,3
 285 -281 285 -281 326 -188 c 128,-1,4
 367 -95 367 -95 367 8 c 2,5,-1
 367 33 l 1,6,7
 334 0 334 0 285 0 c 0,8,9
 238 0 238 0 205 33 c 128,-1,10
 172 66 172 66 172 113 c 0,11,12
 172 161 172 161 205 193 c 128,-1,13
 238 225 238 225 285 225 c 0,14,15
 358 225 358 225 389 157.5 c 128,-1,16
 420 90 420 90 420 8 c 0,17,18
 420 -106 420 -106 374.5 -208.5 c 128,-1,19
 329 -311 329 -311 246 -393 c 1,20,21
 238 -397 238 -397 233 -397 c 0,22,23
 223 -397 223 -397 213 -388 c 128,-1,24
 203 -379 203 -379 203 -369 c 0,0,1
EndSplineSet
EndChar

StartChar: nine
Encoding: 57 57 22
Width: 1024
Flags: W
LayerCount: 2
Fore
SplineSet
231 86 m 1,0,1
 287 20 287 20 426 20 c 0,2,3
 504 20 504 20 571.5 73 c 128,-1,4
 639 126 639 126 676 203 c 0,5,6
 719 290 719 290 731 388.5 c 128,-1,7
 743 487 743 487 743 633 c 1,8,9
 708 550 708 550 642.5 497 c 128,-1,10
 577 444 577 444 492 444 c 0,11,12
 373 444 373 444 279.5 508.5 c 128,-1,13
 186 573 186 573 136 678.5 c 128,-1,14
 86 784 86 784 86 903 c 0,15,16
 86 1026 86 1026 142 1132.5 c 128,-1,17
 198 1239 198 1239 297 1301.5 c 128,-1,18
 396 1364 396 1364 522 1364 c 0,19,20
 646 1364 646 1364 729.5 1296.5 c 128,-1,21
 813 1229 813 1229 857 1122.5 c 128,-1,22
 901 1016 901 1016 918.5 897 c 128,-1,23
 936 778 936 778 936 662 c 0,24,25
 936 504 936 504 878 339.5 c 128,-1,26
 820 175 820 175 704.5 65 c 128,-1,27
 589 -45 589 -45 426 -45 c 0,28,29
 305 -45 305 -45 221 12 c 128,-1,30
 137 69 137 69 137 184 c 0,31,32
 137 226 137 226 165.5 254.5 c 128,-1,33
 194 283 194 283 236 283 c 0,34,35
 277 283 277 283 305.5 254.5 c 128,-1,36
 334 226 334 226 334 184 c 0,37,38
 334 144 334 144 305 115 c 128,-1,39
 276 86 276 86 236 86 c 2,40,-1
 231 86 l 1,0,1
500 498 m 0,41,42
 584 498 584 498 637.5 554.5 c 128,-1,43
 691 611 691 611 715 695 c 128,-1,44
 739 779 739 779 739 862 c 2,45,-1
 739 901 l 1,46,-1
 739 909 l 2,47,48
 739 1063 739 1063 694 1184 c 128,-1,49
 649 1305 649 1305 522 1305 c 0,50,51
 441 1305 441 1305 390.5 1269.5 c 128,-1,52
 340 1234 340 1234 316 1175 c 128,-1,53
 292 1116 292 1116 285.5 1049 c 128,-1,54
 279 982 279 982 279 903 c 0,55,56
 279 787 279 787 290 705 c 128,-1,57
 301 623 301 623 350 560.5 c 128,-1,58
 399 498 399 498 500 498 c 0,41,42
EndSplineSet
EndChar

StartChar: M
Encoding: 77 77 23
Width: 1876
Flags: W
LayerCount: 2
Fore
SplineSet
72 0 m 1,0,-1
 72 72 l 1,1,2
 283 72 283 72 283 193 c 2,3,-1
 283 1262 l 2,4,5
 283 1327 283 1327 72 1327 c 1,6,-1
 72 1399 l 1,7,-1
 459 1399 l 2,8,9
 484 1399 484 1399 492 1376 c 2,10,-1
 938 217 l 1,11,-1
 1384 1376 l 2,12,13
 1392 1399 1392 1399 1417 1399 c 2,14,-1
 1804 1399 l 1,15,-1
 1804 1327 l 1,16,17
 1593 1327 1593 1327 1593 1262 c 2,18,-1
 1593 137 l 2,19,20
 1593 72 1593 72 1804 72 c 1,21,-1
 1804 0 l 1,22,-1
 1208 0 l 1,23,-1
 1208 72 l 1,24,25
 1419 72 1419 72 1419 137 c 2,26,-1
 1419 1329 l 1,27,-1
 915 23 l 2,28,29
 906 0 906 0 881 0 c 0,30,31
 855 0 855 0 846 23 c 2,32,-1
 348 1313 l 1,33,-1
 348 193 l 2,34,35
 348 72 348 72 559 72 c 1,36,-1
 559 0 l 1,37,-1
 72 0 l 1,0,-1
EndSplineSet
EndChar

StartChar: Z
Encoding: 90 90 24
Width: 1251
Flags: W
LayerCount: 2
Fore
SplineSet
137 0 m 2,0,1
 115 0 115 0 115 23 c 2,2,-1
 115 51 l 2,3,4
 115 59 115 59 119 63 c 1,5,-1
 915 1327 l 1,6,-1
 627 1327 l 2,7,8
 483 1327 483 1327 389.5 1289 c 128,-1,9
 296 1251 296 1251 248.5 1164 c 128,-1,10
 201 1077 201 1077 201 930 c 1,11,-1
 141 930 l 1,12,-1
 164 1399 l 1,13,-1
 1112 1399 l 2,14,15
 1135 1399 1135 1399 1135 1376 c 2,16,-1
 1135 1352 l 2,17,18
 1135 1343 1135 1343 1133 1339 c 2,19,-1
 336 78 l 1,20,-1
 637 78 l 2,21,22
 746 78 746 78 833 98 c 128,-1,23
 920 118 920 118 979 176 c 0,24,25
 1020 217 1020 217 1043 279 c 128,-1,26
 1066 341 1066 341 1073 399 c 128,-1,27
 1080 457 1080 457 1087 555 c 1,28,-1
 1147 555 l 1,29,-1
 1112 0 l 1,30,-1
 137 0 l 2,0,1
EndSplineSet
EndChar

StartChar: grave
Encoding: 96 96 25
Width: 567
Flags: W
LayerCount: 2
Fore
SplineSet
285 799 m 0,0,1
 211 799 211 799 177 866.5 c 128,-1,2
 143 934 143 934 143 1016 c 0,3,4
 143 1094 143 1094 165 1166.5 c 128,-1,5
 187 1239 187 1239 228.5 1304.5 c 128,-1,6
 270 1370 270 1370 324 1417 c 1,7,8
 332 1421 332 1421 336 1421 c 0,9,10
 346 1421 346 1421 356.5 1411.5 c 128,-1,11
 367 1402 367 1402 367 1393 c 0,12,13
 367 1385 367 1385 358 1376 c 0,14,15
 309 1333 309 1333 272 1274.5 c 128,-1,16
 235 1216 235 1216 216 1149 c 128,-1,17
 197 1082 197 1082 197 1016 c 0,18,19
 197 995 197 995 199 985 c 1,20,21
 228 1024 228 1024 285 1024 c 0,22,23
 334 1024 334 1024 365.5 991.5 c 128,-1,24
 397 959 397 959 397 911 c 0,25,26
 397 865 397 865 365 832 c 128,-1,27
 333 799 333 799 285 799 c 0,0,1
EndSplineSet
EndChar

StartChar: underscore
Encoding: 95 95 26
Width: 567
Flags: W
LayerCount: 2
Fore
SplineSet
172 1257 m 0,0,1
 172 1302 172 1302 206 1336 c 128,-1,2
 240 1370 240 1370 285 1370 c 0,3,4
 313 1370 313 1370 340 1355 c 128,-1,5
 367 1340 367 1340 382 1313 c 128,-1,6
 397 1286 397 1286 397 1257 c 0,7,8
 397 1213 397 1213 364 1179 c 128,-1,9
 331 1145 331 1145 285 1145 c 0,10,11
 240 1145 240 1145 206 1179 c 128,-1,12
 172 1213 172 1213 172 1257 c 0,0,1
EndSplineSet
EndChar

StartChar: g
Encoding: 103 103 27
Width: 1024
Flags: W
LayerCount: 2
Fore
SplineSet
57 -160 m 0,0,1
 57 -87 57 -87 110 -32.5 c 128,-1,2
 163 22 163 22 236 45 c 1,3,4
 195 76 195 76 173.5 123 c 128,-1,5
 152 170 152 170 152 223 c 0,6,7
 152 319 152 319 213 393 c 1,8,9
 119 485 119 485 119 604 c 0,10,11
 119 668 119 668 146.5 724 c 128,-1,12
 174 780 174 780 223 821 c 128,-1,13
 272 862 272 862 332 883.5 c 128,-1,14
 392 905 392 905 455 905 c 0,15,16
 577 905 577 905 674 834 c 1,17,18
 716 879 716 879 773.5 903.5 c 128,-1,19
 831 928 831 928 893 928 c 0,20,21
 937 928 937 928 965 896.5 c 128,-1,22
 993 865 993 865 993 821 c 0,23,24
 993 796 993 796 974 777 c 128,-1,25
 955 758 955 758 930 758 c 0,26,27
 904 758 904 758 885 777 c 128,-1,28
 866 796 866 796 866 821 c 0,29,30
 866 859 866 859 891 874 c 1,31,32
 785 874 785 874 709 801 c 1,33,34
 746 764 746 764 768.5 710.5 c 128,-1,35
 791 657 791 657 791 604 c 0,36,37
 791 517 791 517 743 447.5 c 128,-1,38
 695 378 695 378 616.5 339.5 c 128,-1,39
 538 301 538 301 455 301 c 0,40,41
 343 301 343 301 250 362 c 1,42,43
 221 322 221 322 221 272 c 0,44,45
 221 218 221 218 256.5 177.5 c 128,-1,46
 292 137 292 137 346 137 c 2,47,-1
 514 137 l 2,48,49
 636 137 636 137 734 115 c 128,-1,50
 832 93 832 93 898.5 27 c 128,-1,51
 965 -39 965 -39 965 -160 c 0,52,53
 965 -250 965 -250 889 -309.5 c 128,-1,54
 813 -369 813 -369 707.5 -395.5 c 128,-1,55
 602 -422 602 -422 512 -422 c 0,56,57
 421 -422 421 -422 315 -395.5 c 128,-1,58
 209 -369 209 -369 133 -309.5 c 128,-1,59
 57 -250 57 -250 57 -160 c 0,0,1
172 -160 m 0,60,61
 172 -229 172 -229 228 -275.5 c 128,-1,62
 284 -322 284 -322 363 -344.5 c 128,-1,63
 442 -367 442 -367 512 -367 c 0,64,65
 581 -367 581 -367 660 -344.5 c 128,-1,66
 739 -322 739 -322 794.5 -275.5 c 128,-1,67
 850 -229 850 -229 850 -160 c 0,68,69
 850 -53 850 -53 752 -21.5 c 128,-1,70
 654 10 654 10 514 10 c 2,71,-1
 346 10 l 2,72,73
 299 10 299 10 259.5 -12.5 c 128,-1,74
 220 -35 220 -35 196 -75.5 c 128,-1,75
 172 -116 172 -116 172 -160 c 0,60,61
455 356 m 0,76,77
 629 356 629 356 629 604 c 0,78,79
 629 711 629 711 592 780.5 c 128,-1,80
 555 850 555 850 455 850 c 256,81,82
 355 850 355 850 318 780.5 c 128,-1,83
 281 711 281 711 281 604 c 0,84,85
 281 536 281 536 295 481 c 128,-1,86
 309 426 309 426 347 391 c 128,-1,87
 385 356 385 356 455 356 c 0,76,77
EndSplineSet
EndChar

StartChar: t
Encoding: 116 116 28
Width: 795
Flags: W
LayerCount: 2
Fore
SplineSet
209 246 m 2,0,-1
 209 811 l 1,1,-1
 39 811 l 1,2,-1
 39 864 l 1,3,4
 173 864 173 864 236 989 c 128,-1,5
 299 1114 299 1114 299 1260 c 1,6,-1
 358 1260 l 1,7,-1
 358 883 l 1,8,-1
 647 883 l 1,9,-1
 647 811 l 1,10,-1
 358 811 l 1,11,-1
 358 250 l 2,12,13
 358 165 358 165 386.5 101 c 128,-1,14
 415 37 415 37 489 37 c 0,15,16
 559 37 559 37 590 104.5 c 128,-1,17
 621 172 621 172 621 250 c 2,18,-1
 621 371 l 1,19,-1
 680 371 l 1,20,-1
 680 246 l 2,21,22
 680 182 680 182 656.5 119.5 c 128,-1,23
 633 57 633 57 587 17 c 128,-1,24
 541 -23 541 -23 475 -23 c 0,25,26
 352 -23 352 -23 280.5 50.5 c 128,-1,27
 209 124 209 124 209 246 c 2,0,-1
EndSplineSet
EndChar

StartChar: exclam
Encoding: 33 33 29
Width: 567
Flags: W
LayerCount: 2
Fore
SplineSet
172 113 m 0,0,1
 172 159 172 159 206 192 c 128,-1,2
 240 225 240 225 285 225 c 0,3,4
 313 225 313 225 340 210 c 128,-1,5
 367 195 367 195 382 168 c 128,-1,6
 397 141 397 141 397 113 c 0,7,8
 397 68 397 68 364 34 c 128,-1,9
 331 0 331 0 285 0 c 0,10,11
 240 0 240 0 206 34 c 128,-1,12
 172 68 172 68 172 113 c 0,0,1
256 408 m 2,13,-1
 172 1352 l 1,14,-1
 172 1364 l 2,15,16
 172 1407 172 1407 206.5 1436.5 c 128,-1,17
 241 1466 241 1466 285 1466 c 0,18,19
 330 1466 330 1466 363.5 1436.5 c 128,-1,20
 397 1407 397 1407 397 1364 c 2,21,-1
 397 1352 l 1,22,-1
 315 408 l 2,23,24
 315 401 315 401 309 395 c 128,-1,25
 303 389 303 389 297 389 c 2,26,-1
 272 389 l 2,27,28
 267 389 267 389 261.5 395.5 c 128,-1,29
 256 402 256 402 256 408 c 2,13,-1
EndSplineSet
EndChar

StartChar: period
Encoding: 46 46 30
Width: 567
Flags: W
LayerCount: 2
Fore
SplineSet
172 113 m 0,0,1
 172 159 172 159 206 192 c 128,-1,2
 240 225 240 225 285 225 c 0,3,4
 313 225 313 225 340 210 c 128,-1,5
 367 195 367 195 382 168 c 128,-1,6
 397 141 397 141 397 113 c 0,7,8
 397 68 397 68 364 34 c 128,-1,9
 331 0 331 0 285 0 c 0,10,11
 240 0 240 0 206 34 c 128,-1,12
 172 68 172 68 172 113 c 0,0,1
EndSplineSet
EndChar

StartChar: semicolon
Encoding: 59 59 31
Width: 567
Flags: W
LayerCount: 2
Fore
SplineSet
203 -369 m 0,0,1
 203 -360 203 -360 207 -356 c 0,2,3
 350 -201 350 -201 350 8 c 2,4,-1
 350 18 l 1,5,6
 320 0 320 0 285 0 c 0,7,8
 238 0 238 0 205 33 c 128,-1,9
 172 66 172 66 172 113 c 0,10,11
 172 161 172 161 205 193 c 128,-1,12
 238 225 238 225 285 225 c 0,13,14
 356 225 356 225 379.5 159.5 c 128,-1,15
 403 94 403 94 403 8 c 0,16,17
 403 -64 403 -64 385.5 -134 c 128,-1,18
 368 -204 368 -204 332.5 -271 c 128,-1,19
 297 -338 297 -338 248 -391 c 0,20,21
 242 -397 242 -397 233 -397 c 0,22,23
 223 -397 223 -397 213 -388 c 128,-1,24
 203 -379 203 -379 203 -369 c 0,0,1
172 770 m 0,25,26
 172 799 172 799 187 825 c 128,-1,27
 202 851 202 851 228.5 867 c 128,-1,28
 255 883 255 883 285 883 c 0,29,30
 314 883 314 883 340.5 867 c 128,-1,31
 367 851 367 851 382 825 c 128,-1,32
 397 799 397 799 397 770 c 0,33,34
 397 724 397 724 364.5 690.5 c 128,-1,35
 332 657 332 657 285 657 c 0,36,37
 239 657 239 657 205.5 690.5 c 128,-1,38
 172 724 172 724 172 770 c 0,25,26
EndSplineSet
EndChar

StartChar: B
Encoding: 66 66 32
Width: 1450
Flags: W
LayerCount: 2
Fore
SplineSet
70 0 m 1,0,-1
 70 72 l 1,1,2
 281 72 281 72 281 137 c 2,3,-1
 281 1262 l 2,4,5
 281 1327 281 1327 70 1327 c 1,6,-1
 70 1399 l 1,7,-1
 823 1399 l 2,8,9
 927 1399 927 1399 1033 1358.5 c 128,-1,10
 1139 1318 1139 1318 1208.5 1238.5 c 128,-1,11
 1278 1159 1278 1159 1278 1051 c 0,12,13
 1278 926 1278 926 1175.5 841.5 c 128,-1,14
 1073 757 1073 757 936 731 c 1,15,16
 1025 731 1025 731 1119 682 c 128,-1,17
 1213 633 1213 633 1273 551 c 128,-1,18
 1333 469 1333 469 1333 377 c 0,19,20
 1333 265 1333 265 1266.5 179 c 128,-1,21
 1200 93 1200 93 1094 46.5 c 128,-1,22
 988 0 988 0 881 0 c 2,23,-1
 70 0 l 1,0,-1
459 137 m 2,24,25
 459 93 459 93 484 82.5 c 128,-1,26
 509 72 509 72 563 72 c 2,27,-1
 823 72 l 2,28,29
 903 72 903 72 971.5 114 c 128,-1,30
 1040 156 1040 156 1080 226.5 c 128,-1,31
 1120 297 1120 297 1120 377 c 0,32,33
 1120 455 1120 455 1087 529.5 c 128,-1,34
 1054 604 1054 604 992.5 652 c 128,-1,35
 931 700 931 700 852 700 c 2,36,-1
 459 700 l 1,37,-1
 459 137 l 2,24,25
459 754 m 1,38,-1
 766 754 l 2,39,40
 828 754 828 754 882.5 776.5 c 128,-1,41
 937 799 937 799 980.5 841.5 c 128,-1,42
 1024 884 1024 884 1047.5 937.5 c 128,-1,43
 1071 991 1071 991 1071 1051 c 0,44,45
 1071 1104 1071 1104 1053.5 1153 c 128,-1,46
 1036 1202 1036 1202 1002 1242 c 128,-1,47
 968 1282 968 1282 922 1304.5 c 128,-1,48
 876 1327 876 1327 823 1327 c 2,49,-1
 563 1327 l 2,50,51
 526 1327 526 1327 505.5 1324 c 128,-1,52
 485 1321 485 1321 472 1306.5 c 128,-1,53
 459 1292 459 1292 459 1262 c 2,54,-1
 459 754 l 1,38,-1
EndSplineSet
EndChar

StartChar: O
Encoding: 79 79 33
Width: 1591
Flags: W
LayerCount: 2
Fore
SplineSet
797 -45 m 0,0,1
 602 -45 602 -45 446.5 58.5 c 128,-1,2
 291 162 291 162 203 333.5 c 128,-1,3
 115 505 115 505 115 694 c 0,4,5
 115 834 115 834 165.5 971 c 128,-1,6
 216 1108 216 1108 306.5 1214 c 128,-1,7
 397 1320 397 1320 524 1382 c 128,-1,8
 651 1444 651 1444 797 1444 c 0,9,10
 942 1444 942 1444 1069.5 1381.5 c 128,-1,11
 1197 1319 1197 1319 1288 1212 c 128,-1,12
 1379 1105 1379 1105 1428 972 c 128,-1,13
 1477 839 1477 839 1477 694 c 0,14,15
 1477 505 1477 505 1389 333.5 c 128,-1,16
 1301 162 1301 162 1145 58.5 c 128,-1,17
 989 -45 989 -45 797 -45 c 0,0,1
457 221 m 1,18,19
 517 127 517 127 605 71.5 c 128,-1,20
 693 16 693 16 797 16 c 0,21,22
 864 16 864 16 928.5 43 c 128,-1,23
 993 70 993 70 1045.5 117 c 128,-1,24
 1098 164 1098 164 1135 221 c 0,25,26
 1257 405 1257 405 1257 727 c 0,27,28
 1257 1022 1257 1022 1135 1194 c 0,29,30
 1075 1280 1075 1280 985.5 1332 c 128,-1,31
 896 1384 896 1384 797 1384 c 0,32,33
 697 1384 697 1384 607 1332 c 128,-1,34
 517 1280 517 1280 457 1194 c 1,35,36
 409 1127 409 1127 382.5 1051.5 c 128,-1,37
 356 976 356 976 345 895 c 128,-1,38
 334 814 334 814 334 727 c 0,39,40
 334 634 334 634 344.5 545.5 c 128,-1,41
 355 457 355 457 383.5 372 c 128,-1,42
 412 287 412 287 457 221 c 1,18,19
EndSplineSet
EndChar

StartChar: quotedbl
Encoding: 34 34 34
Width: 1024
Flags: W
LayerCount: 2
Fore
SplineSet
98 827 m 0,0,1
 98 836 98 836 106 844 c 0,2,3
 182 910 182 910 225 1006 c 128,-1,4
 268 1102 268 1102 268 1204 c 0,5,6
 268 1225 268 1225 266 1235 c 1,7,8
 237 1196 237 1196 180 1196 c 0,9,10
 134 1196 134 1196 101 1229 c 128,-1,11
 68 1262 68 1262 68 1309 c 0,12,13
 68 1357 68 1357 101 1389 c 128,-1,14
 134 1421 134 1421 180 1421 c 0,15,16
 231 1421 231 1421 263 1387 c 128,-1,17
 295 1353 295 1353 308.5 1302 c 128,-1,18
 322 1251 322 1251 322 1204 c 0,19,20
 322 1091 322 1091 273.5 984 c 128,-1,21
 225 877 225 877 141 803 c 1,22,23
 133 799 133 799 129 799 c 0,24,25
 118 799 118 799 108 808 c 128,-1,26
 98 817 98 817 98 827 c 0,0,1
496 827 m 0,27,28
 496 836 496 836 504 844 c 0,29,30
 582 912 582 912 624 1006.5 c 128,-1,31
 666 1101 666 1101 666 1204 c 0,32,33
 666 1225 666 1225 664 1235 c 1,34,35
 634 1196 634 1196 578 1196 c 0,36,37
 531 1196 531 1196 498 1229 c 128,-1,38
 465 1262 465 1262 465 1309 c 0,39,40
 465 1357 465 1357 498 1389 c 128,-1,41
 531 1421 531 1421 578 1421 c 0,42,43
 628 1421 628 1421 660 1387 c 128,-1,44
 692 1353 692 1353 705.5 1302 c 128,-1,45
 719 1251 719 1251 719 1204 c 0,46,47
 719 1091 719 1091 670.5 984.5 c 128,-1,48
 622 878 622 878 539 803 c 1,49,50
 531 799 531 799 526 799 c 0,51,52
 516 799 516 799 506 808 c 128,-1,53
 496 817 496 817 496 827 c 0,27,28
EndSplineSet
EndChar

StartChar: ordmasculine
Encoding: 186 186 35
Width: 1536
Flags: W
LayerCount: 2
Fore
SplineSet
567 1288 m 0,0,1
 567 1338 567 1338 596 1379 c 128,-1,2
 625 1420 625 1420 670.5 1443 c 128,-1,3
 716 1466 716 1466 768 1466 c 0,4,5
 817 1466 817 1466 863 1443 c 128,-1,6
 909 1420 909 1420 938 1379 c 128,-1,7
 967 1338 967 1338 967 1288 c 0,8,9
 967 1211 967 1211 905.5 1159.5 c 128,-1,10
 844 1108 844 1108 768 1108 c 0,11,12
 691 1108 691 1108 629 1159.5 c 128,-1,13
 567 1211 567 1211 567 1288 c 0,0,1
627 1288 m 0,14,15
 627 1161 627 1161 768 1161 c 0,16,17
 907 1161 907 1161 907 1288 c 0,18,19
 907 1413 907 1413 768 1413 c 0,20,21
 627 1413 627 1413 627 1288 c 0,14,15
EndSplineSet
EndChar

StartChar: i
Encoding: 105 105 36
Width: 567
Flags: W
LayerCount: 2
Fore
SplineSet
63 0 m 1,0,-1
 63 72 l 1,1,2
 133 72 133 72 178 83 c 128,-1,3
 223 94 223 94 223 137 c 2,4,-1
 223 696 l 2,5,6
 223 775 223 775 192.5 793 c 128,-1,7
 162 811 162 811 72 811 c 1,8,-1
 72 883 l 1,9,-1
 367 905 l 1,10,-1
 367 137 l 2,11,12
 367 94 367 94 406 83 c 128,-1,13
 445 72 445 72 510 72 c 1,14,-1
 510 0 l 1,15,-1
 63 0 l 1,0,-1
150 1257 m 0,16,17
 150 1302 150 1302 184 1336 c 128,-1,18
 218 1370 218 1370 262 1370 c 0,19,20
 291 1370 291 1370 318 1355 c 128,-1,21
 345 1340 345 1340 360 1313 c 128,-1,22
 375 1286 375 1286 375 1257 c 0,23,24
 375 1213 375 1213 341 1179 c 128,-1,25
 307 1145 307 1145 262 1145 c 0,26,27
 218 1145 218 1145 184 1179 c 128,-1,28
 150 1213 150 1213 150 1257 c 0,16,17
EndSplineSet
EndChar

StartChar: v
Encoding: 118 118 37
Width: 1079
Flags: W
LayerCount: 2
Fore
SplineSet
500 0 m 1,0,-1
 201 752 l 1,1,2
 182 790 182 790 142.5 800.5 c 128,-1,3
 103 811 103 811 39 811 c 1,4,-1
 39 883 l 1,5,-1
 469 883 l 1,6,-1
 469 811 l 1,7,8
 354 811 354 811 354 762 c 0,9,10
 354 754 354 754 356 750 c 2,11,-1
 586 172 l 1,12,-1
 793 694 l 2,13,14
 799 710 799 710 799 727 c 0,15,16
 799 766 799 766 769.5 788.5 c 128,-1,17
 740 811 740 811 700 811 c 1,18,-1
 700 883 l 1,19,-1
 1040 883 l 1,20,-1
 1040 811 l 1,21,22
 977 811 977 811 929.5 782 c 128,-1,23
 882 753 882 753 856 696 c 1,24,-1
 580 0 l 1,25,26
 572 -23 572 -23 547 -23 c 2,27,-1
 532 -23 l 2,28,29
 507 -23 507 -23 500 0 c 1,0,-1
EndSplineSet
EndChar

StartChar: registered
Encoding: 174 174 38
Width: 1194
Flags: W
LayerCount: 2
Fore
SplineSet
53 0 m 1,0,-1
 53 72 l 1,1,2
 123 72 123 72 168 83 c 128,-1,3
 213 94 213 94 213 137 c 2,4,-1
 213 811 l 1,5,-1
 55 811 l 1,6,-1
 55 883 l 1,7,-1
 213 883 l 1,8,-1
 213 1128 l 2,9,10
 213 1205 213 1205 256.5 1265.5 c 128,-1,11
 300 1326 300 1326 367.5 1365 c 128,-1,12
 435 1404 435 1404 514 1424 c 128,-1,13
 593 1444 593 1444 666 1444 c 0,14,15
 730 1444 730 1444 789.5 1423 c 128,-1,16
 849 1402 849 1402 883 1356 c 1,17,18
 980 1444 980 1444 1114 1444 c 0,19,20
 1183 1444 1183 1444 1238.5 1403 c 128,-1,21
 1294 1362 1294 1362 1294 1294 c 0,22,23
 1294 1255 1294 1255 1267.5 1228.5 c 128,-1,24
 1241 1202 1241 1202 1202 1202 c 256,25,26
 1163 1202 1163 1202 1135.5 1228.5 c 128,-1,27
 1108 1255 1108 1255 1108 1294 c 0,28,29
 1108 1358 1108 1358 1163 1380 c 1,30,31
 1130 1391 1130 1391 1104 1391 c 0,32,33
 1044 1391 1044 1391 1001 1349 c 128,-1,34
 958 1307 958 1307 936.5 1245.5 c 128,-1,35
 915 1184 915 1184 915 1124 c 2,36,-1
 915 883 l 1,37,-1
 1153 883 l 1,38,-1
 1153 811 l 1,39,-1
 922 811 l 1,40,-1
 922 137 l 2,41,42
 922 95 922 95 982 83.5 c 128,-1,43
 1042 72 1042 72 1120 72 c 1,44,-1
 1120 0 l 1,45,-1
 618 0 l 1,46,-1
 618 72 l 1,47,48
 688 72 688 72 733 83 c 128,-1,49
 778 94 778 94 778 137 c 2,50,-1
 778 811 l 1,51,-1
 356 811 l 1,52,-1
 356 137 l 2,53,54
 356 94 356 94 401.5 83 c 128,-1,55
 447 72 447 72 516 72 c 1,56,-1
 516 0 l 1,57,-1
 53 0 l 1,0,-1
350 883 m 1,58,-1
 778 883 l 1,59,-1
 778 1128 l 2,60,61
 778 1146 778 1146 782 1180 c 1,62,63
 727 1206 727 1206 727 1266 c 0,64,65
 727 1299 727 1299 746 1323.5 c 128,-1,66
 765 1348 765 1348 797 1356 c 1,67,68
 739 1391 739 1391 649 1391 c 0,69,70
 574 1391 574 1391 504.5 1356.5 c 128,-1,71
 435 1322 435 1322 392.5 1260.5 c 128,-1,72
 350 1199 350 1199 350 1124 c 2,73,-1
 350 883 l 1,58,-1
EndSplineSet
EndChar

StartChar: numbersign
Encoding: 35 35 39
Width: 1706
Flags: W
LayerCount: 2
Fore
SplineSet
342 -356 m 0,0,1
 342 -352 342 -352 344 -348 c 2,2,-1
 510 272 l 1,3,-1
 154 272 l 2,4,5
 137 272 137 272 126 285 c 128,-1,6
 115 298 115 298 115 313 c 0,7,8
 115 330 115 330 126 342 c 128,-1,9
 137 354 137 354 154 354 c 2,10,-1
 535 354 l 1,11,-1
 616 670 l 1,12,-1
 154 670 l 2,13,14
 137 670 137 670 126 682 c 128,-1,15
 115 694 115 694 115 711 c 0,16,17
 115 726 115 726 126 739 c 128,-1,18
 137 752 137 752 154 752 c 2,19,-1
 641 752 l 1,20,-1
 813 1391 l 2,21,22
 816 1404 816 1404 826.5 1412.5 c 128,-1,23
 837 1421 837 1421 852 1421 c 0,24,25
 869 1421 869 1421 881 1409 c 128,-1,26
 893 1397 893 1397 893 1380 c 2,27,-1
 893 1372 l 1,28,-1
 725 752 l 1,29,-1
 1110 752 l 1,30,-1
 1282 1391 l 2,31,32
 1285 1404 1285 1404 1295.5 1412.5 c 128,-1,33
 1306 1421 1306 1421 1321 1421 c 0,34,35
 1338 1421 1338 1421 1350 1409 c 128,-1,36
 1362 1397 1362 1397 1362 1380 c 2,37,-1
 1362 1372 l 1,38,-1
 1194 752 l 1,39,-1
 1552 752 l 2,40,41
 1568 752 1568 752 1578.5 739 c 128,-1,42
 1589 726 1589 726 1589 711 c 0,43,44
 1589 694 1589 694 1578.5 682 c 128,-1,45
 1568 670 1568 670 1552 670 c 2,46,-1
 1169 670 l 1,47,-1
 1087 354 l 1,48,-1
 1552 354 l 2,49,50
 1568 354 1568 354 1578.5 342 c 128,-1,51
 1589 330 1589 330 1589 313 c 0,52,53
 1589 298 1589 298 1578.5 285 c 128,-1,54
 1568 272 1568 272 1552 272 c 2,55,-1
 1063 272 l 1,56,-1
 893 -367 l 1,57,58
 882 -397 882 -397 852 -397 c 0,59,60
 835 -397 835 -397 823 -385 c 128,-1,61
 811 -373 811 -373 811 -356 c 0,62,63
 811 -352 811 -352 813 -348 c 2,64,-1
 979 272 l 1,65,-1
 594 272 l 1,66,-1
 424 -367 l 1,67,68
 413 -397 413 -397 383 -397 c 0,69,70
 366 -397 366 -397 354 -385 c 128,-1,71
 342 -373 342 -373 342 -356 c 0,0,1
618 354 m 1,72,-1
 1004 354 l 1,73,-1
 1085 670 l 1,74,-1
 700 670 l 1,75,-1
 618 354 l 1,72,-1
EndSplineSet
EndChar

StartChar: zero
Encoding: 48 48 40
Width: 1024
Flags: W
LayerCount: 2
Fore
SplineSet
512 -45 m 0,0,1
 261 -45 261 -45 170.5 161.5 c 128,-1,2
 80 368 80 368 80 653 c 0,3,4
 80 831 80 831 112.5 988 c 128,-1,5
 145 1145 145 1145 241.5 1254.5 c 128,-1,6
 338 1364 338 1364 512 1364 c 0,7,8
 647 1364 647 1364 733 1298 c 128,-1,9
 819 1232 819 1232 864 1127.5 c 128,-1,10
 909 1023 909 1023 925.5 903.5 c 128,-1,11
 942 784 942 784 942 653 c 0,12,13
 942 477 942 477 909.5 323.5 c 128,-1,14
 877 170 877 170 782 62.5 c 128,-1,15
 687 -45 687 -45 512 -45 c 0,0,1
512 8 m 0,16,17
 626 8 626 8 682 125 c 128,-1,18
 738 242 738 242 751 384 c 128,-1,19
 764 526 764 526 764 686 c 0,20,21
 764 840 764 840 751 970 c 128,-1,22
 738 1100 738 1100 682.5 1205.5 c 128,-1,23
 627 1311 627 1311 512 1311 c 0,24,25
 396 1311 396 1311 340 1205 c 128,-1,26
 284 1099 284 1099 271 969.5 c 128,-1,27
 258 840 258 840 258 686 c 0,28,29
 258 572 258 572 263.5 471 c 128,-1,30
 269 370 269 370 293 262.5 c 128,-1,31
 317 155 317 155 370.5 81.5 c 128,-1,32
 424 8 424 8 512 8 c 0,16,17
EndSplineSet
EndChar

StartChar: equal
Encoding: 61 61 41
Width: 1591
Flags: W
LayerCount: 2
Fore
SplineSet
154 272 m 2,0,1
 137 272 137 272 126 285 c 128,-1,2
 115 298 115 298 115 313 c 0,3,4
 115 330 115 330 126 342 c 128,-1,5
 137 354 137 354 154 354 c 2,6,-1
 1440 354 l 2,7,8
 1455 354 1455 354 1466 342 c 128,-1,9
 1477 330 1477 330 1477 313 c 0,10,11
 1477 298 1477 298 1466 285 c 128,-1,12
 1455 272 1455 272 1440 272 c 2,13,-1
 154 272 l 2,0,1
154 670 m 2,14,15
 137 670 137 670 126 682 c 128,-1,16
 115 694 115 694 115 711 c 0,17,18
 115 726 115 726 126 739 c 128,-1,19
 137 752 137 752 154 752 c 2,20,-1
 1440 752 l 2,21,22
 1455 752 1455 752 1466 739 c 128,-1,23
 1477 726 1477 726 1477 711 c 0,24,25
 1477 694 1477 694 1466 682 c 128,-1,26
 1455 670 1455 670 1440 670 c 2,27,-1
 154 670 l 2,14,15
EndSplineSet
EndChar

StartChar: D
Encoding: 68 68 42
Width: 1563
Flags: W
LayerCount: 2
Fore
SplineSet
68 0 m 1,0,-1
 68 72 l 1,1,2
 279 72 279 72 279 137 c 2,3,-1
 279 1262 l 2,4,5
 279 1327 279 1327 68 1327 c 1,6,-1
 68 1399 l 1,7,-1
 823 1399 l 2,8,9
 963 1399 963 1399 1079 1338.5 c 128,-1,10
 1195 1278 1195 1278 1277 1177 c 128,-1,11
 1359 1076 1359 1076 1403.5 948 c 128,-1,12
 1448 820 1448 820 1448 686 c 0,13,14
 1448 556 1448 556 1403 433.5 c 128,-1,15
 1358 311 1358 311 1273.5 212.5 c 128,-1,16
 1189 114 1189 114 1073.5 57 c 128,-1,17
 958 0 958 0 823 0 c 2,18,-1
 68 0 l 1,0,-1
463 137 m 2,19,20
 463 93 463 93 488 82.5 c 128,-1,21
 513 72 513 72 567 72 c 2,22,-1
 770 72 l 2,23,24
 875 72 875 72 969.5 117.5 c 128,-1,25
 1064 163 1064 163 1126 244 c 0,26,27
 1191 330 1191 330 1213 436.5 c 128,-1,28
 1235 543 1235 543 1235 686 c 0,29,30
 1235 835 1235 835 1213 947 c 128,-1,31
 1191 1059 1191 1059 1126 1147 c 1,32,33
 1065 1234 1065 1234 971 1280.5 c 128,-1,34
 877 1327 877 1327 770 1327 c 2,35,-1
 567 1327 l 2,36,37
 530 1327 530 1327 509.5 1324 c 128,-1,38
 489 1321 489 1321 476 1306.5 c 128,-1,39
 463 1292 463 1292 463 1262 c 2,40,-1
 463 137 l 2,19,20
EndSplineSet
EndChar

StartChar: Q
Encoding: 81 81 43
Width: 1591
Flags: W
LayerCount: 2
Fore
SplineSet
797 -45 m 0,0,1
 602 -45 602 -45 446.5 58.5 c 128,-1,2
 291 162 291 162 203 333.5 c 128,-1,3
 115 505 115 505 115 694 c 0,4,5
 115 834 115 834 165.5 971 c 128,-1,6
 216 1108 216 1108 306.5 1214 c 128,-1,7
 397 1320 397 1320 524 1382 c 128,-1,8
 651 1444 651 1444 797 1444 c 0,9,10
 942 1444 942 1444 1069.5 1381.5 c 128,-1,11
 1197 1319 1197 1319 1288 1212 c 128,-1,12
 1379 1105 1379 1105 1428 972 c 128,-1,13
 1477 839 1477 839 1477 694 c 0,14,15
 1477 553 1477 553 1427.5 419 c 128,-1,16
 1378 285 1378 285 1283.5 179 c 128,-1,17
 1189 73 1189 73 1063 14 c 1,18,19
 1102 -77 1102 -77 1143 -127.5 c 128,-1,20
 1184 -178 1184 -178 1257 -178 c 0,21,22
 1334 -178 1334 -178 1389 -125 c 128,-1,23
 1444 -72 1444 -72 1444 4 c 0,24,25
 1444 11 1444 11 1451.5 17 c 128,-1,26
 1459 23 1459 23 1466 23 c 0,27,28
 1489 23 1489 23 1489 -4 c 0,29,30
 1489 -151 1489 -151 1431.5 -274 c 128,-1,31
 1374 -397 1374 -397 1243 -397 c 0,32,33
 1171 -397 1171 -397 1124 -361.5 c 128,-1,34
 1077 -326 1077 -326 1052.5 -271.5 c 128,-1,35
 1028 -217 1028 -217 1014 -145 c 128,-1,36
 1000 -73 1000 -73 989 -14 c 1,37,38
 899 -45 899 -45 797 -45 c 0,0,1
797 14 m 0,39,40
 889 14 889 14 975 61 c 1,41,42
 956 149 956 149 916.5 201.5 c 128,-1,43
 877 254 877 254 797 254 c 0,44,45
 748 254 748 254 714 217.5 c 128,-1,46
 680 181 680 181 680 133 c 0,47,48
 680 81 680 81 712.5 47.5 c 128,-1,49
 745 14 745 14 797 14 c 0,39,40
627 133 m 0,50,51
 627 178 627 178 649 218 c 128,-1,52
 671 258 671 258 710.5 282.5 c 128,-1,53
 750 307 750 307 797 307 c 0,54,55
 886 307 886 307 938 249.5 c 128,-1,56
 990 192 990 192 1030 94 c 1,57,58
 1098 145 1098 145 1144 214.5 c 128,-1,59
 1190 284 1190 284 1215.5 360.5 c 128,-1,60
 1241 437 1241 437 1252.5 522.5 c 128,-1,61
 1264 608 1264 608 1264 694 c 0,62,63
 1264 836 1264 836 1235.5 961 c 128,-1,64
 1207 1086 1207 1086 1139 1186 c 1,65,66
 1080 1275 1080 1275 989 1329.5 c 128,-1,67
 898 1384 898 1384 797 1384 c 0,68,69
 694 1384 694 1384 603.5 1330.5 c 128,-1,70
 513 1277 513 1277 453 1186 c 1,71,72
 383 1084 383 1084 355.5 959 c 128,-1,73
 328 834 328 834 328 694 c 0,74,75
 328 476 328 476 402 297.5 c 128,-1,76
 476 119 476 119 649 45 c 1,77,78
 627 87 627 87 627 133 c 0,50,51
EndSplineSet
EndChar

StartChar: k
Encoding: 107 107 44
Width: 1079
Flags: W
LayerCount: 2
Fore
SplineSet
53 0 m 1,0,-1
 53 72 l 1,1,2
 123 72 123 72 168 83 c 128,-1,3
 213 94 213 94 213 137 c 2,4,-1
 213 1212 l 2,5,6
 213 1267 213 1267 196.5 1291.5 c 128,-1,7
 180 1316 180 1316 149 1321.5 c 128,-1,8
 118 1327 118 1327 53 1327 c 1,9,-1
 53 1399 l 1,10,-1
 356 1421 l 1,11,-1
 356 449 l 1,12,-1
 631 690 l 1,13,14
 672 729 672 729 672 762 c 0,15,16
 672 786 672 786 655 798.5 c 128,-1,17
 638 811 638 811 614 811 c 1,18,-1
 614 883 l 1,19,-1
 999 883 l 1,20,-1
 999 811 l 1,21,22
 860 811 860 811 721 690 c 2,23,-1
 575 563 l 1,24,-1
 836 193 l 2,25,26
 890 116 890 116 926.5 94 c 128,-1,27
 963 72 963 72 1047 72 c 1,28,-1
 1047 0 l 1,29,-1
 639 0 l 1,30,-1
 639 72 l 1,31,32
 709 72 709 72 709 115 c 0,33,34
 709 146 709 146 672 193 c 1,35,-1
 475 473 l 1,36,-1
 350 365 l 1,37,-1
 350 137 l 2,38,39
 350 94 350 94 395.5 83 c 128,-1,40
 441 72 441 72 510 72 c 1,41,-1
 510 0 l 1,42,-1
 53 0 l 1,0,-1
EndSplineSet
EndChar

StartChar: x
Encoding: 120 120 45
Width: 1079
Flags: W
LayerCount: 2
Fore
SplineSet
25 0 m 1,0,-1
 25 72 l 1,1,2
 103 72 103 72 172 102.5 c 128,-1,3
 241 133 241 133 289 193 c 2,4,-1
 475 430 l 1,5,-1
 233 745 l 1,6,7
 197 790 197 790 154.5 800.5 c 128,-1,8
 112 811 112 811 35 811 c 1,9,-1
 35 883 l 1,10,-1
 461 883 l 1,11,-1
 461 811 l 1,12,13
 434 811 434 811 410.5 799 c 128,-1,14
 387 787 387 787 387 764 c 0,15,16
 387 756 387 756 393 745 c 1,17,-1
 557 532 l 1,18,-1
 680 690 l 1,19,20
 705 720 705 720 705 750 c 0,21,22
 705 775 705 775 688.5 793 c 128,-1,23
 672 811 672 811 645 811 c 1,24,-1
 645 883 l 1,25,-1
 1022 883 l 1,26,-1
 1022 811 l 1,27,28
 943 811 943 811 873.5 780.5 c 128,-1,29
 804 750 804 750 756 690 c 2,30,-1
 594 483 l 1,31,-1
 856 137 l 1,32,33
 895 92 895 92 937 82 c 128,-1,34
 979 72 979 72 1057 72 c 1,35,-1
 1057 0 l 1,36,-1
 631 0 l 1,37,-1
 631 72 l 1,38,39
 656 72 656 72 679 84 c 128,-1,40
 702 96 702 96 702 119 c 0,41,42
 702 128 702 128 696 137 c 2,43,-1
 512 381 l 1,44,-1
 365 193 l 1,45,46
 342 167 342 167 342 133 c 0,47,48
 342 108 342 108 359 90 c 128,-1,49
 376 72 376 72 399 72 c 1,50,-1
 399 0 l 1,51,-1
 25 0 l 1,0,-1
EndSplineSet
EndChar

StartChar: braceright
Encoding: 125 125 46
Width: 1024
Flags: W
LayerCount: 2
Fore
SplineSet
258 1075 m 1,0,-1
 369 1382 l 2,1,2
 387 1434 387 1434 436 1434 c 0,3,4
 455 1434 455 1434 475 1424 c 128,-1,5
 495 1414 495 1414 506.5 1395 c 128,-1,6
 518 1376 518 1376 518 1358 c 0,7,8
 518 1337 518 1337 502 1311 c 1,9,-1
 311 1049 l 1,10,-1
 258 1075 l 1,0,-1
600 1075 m 1,11,-1
 711 1382 l 2,12,13
 729 1434 729 1434 778 1434 c 0,14,15
 797 1434 797 1434 817 1424 c 128,-1,16
 837 1414 837 1414 848.5 1395 c 128,-1,17
 860 1376 860 1376 860 1358 c 0,18,19
 860 1337 860 1337 844 1311 c 1,20,-1
 653 1049 l 1,21,-1
 600 1075 l 1,11,-1
EndSplineSet
EndChar

StartChar: uni00B2
Encoding: 178 178 47
Width: 1706
Flags: W
LayerCount: 2
Fore
SplineSet
53 0 m 1,0,-1
 53 72 l 1,1,2
 123 72 123 72 168 83 c 128,-1,3
 213 94 213 94 213 137 c 2,4,-1
 213 811 l 1,5,-1
 55 811 l 1,6,-1
 55 883 l 1,7,-1
 213 883 l 1,8,-1
 213 1128 l 2,9,10
 213 1205 213 1205 256.5 1265.5 c 128,-1,11
 300 1326 300 1326 367.5 1365 c 128,-1,12
 435 1404 435 1404 514 1424 c 128,-1,13
 593 1444 593 1444 666 1444 c 0,14,15
 736 1444 736 1444 802.5 1418 c 128,-1,16
 869 1392 869 1392 897 1339 c 1,17,18
 1030 1444 1030 1444 1233 1444 c 0,19,20
 1338 1444 1338 1444 1409 1409 c 1,21,-1
 1491 1421 l 1,22,-1
 1491 137 l 2,23,24
 1491 94 1491 94 1536 83 c 128,-1,25
 1581 72 1581 72 1651 72 c 1,26,-1
 1651 0 l 1,27,-1
 1188 0 l 1,28,-1
 1188 72 l 1,29,30
 1258 72 1258 72 1303 83 c 128,-1,31
 1348 94 1348 94 1348 137 c 2,32,-1
 1348 811 l 1,33,-1
 924 811 l 1,34,-1
 924 137 l 2,35,36
 924 94 924 94 969 83 c 128,-1,37
 1014 72 1014 72 1083 72 c 1,38,-1
 1083 0 l 1,39,-1
 621 0 l 1,40,-1
 621 72 l 1,41,42
 690 72 690 72 735 83 c 128,-1,43
 780 94 780 94 780 137 c 2,44,-1
 780 811 l 1,45,-1
 356 811 l 1,46,-1
 356 137 l 2,47,48
 356 94 356 94 401.5 83 c 128,-1,49
 447 72 447 72 516 72 c 1,50,-1
 516 0 l 1,51,-1
 53 0 l 1,0,-1
350 883 m 1,52,-1
 780 883 l 1,53,-1
 780 1128 l 2,54,55
 780 1154 780 1154 786 1180 c 1,56,57
 729 1202 729 1202 729 1266 c 0,58,59
 729 1300 729 1300 747.5 1324 c 128,-1,60
 766 1348 766 1348 797 1356 c 1,61,62
 739 1391 739 1391 649 1391 c 0,63,64
 574 1391 574 1391 504.5 1356.5 c 128,-1,65
 435 1322 435 1322 392.5 1260.5 c 128,-1,66
 350 1199 350 1199 350 1124 c 2,67,-1
 350 883 l 1,52,-1
918 883 m 1,68,-1
 1348 883 l 1,69,-1
 1348 1210 l 1,70,71
 1296 1237 1296 1237 1296 1294 c 256,72,73
 1296 1351 1296 1351 1343 1376 c 1,74,75
 1297 1391 1297 1391 1219 1391 c 0,76,77
 1102 1391 1102 1391 1010 1314.5 c 128,-1,78
 918 1238 918 1238 918 1124 c 2,79,-1
 918 883 l 1,68,-1
EndSplineSet
EndChar

StartChar: percent
Encoding: 37 37 48
Width: 1706
Flags: W
LayerCount: 2
Fore
SplineSet
285 -74 m 0,0,1
 285 -62 285 -62 291 -53 c 2,2,-1
 1219 1329 l 1,3,4
 1096 1260 1096 1260 948 1260 c 0,5,6
 788 1260 788 1260 641 1343 c 1,7,8
 682 1245 682 1245 682 1124 c 0,9,10
 682 1058 682 1058 666.5 987.5 c 128,-1,11
 651 917 651 917 619 854.5 c 128,-1,12
 587 792 587 792 536.5 751.5 c 128,-1,13
 486 711 486 711 418 711 c 0,14,15
 322 711 322 711 253 775 c 128,-1,16
 184 839 184 839 149.5 935 c 128,-1,17
 115 1031 115 1031 115 1124 c 0,18,19
 115 1215 115 1215 149.5 1311.5 c 128,-1,20
 184 1408 184 1408 253 1472 c 128,-1,21
 322 1536 322 1536 418 1536 c 0,22,23
 494 1536 494 1536 557 1475 c 0,24,25
 722 1313 722 1313 948 1313 c 0,26,27
 1069 1313 1069 1313 1174 1366.5 c 128,-1,28
 1279 1420 1279 1420 1346 1520 c 0,29,30
 1356 1536 1356 1536 1378 1536 c 0,31,32
 1396 1536 1396 1536 1407.5 1525 c 128,-1,33
 1419 1514 1419 1514 1419 1495 c 0,34,35
 1419 1484 1419 1484 1413 1475 c 2,36,-1
 356 -102 l 2,37,38
 347 -115 347 -115 326 -115 c 0,39,40
 309 -115 309 -115 297 -102 c 128,-1,41
 285 -89 285 -89 285 -74 c 0,0,1
418 764 m 0,42,43
 519 764 519 764 571 884.5 c 128,-1,44
 623 1005 623 1005 623 1124 c 0,45,46
 623 1191 623 1191 601.5 1276.5 c 128,-1,47
 580 1362 580 1362 534 1422.5 c 128,-1,48
 488 1483 488 1483 418 1483 c 0,49,50
 316 1483 316 1483 283 1369.5 c 128,-1,51
 250 1256 250 1256 250 1122 c 0,52,53
 250 993 250 993 284 878.5 c 128,-1,54
 318 764 318 764 418 764 c 0,42,43
1325 -115 m 0,55,56
 1229 -115 1229 -115 1160 -51 c 128,-1,57
 1091 13 1091 13 1056.5 109.5 c 128,-1,58
 1022 206 1022 206 1022 299 c 0,59,60
 1022 390 1022 390 1056.5 486.5 c 128,-1,61
 1091 583 1091 583 1160 647 c 128,-1,62
 1229 711 1229 711 1325 711 c 0,63,64
 1414 711 1414 711 1474 643.5 c 128,-1,65
 1534 576 1534 576 1561.5 481 c 128,-1,66
 1589 386 1589 386 1589 299 c 0,67,68
 1589 233 1589 233 1573.5 163 c 128,-1,69
 1558 93 1558 93 1526.5 29.5 c 128,-1,70
 1495 -34 1495 -34 1444.5 -74.5 c 128,-1,71
 1394 -115 1394 -115 1325 -115 c 0,55,56
1325 -61 m 0,72,73
 1394 -61 1394 -61 1441 0.5 c 128,-1,74
 1488 62 1488 62 1509 147 c 128,-1,75
 1530 232 1530 232 1530 299 c 0,76,77
 1530 417 1530 417 1478 537 c 128,-1,78
 1426 657 1426 657 1325 657 c 0,79,80
 1223 657 1223 657 1190 543.5 c 128,-1,81
 1157 430 1157 430 1157 297 c 0,82,83
 1157 167 1157 167 1191 53 c 128,-1,84
 1225 -61 1225 -61 1325 -61 c 0,72,73
EndSplineSet
EndChar

StartChar: two
Encoding: 50 50 49
Width: 1024
Flags: W
LayerCount: 2
Fore
SplineSet
102 0 m 1,0,-1
 102 55 l 2,1,2
 102 60 102 60 106 66 c 1,3,-1
 424 418 l 1,4,5
 496 496 496 496 541 549 c 128,-1,6
 586 602 586 602 630 671 c 128,-1,7
 674 740 674 740 699.5 811.5 c 128,-1,8
 725 883 725 883 725 963 c 0,9,10
 725 1047 725 1047 694 1123.5 c 128,-1,11
 663 1200 663 1200 601.5 1246 c 128,-1,12
 540 1292 540 1292 453 1292 c 0,13,14
 364 1292 364 1292 293 1238.5 c 128,-1,15
 222 1185 222 1185 193 1100 c 1,16,17
 201 1102 201 1102 215 1102 c 0,18,19
 261 1102 261 1102 293.5 1071 c 128,-1,20
 326 1040 326 1040 326 991 c 0,21,22
 326 944 326 944 293.5 911.5 c 128,-1,23
 261 879 261 879 215 879 c 0,24,25
 167 879 167 879 134.5 912.5 c 128,-1,26
 102 946 102 946 102 991 c 0,27,28
 102 1068 102 1068 131 1135.5 c 128,-1,29
 160 1203 160 1203 214.5 1255.5 c 128,-1,30
 269 1308 269 1308 337.5 1336 c 128,-1,31
 406 1364 406 1364 483 1364 c 0,32,33
 600 1364 600 1364 701 1314.5 c 128,-1,34
 802 1265 802 1265 861 1174.5 c 128,-1,35
 920 1084 920 1084 920 963 c 0,36,37
 920 874 920 874 881 794 c 128,-1,38
 842 714 842 714 781 648.5 c 128,-1,39
 720 583 720 583 625 500 c 128,-1,40
 530 417 530 417 500 389 c 2,41,-1
 268 166 l 1,42,-1
 465 166 l 2,43,44
 610 166 610 166 707.5 168.5 c 128,-1,45
 805 171 805 171 811 176 c 1,46,47
 835 202 835 202 860 365 c 1,48,-1
 920 365 l 1,49,-1
 862 0 l 1,50,-1
 102 0 l 1,0,-1
EndSplineSet
EndChar

StartChar: question
Encoding: 63 63 50
Width: 967
Flags: W
LayerCount: 2
Fore
SplineSet
342 113 m 0,0,1
 342 159 342 159 376 192 c 128,-1,2
 410 225 410 225 455 225 c 0,3,4
 483 225 483 225 510 210 c 128,-1,5
 537 195 537 195 552 168 c 128,-1,6
 567 141 567 141 567 113 c 0,7,8
 567 68 567 68 534 34 c 128,-1,9
 501 0 501 0 455 0 c 0,10,11
 410 0 410 0 376 34 c 128,-1,12
 342 68 342 68 342 113 c 0,0,1
426 408 m 2,13,-1
 426 512 l 2,14,15
 426 646 426 646 475 775 c 128,-1,16
 524 904 524 904 614 997 c 0,17,18
 644 1029 644 1029 658 1073.5 c 128,-1,19
 672 1118 672 1118 672 1167 c 0,20,21
 672 1251 672 1251 653 1299 c 128,-1,22
 634 1347 634 1347 587 1369 c 128,-1,23
 540 1391 540 1391 455 1391 c 0,24,25
 376 1391 376 1391 307.5 1359 c 128,-1,26
 239 1327 239 1327 201 1264 c 1,27,-1
 213 1264 l 2,28,29
 254 1264 254 1264 282.5 1235.5 c 128,-1,30
 311 1207 311 1207 311 1165 c 0,31,32
 311 1125 311 1125 282 1096 c 128,-1,33
 253 1067 253 1067 213 1067 c 256,34,35
 173 1067 173 1067 144 1096 c 128,-1,36
 115 1125 115 1125 115 1165 c 0,37,38
 115 1249 115 1249 164.5 1312.5 c 128,-1,39
 214 1376 214 1376 293 1410 c 128,-1,40
 372 1444 372 1444 455 1444 c 0,41,42
 552 1444 552 1444 642.5 1418.5 c 128,-1,43
 733 1393 733 1393 791.5 1330 c 128,-1,44
 850 1267 850 1267 850 1165 c 0,45,46
 850 1105 850 1105 822 1049.5 c 128,-1,47
 794 994 794 994 743 958 c 0,48,49
 626 876 626 876 555.5 758 c 128,-1,50
 485 640 485 640 485 508 c 2,51,-1
 485 408 l 2,52,53
 485 401 485 401 479 395 c 128,-1,54
 473 389 473 389 467 389 c 2,55,-1
 442 389 l 2,56,57
 437 389 437 389 431.5 395.5 c 128,-1,58
 426 402 426 402 426 408 c 2,13,-1
EndSplineSet
EndChar

StartChar: F
Encoding: 70 70 51
Width: 1335
Flags: W
LayerCount: 2
Fore
SplineSet
63 0 m 1,0,-1
 63 72 l 1,1,2
 274 72 274 72 274 137 c 2,3,-1
 274 1262 l 2,4,5
 274 1327 274 1327 63 1327 c 1,6,-1
 63 1399 l 1,7,-1
 1192 1399 l 1,8,-1
 1249 930 l 1,9,-1
 1190 930 l 1,10,11
 1176 1059 1176 1059 1152.5 1133.5 c 128,-1,12
 1129 1208 1129 1208 1084 1250.5 c 128,-1,13
 1039 1293 1039 1293 963.5 1310 c 128,-1,14
 888 1327 888 1327 756 1327 c 2,15,-1
 569 1327 l 2,16,17
 532 1327 532 1327 511.5 1324 c 128,-1,18
 491 1321 491 1321 478 1306.5 c 128,-1,19
 465 1292 465 1292 465 1262 c 2,20,-1
 465 735 l 1,21,-1
 610 735 l 2,22,23
 715 735 715 735 764 753.5 c 128,-1,24
 813 772 813 772 831.5 821 c 128,-1,25
 850 870 850 870 850 975 c 1,26,-1
 909 975 l 1,27,-1
 909 424 l 1,28,-1
 850 424 l 1,29,30
 850 529 850 529 831.5 578 c 128,-1,31
 813 627 813 627 764 645.5 c 128,-1,32
 715 664 715 664 610 664 c 2,33,-1
 465 664 l 1,34,-1
 465 137 l 2,35,36
 465 72 465 72 727 72 c 1,37,-1
 727 0 l 1,38,-1
 63 0 l 1,0,-1
EndSplineSet
EndChar

StartChar: degree
Encoding: 176 176 52
Width: 1137
Flags: W
LayerCount: 2
Fore
SplineSet
53 0 m 1,0,-1
 53 72 l 1,1,2
 123 72 123 72 168 83 c 128,-1,3
 213 94 213 94 213 137 c 2,4,-1
 213 811 l 1,5,-1
 55 811 l 1,6,-1
 55 883 l 1,7,-1
 213 883 l 1,8,-1
 213 1128 l 2,9,10
 213 1205 213 1205 256.5 1265.5 c 128,-1,11
 300 1326 300 1326 367.5 1365 c 128,-1,12
 435 1404 435 1404 514 1424 c 128,-1,13
 593 1444 593 1444 666 1444 c 0,14,15
 769 1444 769 1444 842 1409 c 1,16,-1
 924 1421 l 1,17,-1
 924 137 l 2,18,19
 924 94 924 94 969 83 c 128,-1,20
 1014 72 1014 72 1083 72 c 1,21,-1
 1083 0 l 1,22,-1
 621 0 l 1,23,-1
 621 72 l 1,24,25
 690 72 690 72 735 83 c 128,-1,26
 780 94 780 94 780 137 c 2,27,-1
 780 811 l 1,28,-1
 356 811 l 1,29,-1
 356 137 l 2,30,31
 356 94 356 94 401.5 83 c 128,-1,32
 447 72 447 72 516 72 c 1,33,-1
 516 0 l 1,34,-1
 53 0 l 1,0,-1
350 883 m 1,35,-1
 780 883 l 1,36,-1
 780 1210 l 1,37,38
 729 1237 729 1237 729 1294 c 0,39,40
 729 1352 729 1352 776 1376 c 1,41,42
 729 1391 729 1391 651 1391 c 0,43,44
 598 1391 598 1391 541.5 1371 c 128,-1,45
 485 1351 485 1351 443.5 1316 c 128,-1,46
 402 1281 402 1281 376 1230 c 128,-1,47
 350 1179 350 1179 350 1124 c 2,48,-1
 350 883 l 1,35,-1
EndSplineSet
EndChar

StartChar: greater
Encoding: 62 62 53
Width: 967
Flags: W
LayerCount: 2
Fore
SplineSet
115 -141 m 0,0,1
 115 -82 115 -82 138 -26.5 c 128,-1,2
 161 29 161 29 207 66 c 0,3,4
 276 122 276 122 324.5 193 c 128,-1,5
 373 264 373 264 399.5 346 c 128,-1,6
 426 428 426 428 426 516 c 2,7,-1
 426 616 l 2,8,9
 426 622 426 622 430.5 628.5 c 128,-1,10
 435 635 435 635 442 635 c 2,11,-1
 467 635 l 2,12,13
 474 635 474 635 479.5 629 c 128,-1,14
 485 623 485 623 485 616 c 2,15,-1
 485 512 l 2,16,17
 485 382 485 382 447.5 255 c 128,-1,18
 410 128 410 128 336 27 c 0,19,20
 293 -31 293 -31 293 -143 c 0,21,22
 293 -218 293 -218 302 -264.5 c 128,-1,23
 311 -311 311 -311 346.5 -339 c 128,-1,24
 382 -367 382 -367 455 -367 c 0,25,26
 547 -367 547 -367 631.5 -337 c 128,-1,27
 716 -307 716 -307 762 -240 c 1,28,-1
 752 -240 l 2,29,30
 711 -240 711 -240 682 -211 c 128,-1,31
 653 -182 653 -182 653 -141 c 0,32,33
 653 -101 653 -101 682 -72 c 128,-1,34
 711 -43 711 -43 752 -43 c 0,35,36
 792 -43 792 -43 821 -72 c 128,-1,37
 850 -101 850 -101 850 -141 c 0,38,39
 850 -235 850 -235 789 -298.5 c 128,-1,40
 728 -362 728 -362 636 -391 c 128,-1,41
 544 -420 544 -420 455 -420 c 0,42,43
 310 -420 310 -420 212.5 -351 c 128,-1,44
 115 -282 115 -282 115 -141 c 0,0,1
342 911 m 0,45,46
 342 956 342 956 376 990 c 128,-1,47
 410 1024 410 1024 455 1024 c 0,48,49
 483 1024 483 1024 510 1009 c 128,-1,50
 537 994 537 994 552 967 c 128,-1,51
 567 940 567 940 567 911 c 0,52,53
 567 867 567 867 534 833 c 128,-1,54
 501 799 501 799 455 799 c 0,55,56
 410 799 410 799 376 833 c 128,-1,57
 342 867 342 867 342 911 c 0,45,46
EndSplineSet
EndChar

StartChar: uni2219
Encoding: 8729 8729 54
Width: 1024
Flags: W
LayerCount: 2
Fore
SplineSet
240 1262 m 1,0,-1
 272 1311 l 1,1,-1
 512 1171 l 1,2,-1
 750 1311 l 1,3,-1
 782 1262 l 1,4,-1
 512 1055 l 1,5,-1
 240 1262 l 1,0,-1
EndSplineSet
EndChar

StartChar: S
Encoding: 83 83 55
Width: 1137
Flags: W
LayerCount: 2
Fore
SplineSet
115 -29 m 2,0,-1
 115 449 l 2,1,2
 115 465 115 465 133 465 c 2,3,-1
 158 465 l 2,4,5
 164 465 164 465 169 460 c 128,-1,6
 174 455 174 455 174 449 c 0,7,8
 174 248 174 248 298.5 137.5 c 128,-1,9
 423 27 423 27 625 27 c 0,10,11
 696 27 696 27 756 68 c 128,-1,12
 816 109 816 109 849.5 175.5 c 128,-1,13
 883 242 883 242 883 313 c 0,14,15
 883 375 883 375 858 433.5 c 128,-1,16
 833 492 833 492 786 535 c 128,-1,17
 739 578 739 578 680 592 c 2,18,-1
 414 657 l 1,19,20
 282 692 282 692 198.5 800.5 c 128,-1,21
 115 909 115 909 115 1044 c 0,22,23
 115 1150 115 1150 169 1243 c 128,-1,24
 223 1336 223 1336 314.5 1390 c 128,-1,25
 406 1444 406 1444 512 1444 c 0,26,27
 717 1444 717 1444 838 1305 c 1,28,-1
 922 1438 l 1,29,30
 928 1444 928 1444 936 1444 c 2,31,-1
 950 1444 l 2,32,33
 956 1444 956 1444 961.5 1439.5 c 128,-1,34
 967 1435 967 1435 967 1427 c 2,35,-1
 967 952 l 2,36,37
 967 934 967 934 950 934 c 2,38,-1
 926 934 l 2,39,40
 907 934 907 934 907 952 c 0,41,42
 907 1004 907 1004 889.5 1066 c 128,-1,43
 872 1128 872 1128 841 1185 c 128,-1,44
 810 1242 810 1242 774 1278 c 0,45,46
 675 1378 675 1378 512 1378 c 0,47,48
 442 1378 442 1378 383 1342.5 c 128,-1,49
 324 1307 324 1307 289 1246 c 128,-1,50
 254 1185 254 1185 254 1118 c 0,51,52
 254 1030 254 1030 308.5 958.5 c 128,-1,53
 363 887 363 887 451 864 c 1,54,-1
 717 799 l 2,55,56
 783 783 783 783 841.5 741.5 c 128,-1,57
 900 700 900 700 939 645 c 128,-1,58
 978 590 978 590 1000 522.5 c 128,-1,59
 1022 455 1022 455 1022 383 c 0,60,61
 1022 272 1022 272 971 173.5 c 128,-1,62
 920 75 920 75 827.5 15 c 128,-1,63
 735 -45 735 -45 625 -45 c 0,64,65
 557 -45 557 -45 486 -30 c 128,-1,66
 415 -15 415 -15 355 16 c 128,-1,67
 295 47 295 47 246 96 c 1,68,-1
 160 -39 l 1,69,70
 154 -45 154 -45 145 -45 c 2,71,-1
 133 -45 l 2,72,73
 115 -45 115 -45 115 -29 c 2,0,-1
EndSplineSet
EndChar

StartChar: m
Encoding: 109 109 56
Width: 1706
Flags: W
LayerCount: 2
Fore
SplineSet
61 0 m 1,0,-1
 61 72 l 1,1,2
 131 72 131 72 176 83 c 128,-1,3
 221 94 221 94 221 137 c 2,4,-1
 221 696 l 2,5,6
 221 751 221 751 204.5 775.5 c 128,-1,7
 188 800 188 800 157 805.5 c 128,-1,8
 126 811 126 811 61 811 c 1,9,-1
 61 883 l 1,10,-1
 358 905 l 1,11,-1
 358 705 l 1,12,13
 399 793 399 793 479.5 849 c 128,-1,14
 560 905 560 905 655 905 c 0,15,16
 891 905 891 905 932 713 c 1,17,18
 973 799 973 799 1052 852 c 128,-1,19
 1131 905 1131 905 1225 905 c 0,20,21
 1318 905 1318 905 1381.5 875 c 128,-1,22
 1445 845 1445 845 1477 783.5 c 128,-1,23
 1509 722 1509 722 1509 629 c 2,24,-1
 1509 137 l 2,25,26
 1509 94 1509 94 1554.5 83 c 128,-1,27
 1600 72 1600 72 1669 72 c 1,28,-1
 1669 0 l 1,29,-1
 1200 0 l 1,30,-1
 1200 72 l 1,31,32
 1270 72 1270 72 1315 83 c 128,-1,33
 1360 94 1360 94 1360 137 c 2,34,-1
 1360 623 l 2,35,36
 1360 726 1360 726 1331 789 c 128,-1,37
 1302 852 1302 852 1212 852 c 0,38,39
 1094 852 1094 852 1017 757 c 128,-1,40
 940 662 940 662 940 541 c 2,41,-1
 940 137 l 2,42,43
 940 94 940 94 985 83 c 128,-1,44
 1030 72 1030 72 1100 72 c 1,45,-1
 1100 0 l 1,46,-1
 631 0 l 1,47,-1
 631 72 l 1,48,49
 701 72 701 72 746 83 c 128,-1,50
 791 94 791 94 791 137 c 2,51,-1
 791 623 l 2,52,53
 791 723 791 723 762 787.5 c 128,-1,54
 733 852 733 852 643 852 c 0,55,56
 524 852 524 852 447.5 757 c 128,-1,57
 371 662 371 662 371 541 c 2,58,-1
 371 137 l 2,59,60
 371 94 371 94 416 83 c 128,-1,61
 461 72 461 72 530 72 c 1,62,-1
 530 0 l 1,63,-1
 61 0 l 1,0,-1
EndSplineSet
EndChar

StartChar: z
Encoding: 122 122 57
Width: 909
Flags: W
LayerCount: 2
Fore
SplineSet
80 0 m 2,0,1
 57 0 57 0 57 23 c 2,2,-1
 57 39 l 2,3,4
 57 47 57 47 63 53 c 1,5,-1
 635 829 l 1,6,-1
 451 829 l 2,7,8
 364 829 364 829 307.5 818 c 128,-1,9
 251 807 251 807 214.5 776.5 c 128,-1,10
 178 746 178 746 161.5 692.5 c 128,-1,11
 145 639 145 639 145 545 c 1,12,-1
 86 545 l 1,13,-1
 109 883 l 1,14,-1
 795 883 l 2,15,16
 804 883 804 883 810.5 876.5 c 128,-1,17
 817 870 817 870 817 860 c 2,18,-1
 817 848 l 2,19,20
 817 842 817 842 813 834 c 1,21,-1
 240 59 l 1,22,-1
 436 59 l 2,23,24
 525 59 525 59 584.5 70 c 128,-1,25
 644 81 644 81 686 123 c 0,26,27
 725 162 725 162 739.5 228 c 128,-1,28
 754 294 754 294 762 391 c 1,29,-1
 821 391 l 1,30,-1
 786 0 l 1,31,-1
 80 0 l 2,0,1
EndSplineSet
EndChar

StartChar: quotesingle
Encoding: 39 39 58
Width: 567
Flags: W
LayerCount: 2
Fore
SplineSet
203 827 m 0,0,1
 203 836 203 836 211 844 c 0,2,3
 289 912 289 912 331 1006.5 c 128,-1,4
 373 1101 373 1101 373 1204 c 0,5,6
 373 1225 373 1225 371 1235 c 1,7,8
 341 1196 341 1196 285 1196 c 0,9,10
 238 1196 238 1196 205 1229 c 128,-1,11
 172 1262 172 1262 172 1309 c 0,12,13
 172 1357 172 1357 205 1389 c 128,-1,14
 238 1421 238 1421 285 1421 c 0,15,16
 335 1421 335 1421 367 1387 c 128,-1,17
 399 1353 399 1353 412.5 1302 c 128,-1,18
 426 1251 426 1251 426 1204 c 0,19,20
 426 1091 426 1091 377.5 984.5 c 128,-1,21
 329 878 329 878 246 803 c 1,22,23
 238 799 238 799 233 799 c 0,24,25
 223 799 223 799 213 808 c 128,-1,26
 203 817 203 817 203 827 c 0,0,1
EndSplineSet
EndChar

StartChar: four
Encoding: 52 52 59
Width: 1024
Flags: W
LayerCount: 2
Fore
SplineSet
57 338 m 1,0,-1
 57 410 l 1,1,-1
 690 1354 l 2,2,3
 697 1364 697 1364 711 1364 c 2,4,-1
 741 1364 l 2,5,6
 764 1364 764 1364 764 1341 c 2,7,-1
 764 410 l 1,8,-1
 965 410 l 1,9,-1
 965 338 l 1,10,-1
 764 338 l 1,11,-1
 764 137 l 2,12,13
 764 95 764 95 824 83.5 c 128,-1,14
 884 72 884 72 963 72 c 1,15,-1
 963 0 l 1,16,-1
 399 0 l 1,17,-1
 399 72 l 1,18,19
 478 72 478 72 538 83.5 c 128,-1,20
 598 95 598 95 598 137 c 2,21,-1
 598 338 l 1,22,-1
 57 338 l 1,0,-1
125 410 m 1,23,-1
 610 410 l 1,24,-1
 610 1135 l 1,25,-1
 125 410 l 1,23,-1
EndSplineSet
EndChar

StartChar: H
Encoding: 72 72 60
Width: 1536
Flags: W
LayerCount: 2
Fore
SplineSet
63 0 m 1,0,-1
 63 72 l 1,1,2
 274 72 274 72 274 137 c 2,3,-1
 274 1262 l 2,4,5
 274 1327 274 1327 63 1327 c 1,6,-1
 63 1399 l 1,7,-1
 676 1399 l 1,8,-1
 676 1327 l 1,9,10
 465 1327 465 1327 465 1262 c 2,11,-1
 465 764 l 1,12,-1
 1069 764 l 1,13,-1
 1069 1262 l 2,14,15
 1069 1327 1069 1327 858 1327 c 1,16,-1
 858 1399 l 1,17,-1
 1470 1399 l 1,18,-1
 1470 1327 l 1,19,20
 1260 1327 1260 1327 1260 1262 c 2,21,-1
 1260 137 l 2,22,23
 1260 72 1260 72 1470 72 c 1,24,-1
 1470 0 l 1,25,-1
 858 0 l 1,26,-1
 858 72 l 1,27,28
 1069 72 1069 72 1069 137 c 2,29,-1
 1069 692 l 1,30,-1
 465 692 l 1,31,-1
 465 137 l 2,32,33
 465 72 465 72 676 72 c 1,34,-1
 676 0 l 1,35,-1
 63 0 l 1,0,-1
EndSplineSet
EndChar

StartChar: U
Encoding: 85 85 61
Width: 1536
Flags: W
LayerCount: 2
Fore
SplineSet
274 463 m 2,0,-1
 274 1262 l 2,1,2
 274 1327 274 1327 63 1327 c 1,3,-1
 63 1399 l 1,4,-1
 676 1399 l 1,5,-1
 676 1327 l 1,6,7
 465 1327 465 1327 465 1262 c 2,8,-1
 465 471 l 2,9,10
 465 357 465 357 496.5 255.5 c 128,-1,11
 528 154 528 154 602.5 90.5 c 128,-1,12
 677 27 677 27 797 27 c 0,13,14
 914 27 914 27 1003 88.5 c 128,-1,15
 1092 150 1092 150 1140 252 c 128,-1,16
 1188 354 1188 354 1188 471 c 2,17,-1
 1188 1206 l 2,18,19
 1188 1327 1188 1327 977 1327 c 1,20,-1
 977 1399 l 1,21,-1
 1470 1399 l 1,22,-1
 1470 1327 l 1,23,24
 1260 1327 1260 1327 1260 1206 c 2,25,-1
 1260 463 l 2,26,27
 1260 368 1260 368 1226.5 277 c 128,-1,28
 1193 186 1193 186 1129.5 112.5 c 128,-1,29
 1066 39 1066 39 980 -3 c 128,-1,30
 894 -45 894 -45 797 -45 c 0,31,32
 661 -45 661 -45 539.5 23 c 128,-1,33
 418 91 418 91 346 208 c 128,-1,34
 274 325 274 325 274 463 c 2,0,-1
EndSplineSet
EndChar

StartChar: bracketleft
Encoding: 91 91 62
Width: 567
Flags: W
LayerCount: 2
Fore
SplineSet
242 -512 m 1,0,-1
 242 1536 l 1,1,-1
 522 1536 l 1,2,-1
 522 1454 l 1,3,-1
 324 1454 l 1,4,-1
 324 -430 l 1,5,-1
 522 -430 l 1,6,-1
 522 -512 l 1,7,-1
 242 -512 l 1,0,-1
EndSplineSet
EndChar

StartChar: paragraph
Encoding: 182 182 63
Width: 1024
Flags: W
LayerCount: 2
Fore
SplineSet
420 1083 m 1,0,-1
 666 1399 l 2,1,2
 690 1430 690 1430 725 1430 c 0,3,4
 757 1430 757 1430 780 1407 c 128,-1,5
 803 1384 803 1384 803 1352 c 256,6,7
 803 1320 803 1320 774 1294 c 1,8,-1
 463 1042 l 1,9,-1
 420 1083 l 1,0,-1
EndSplineSet
EndChar

StartChar: Agrave
Encoding: 192 192 64
Width: 1847
Flags: W
LayerCount: 2
Fore
SplineSet
66 0 m 1,0,-1
 66 72 l 1,1,2
 250 72 250 72 295 193 c 1,3,-1
 696 1325 l 1,4,5
 641 1327 641 1327 528 1327 c 1,6,-1
 528 1399 l 1,7,-1
 1675 1399 l 1,8,-1
 1733 930 l 1,9,-1
 1673 930 l 1,10,11
 1653 1094 1653 1094 1623 1173.5 c 128,-1,12
 1593 1253 1593 1253 1517.5 1290 c 128,-1,13
 1442 1327 1442 1327 1282 1327 c 2,14,-1
 1135 1327 l 2,15,16
 1098 1327 1098 1327 1077 1324 c 128,-1,17
 1056 1321 1056 1321 1043 1306.5 c 128,-1,18
 1030 1292 1030 1292 1030 1262 c 2,19,-1
 1030 709 l 1,20,-1
 1171 709 l 2,21,22
 1274 709 1274 709 1322 728.5 c 128,-1,23
 1370 748 1370 748 1386.5 796.5 c 128,-1,24
 1403 845 1403 845 1403 948 c 1,25,-1
 1462 948 l 1,26,-1
 1462 397 l 1,27,-1
 1403 397 l 1,28,29
 1403 501 1403 501 1386.5 549.5 c 128,-1,30
 1370 598 1370 598 1322 617.5 c 128,-1,31
 1274 637 1274 637 1171 637 c 2,32,-1
 1030 637 l 1,33,-1
 1030 137 l 2,34,35
 1030 93 1030 93 1055 82.5 c 128,-1,36
 1080 72 1080 72 1135 72 c 2,37,-1
 1298 72 l 2,38,39
 1428 72 1428 72 1507 100.5 c 128,-1,40
 1586 129 1586 129 1627.5 185 c 128,-1,41
 1669 241 1669 241 1689 319.5 c 128,-1,42
 1709 398 1709 398 1731 537 c 1,43,-1
 1790 537 l 1,44,-1
 1704 0 l 1,45,-1
 694 0 l 1,46,-1
 694 72 l 1,47,48
 764 72 764 72 808 83 c 128,-1,49
 852 94 852 94 852 137 c 2,50,-1
 852 637 l 1,51,-1
 528 637 l 1,52,-1
 371 193 l 1,53,54
 367 186 367 186 367 170 c 0,55,56
 367 135 367 135 391 113 c 128,-1,57
 415 91 415 91 450.5 81.5 c 128,-1,58
 486 72 486 72 518 72 c 1,59,-1
 518 0 l 1,60,-1
 66 0 l 1,0,-1
553 709 m 1,61,-1
 852 709 l 1,62,-1
 852 1262 l 2,63,64
 852 1312 852 1312 770 1321 c 1,65,-1
 553 709 l 1,61,-1
EndSplineSet
EndChar

StartChar: b
Encoding: 98 98 65
Width: 1137
Flags: W
LayerCount: 2
Fore
SplineSet
213 0 m 1,0,-1
 213 1212 l 2,1,2
 213 1267 213 1267 196.5 1291.5 c 128,-1,3
 180 1316 180 1316 149 1321.5 c 128,-1,4
 118 1327 118 1327 53 1327 c 1,5,-1
 53 1399 l 1,6,-1
 356 1421 l 1,7,-1
 356 780 l 1,8,9
 390 818 390 818 435.5 846.5 c 128,-1,10
 481 875 481 875 533 890 c 128,-1,11
 585 905 585 905 639 905 c 0,12,13
 731 905 731 905 809.5 868 c 128,-1,14
 888 831 888 831 946 766 c 128,-1,15
 1004 701 1004 701 1036.5 616.5 c 128,-1,16
 1069 532 1069 532 1069 442 c 0,17,18
 1069 318 1069 318 1008.5 211 c 128,-1,19
 948 104 948 104 843.5 40.5 c 128,-1,20
 739 -23 739 -23 614 -23 c 0,21,22
 536 -23 536 -23 463 17 c 128,-1,23
 390 57 390 57 342 123 c 1,24,-1
 272 0 l 1,25,-1
 213 0 l 1,0,-1
362 201 m 1,26,27
 396 126 396 126 460 78.5 c 128,-1,28
 524 31 524 31 602 31 c 0,29,30
 708 31 708 31 773.5 92 c 128,-1,31
 839 153 839 153 865 246 c 128,-1,32
 891 339 891 339 891 442 c 0,33,34
 891 615 891 615 846 705 c 0,35,36
 826 745 826 745 791.5 779 c 128,-1,37
 757 813 757 813 714.5 832.5 c 128,-1,38
 672 852 672 852 625 852 c 0,39,40
 543 852 543 852 473 808.5 c 128,-1,41
 403 765 403 765 362 692 c 1,42,-1
 362 201 l 1,26,27
EndSplineSet
EndChar

StartChar: o
Encoding: 111 111 66
Width: 1024
Flags: W
LayerCount: 2
Fore
SplineSet
512 -23 m 0,0,1
 389 -23 389 -23 284 39.5 c 128,-1,2
 179 102 179 102 118 207 c 128,-1,3
 57 312 57 312 57 436 c 0,4,5
 57 530 57 530 90.5 617 c 128,-1,6
 124 704 124 704 186.5 772.5 c 128,-1,7
 249 841 249 841 332 879.5 c 128,-1,8
 415 918 415 918 512 918 c 0,9,10
 638 918 638 918 741.5 851.5 c 128,-1,11
 845 785 845 785 905 673.5 c 128,-1,12
 965 562 965 562 965 436 c 0,13,14
 965 313 965 313 904 207.5 c 128,-1,15
 843 102 843 102 738.5 39.5 c 128,-1,16
 634 -23 634 -23 512 -23 c 0,0,1
512 37 m 0,17,18
 676 37 676 37 731 156 c 128,-1,19
 786 275 786 275 786 459 c 0,20,21
 786 562 786 562 775 629.5 c 128,-1,22
 764 697 764 697 727 752 c 0,23,24
 704 786 704 786 668.5 811.5 c 128,-1,25
 633 837 633 837 593.5 850.5 c 128,-1,26
 554 864 554 864 512 864 c 0,27,28
 448 864 448 864 390.5 835 c 128,-1,29
 333 806 333 806 295 752 c 1,30,31
 257 694 257 694 246.5 624.5 c 128,-1,32
 236 555 236 555 236 459 c 0,33,34
 236 344 236 344 256 252.5 c 128,-1,35
 276 161 276 161 336.5 99 c 128,-1,36
 397 37 397 37 512 37 c 0,17,18
EndSplineSet
EndChar

StartChar: Atilde
Encoding: 195 195 67
Width: 567
Flags: W
LayerCount: 2
Fore
SplineSet
74 573 m 1,0,-1
 51 643 l 1,1,-1
 518 803 l 1,2,-1
 541 735 l 1,3,-1
 74 573 l 1,0,-1
EndSplineSet
EndChar

StartChar: parenright
Encoding: 41 41 68
Width: 795
Flags: W
LayerCount: 2
Fore
SplineSet
133 -512 m 2,0,1
 115 -512 115 -512 115 -494 c 0,2,3
 115 -485 115 -485 119 -481 c 0,4,5
 469 -139 469 -139 469 512 c 256,6,7
 469 1163 469 1163 123 1501 c 1,8,9
 115 1506 115 1506 115 1518 c 0,10,11
 115 1525 115 1525 120.5 1530.5 c 128,-1,12
 126 1536 126 1536 133 1536 c 2,13,-1
 152 1536 l 2,14,15
 158 1536 158 1536 162 1532 c 0,16,17
 309 1416 309 1416 407 1250 c 128,-1,18
 505 1084 505 1084 550.5 896 c 128,-1,19
 596 708 596 708 596 512 c 0,20,21
 596 367 596 367 571.5 226.5 c 128,-1,22
 547 86 547 86 493.5 -50.5 c 128,-1,23
 440 -187 440 -187 358 -302.5 c 128,-1,24
 276 -418 276 -418 162 -508 c 0,25,26
 158 -512 158 -512 152 -512 c 2,27,-1
 133 -512 l 2,0,1
EndSplineSet
EndChar

StartChar: six
Encoding: 54 54 69
Width: 1024
Flags: W
LayerCount: 2
Fore
SplineSet
512 -45 m 0,0,1
 385 -45 385 -45 300 22.5 c 128,-1,2
 215 90 215 90 168.5 197.5 c 128,-1,3
 122 305 122 305 104 423 c 128,-1,4
 86 541 86 541 86 662 c 0,5,6
 86 824 86 824 149 987 c 128,-1,7
 212 1150 212 1150 334.5 1257 c 128,-1,8
 457 1364 457 1364 625 1364 c 0,9,10
 695 1364 695 1364 755.5 1337.5 c 128,-1,11
 816 1311 816 1311 850.5 1259.5 c 128,-1,12
 885 1208 885 1208 885 1135 c 0,13,14
 885 1093 885 1093 856.5 1064.5 c 128,-1,15
 828 1036 828 1036 786 1036 c 0,16,17
 746 1036 746 1036 717 1065 c 128,-1,18
 688 1094 688 1094 688 1135 c 0,19,20
 688 1175 688 1175 717 1204 c 128,-1,21
 746 1233 746 1233 786 1233 c 2,22,-1
 797 1233 l 1,23,24
 771 1270 771 1270 723.5 1287.5 c 128,-1,25
 676 1305 676 1305 625 1305 c 0,26,27
 563 1305 563 1305 510.5 1278 c 128,-1,28
 458 1251 458 1251 416 1205 c 128,-1,29
 374 1159 374 1159 346 1103.5 c 128,-1,30
 318 1048 318 1048 302.5 977 c 128,-1,31
 287 906 287 906 283 844 c 128,-1,32
 279 782 279 782 279 688 c 1,33,34
 315 772 315 772 381 825.5 c 128,-1,35
 447 879 447 879 530 879 c 0,36,37
 621 879 621 879 696 842 c 128,-1,38
 771 805 771 805 825 739.5 c 128,-1,39
 879 674 879 674 907.5 590 c 128,-1,40
 936 506 936 506 936 420 c 0,41,42
 936 300 936 300 882.5 191.5 c 128,-1,43
 829 83 829 83 732 19 c 128,-1,44
 635 -45 635 -45 512 -45 c 0,0,1
512 20 m 0,45,46
 591 20 591 20 639 56 c 128,-1,47
 687 92 687 92 709.5 151.5 c 128,-1,48
 732 211 732 211 737.5 271.5 c 128,-1,49
 743 332 743 332 743 420 c 0,50,51
 743 536 743 536 732 618 c 128,-1,52
 721 700 721 700 672 762.5 c 128,-1,53
 623 825 623 825 522 825 c 0,54,55
 439 825 439 825 385.5 769 c 128,-1,56
 332 713 332 713 307.5 627.5 c 128,-1,57
 283 542 283 542 283 463 c 0,58,59
 283 436 283 436 285 422 c 0,60,61
 285 419 285 419 284.5 417 c 128,-1,62
 284 415 284 415 283 412 c 1,63,64
 283 324 283 324 301 234 c 128,-1,65
 319 144 319 144 370 82 c 128,-1,66
 421 20 421 20 512 20 c 0,45,46
EndSplineSet
EndChar

StartChar: J
Encoding: 74 74 70
Width: 1051
Flags: W
LayerCount: 2
Fore
SplineSet
186 115 m 1,0,1
 223 63 223 63 282 35.5 c 128,-1,2
 341 8 341 8 408 8 c 0,3,4
 474 8 474 8 519.5 53.5 c 128,-1,5
 565 99 565 99 587.5 166.5 c 128,-1,6
 610 234 610 234 610 297 c 2,7,-1
 610 1262 l 2,8,9
 610 1327 610 1327 336 1327 c 1,10,-1
 336 1399 l 1,11,-1
 952 1399 l 1,12,-1
 952 1327 l 1,13,14
 883 1327 883 1327 839 1316 c 128,-1,15
 795 1305 795 1305 795 1262 c 2,16,-1
 795 289 l 2,17,18
 795 191 795 191 738.5 115 c 128,-1,19
 682 39 682 39 592.5 -3 c 128,-1,20
 503 -45 503 -45 408 -45 c 0,21,22
 325 -45 325 -45 249 -11.5 c 128,-1,23
 173 22 173 22 124.5 85.5 c 128,-1,24
 76 149 76 149 76 233 c 0,25,26
 76 284 76 284 110 318 c 128,-1,27
 144 352 144 352 195 352 c 0,28,29
 228 352 228 352 255 336.5 c 128,-1,30
 282 321 282 321 297.5 293 c 128,-1,31
 313 265 313 265 313 233 c 0,32,33
 313 183 313 183 279 149 c 128,-1,34
 245 115 245 115 195 115 c 2,35,-1
 186 115 l 1,0,1
EndSplineSet
EndChar

StartChar: W
Encoding: 87 87 71
Width: 2103
Flags: W
LayerCount: 2
Fore
SplineSet
637 -23 m 2,0,-1
 219 1262 l 1,1,2
 203 1305 203 1305 157 1316 c 128,-1,3
 111 1327 111 1327 37 1327 c 1,4,-1
 37 1399 l 1,5,-1
 586 1399 l 1,6,-1
 586 1327 l 1,7,8
 414 1327 414 1327 414 1272 c 2,9,-1
 414 1262 l 1,10,-1
 741 254 l 1,11,-1
 1020 1116 l 1,12,-1
 973 1262 l 1,13,14
 957 1305 957 1305 911 1316 c 128,-1,15
 865 1327 865 1327 791 1327 c 1,16,-1
 791 1399 l 1,17,-1
 1339 1399 l 1,18,-1
 1339 1327 l 1,19,20
 1165 1327 1165 1327 1165 1272 c 0,21,22
 1165 1269 1165 1269 1167 1263 c 128,-1,23
 1169 1257 1169 1257 1169 1255 c 2,24,-1
 1495 254 l 1,25,-1
 1802 1206 l 2,26,27
 1804 1212 1804 1212 1804 1225 c 0,28,29
 1804 1279 1804 1279 1747 1303 c 128,-1,30
 1690 1327 1690 1327 1628 1327 c 1,31,-1
 1628 1399 l 1,32,-1
 2066 1399 l 1,33,-1
 2066 1327 l 1,34,35
 1904 1327 1904 1327 1866 1206 c 1,36,-1
 1466 -23 l 2,37,38
 1459 -45 1459 -45 1436 -45 c 2,39,-1
 1421 -45 l 2,40,41
 1398 -45 1398 -45 1391 -23 c 2,42,-1
 1053 1020 l 1,43,-1
 713 -23 l 2,44,45
 706 -45 706 -45 682 -45 c 2,46,-1
 668 -45 l 2,47,48
 644 -45 644 -45 637 -23 c 2,0,-1
EndSplineSet
EndChar

StartChar: bracketright
Encoding: 93 93 72
Width: 567
Flags: W
LayerCount: 2
Fore
SplineSet
45 -512 m 1,0,-1
 45 -430 l 1,1,-1
 244 -430 l 1,2,-1
 244 1454 l 1,3,-1
 45 1454 l 1,4,-1
 45 1536 l 1,5,-1
 326 1536 l 1,6,-1
 326 -512 l 1,7,-1
 45 -512 l 1,0,-1
EndSplineSet
EndChar

StartChar: d
Encoding: 100 100 73
Width: 1137
Flags: W
LayerCount: 2
Fore
SplineSet
500 -23 m 0,0,1
 379 -23 379 -23 279 42.5 c 128,-1,2
 179 108 179 108 123.5 215 c 128,-1,3
 68 322 68 322 68 442 c 0,4,5
 68 566 68 566 128.5 672.5 c 128,-1,6
 189 779 189 779 293 842 c 128,-1,7
 397 905 397 905 522 905 c 0,8,9
 597 905 597 905 664 873.5 c 128,-1,10
 731 842 731 842 780 786 c 1,11,-1
 780 1212 l 2,12,13
 780 1267 780 1267 763.5 1291.5 c 128,-1,14
 747 1316 747 1316 716.5 1321.5 c 128,-1,15
 686 1327 686 1327 621 1327 c 1,16,-1
 621 1399 l 1,17,-1
 924 1421 l 1,18,-1
 924 186 l 2,19,20
 924 132 924 132 940.5 107.5 c 128,-1,21
 957 83 957 83 987.5 77.5 c 128,-1,22
 1018 72 1018 72 1083 72 c 1,23,-1
 1083 0 l 1,24,-1
 774 -23 l 1,25,-1
 774 106 l 1,26,27
 721 45 721 45 648 11 c 128,-1,28
 575 -23 575 -23 500 -23 c 0,0,1
291 178 m 1,29,30
 326 111 326 111 384.5 71 c 128,-1,31
 443 31 443 31 512 31 c 0,32,33
 597 31 597 31 668 80 c 128,-1,34
 739 129 739 129 774 207 c 1,35,-1
 774 698 l 1,36,37
 750 743 750 743 713.5 778.5 c 128,-1,38
 677 814 677 814 631.5 833 c 128,-1,39
 586 852 586 852 535 852 c 0,40,41
 428 852 428 852 363 791.5 c 128,-1,42
 298 731 298 731 272 637 c 128,-1,43
 246 543 246 543 246 440 c 0,44,45
 246 358 246 358 254.5 297 c 128,-1,46
 263 236 263 236 291 178 c 1,29,30
EndSplineSet
EndChar

StartChar: q
Encoding: 113 113 74
Width: 1079
Flags: W
LayerCount: 2
Fore
SplineSet
614 -397 m 1,0,-1
 614 -326 l 1,1,2
 684 -326 684 -326 729 -314 c 128,-1,3
 774 -302 774 -302 774 -260 c 2,4,-1
 774 119 l 1,5,6
 726 55 726 55 653 16 c 128,-1,7
 580 -23 580 -23 500 -23 c 0,8,9
 408 -23 408 -23 329 15 c 128,-1,10
 250 53 250 53 191.5 118 c 128,-1,11
 133 183 133 183 100.5 268.5 c 128,-1,12
 68 354 68 354 68 442 c 0,13,14
 68 564 68 564 128 671.5 c 128,-1,15
 188 779 188 779 292.5 842 c 128,-1,16
 397 905 397 905 518 905 c 0,17,18
 605 905 605 905 679 856 c 128,-1,19
 753 807 753 807 797 725 c 1,20,-1
 870 905 l 1,21,-1
 924 905 l 1,22,-1
 924 -260 l 2,23,24
 924 -302 924 -302 969 -314 c 128,-1,25
 1014 -326 1014 -326 1083 -326 c 1,26,-1
 1083 -397 l 1,27,-1
 614 -397 l 1,0,-1
512 31 m 0,28,29
 603 31 603 31 674.5 91.5 c 128,-1,30
 746 152 746 152 780 244 c 1,31,-1
 780 604 l 1,32,33
 759 702 759 702 693 774 c 128,-1,34
 627 846 627 846 535 846 c 0,35,36
 465 846 465 846 410 809 c 128,-1,37
 355 772 355 772 318.5 710 c 128,-1,38
 282 648 282 648 264 576 c 128,-1,39
 246 504 246 504 246 440 c 0,40,41
 246 358 246 358 275 261.5 c 128,-1,42
 304 165 304 165 364 98 c 128,-1,43
 424 31 424 31 512 31 c 0,28,29
EndSplineSet
EndChar

StartChar: asciitilde
Encoding: 126 126 75
Width: 1024
Flags: W
LayerCount: 2
Fore
SplineSet
170 1206 m 1,0,-1
 229 1276 l 1,1,2
 309 1368 309 1368 389 1368 c 0,3,4
 428 1368 428 1368 474.5 1345 c 128,-1,5
 521 1322 521 1322 567.5 1299 c 128,-1,6
 614 1276 614 1276 653 1276 c 0,7,8
 735 1276 735 1276 811 1368 c 1,9,-1
 852 1333 l 1,10,-1
 793 1264 l 1,11,12
 712 1171 712 1171 633 1171 c 0,13,14
 594 1171 594 1171 547.5 1194.5 c 128,-1,15
 501 1218 501 1218 454.5 1241 c 128,-1,16
 408 1264 408 1264 369 1264 c 0,17,18
 287 1264 287 1264 211 1171 c 1,19,-1
 170 1206 l 1,0,-1
EndSplineSet
EndChar

StartChar: plus
Encoding: 43 43 76
Width: 1591
Flags: W
LayerCount: 2
Fore
SplineSet
154 471 m 2,0,1
 137 471 137 471 126 484 c 128,-1,2
 115 497 115 497 115 512 c 256,3,4
 115 527 115 527 126 540 c 128,-1,5
 137 553 137 553 154 553 c 2,6,-1
 756 553 l 1,7,-1
 756 1157 l 2,8,9
 756 1173 756 1173 768 1183.5 c 128,-1,10
 780 1194 780 1194 797 1194 c 0,11,12
 812 1194 812 1194 825 1183.5 c 128,-1,13
 838 1173 838 1173 838 1157 c 2,14,-1
 838 553 l 1,15,-1
 1440 553 l 2,16,17
 1455 553 1455 553 1466 540 c 128,-1,18
 1477 527 1477 527 1477 512 c 256,19,20
 1477 497 1477 497 1466 484 c 128,-1,21
 1455 471 1455 471 1440 471 c 2,22,-1
 838 471 l 1,23,-1
 838 -133 l 2,24,25
 838 -149 838 -149 825 -159.5 c 128,-1,26
 812 -170 812 -170 797 -170 c 0,27,28
 780 -170 780 -170 768 -159.5 c 128,-1,29
 756 -149 756 -149 756 -133 c 2,30,-1
 756 471 l 1,31,-1
 154 471 l 2,0,1
EndSplineSet
EndChar

StartChar: eight
Encoding: 56 56 77
Width: 1024
Flags: W
LayerCount: 2
Fore
SplineSet
86 311 m 0,0,1
 86 434 86 434 167 528.5 c 128,-1,2
 248 623 248 623 375 686 c 1,3,-1
 299 735 l 2,4,5
 229 781 229 781 185 857.5 c 128,-1,6
 141 934 141 934 141 1018 c 0,7,8
 141 1116 141 1116 192.5 1195 c 128,-1,9
 244 1274 244 1274 329.5 1319 c 128,-1,10
 415 1364 415 1364 512 1364 c 0,11,12
 603 1364 603 1364 687.5 1327 c 128,-1,13
 772 1290 772 1290 826.5 1221 c 128,-1,14
 881 1152 881 1152 881 1057 c 0,15,16
 881 988 881 988 848.5 929 c 128,-1,17
 816 870 816 870 759.5 823 c 128,-1,18
 703 776 703 776 639 743 c 1,19,-1
 756 668 l 2,20,21
 837 615 837 615 886.5 529 c 128,-1,22
 936 443 936 443 936 348 c 0,23,24
 936 237 936 237 876.5 146 c 128,-1,25
 817 55 817 55 719 5 c 128,-1,26
 621 -45 621 -45 512 -45 c 0,27,28
 406 -45 406 -45 307.5 -2 c 128,-1,29
 209 41 209 41 147.5 122.5 c 128,-1,30
 86 204 86 204 86 311 c 0,0,1
197 311 m 0,31,32
 197 230 197 230 241.5 163 c 128,-1,33
 286 96 286 96 359 58 c 128,-1,34
 432 20 432 20 512 20 c 0,35,36
 631 20 631 20 728 89.5 c 128,-1,37
 825 159 825 159 825 274 c 0,38,39
 825 313 825 313 809.5 351.5 c 128,-1,40
 794 390 794 390 766.5 421.5 c 128,-1,41
 739 453 739 453 705 473 c 1,42,-1
 430 651 l 1,43,44
 366 617 366 617 312.5 565 c 128,-1,45
 259 513 259 513 228 448 c 128,-1,46
 197 383 197 383 197 311 c 0,31,32
338 936 m 1,47,-1
 586 776 l 1,48,49
 672 826 672 826 727 897 c 128,-1,50
 782 968 782 968 782 1057 c 0,51,52
 782 1126 782 1126 743.5 1183.5 c 128,-1,53
 705 1241 705 1241 643 1273 c 128,-1,54
 581 1305 581 1305 510 1305 c 0,55,56
 448 1305 448 1305 385 1281 c 128,-1,57
 322 1257 322 1257 281 1209.5 c 128,-1,58
 240 1162 240 1162 240 1098 c 0,59,60
 240 1002 240 1002 338 936 c 1,47,-1
EndSplineSet
EndChar

StartChar: L
Encoding: 76 76 78
Width: 1280
Flags: W
LayerCount: 2
Fore
SplineSet
63 0 m 1,0,-1
 63 72 l 1,1,2
 274 72 274 72 274 137 c 2,3,-1
 274 1262 l 2,4,5
 274 1327 274 1327 63 1327 c 1,6,-1
 63 1399 l 1,7,-1
 727 1399 l 1,8,-1
 727 1327 l 1,9,10
 465 1327 465 1327 465 1262 c 2,11,-1
 465 137 l 2,12,13
 465 93 465 93 490 82.5 c 128,-1,14
 515 72 515 72 569 72 c 2,15,-1
 727 72 l 2,16,17
 880 72 880 72 963 128 c 128,-1,18
 1046 184 1046 184 1080.5 280.5 c 128,-1,19
 1115 377 1115 377 1133 537 c 1,20,-1
 1192 537 l 1,21,-1
 1135 0 l 1,22,-1
 63 0 l 1,0,-1
EndSplineSet
EndChar

StartChar: Y
Encoding: 89 89 79
Width: 1536
Flags: W
LayerCount: 2
Fore
SplineSet
463 0 m 1,0,-1
 463 72 l 1,1,2
 674 72 674 72 674 137 c 2,3,-1
 674 559 l 1,4,-1
 244 1266 l 1,5,6
 214 1307 214 1307 160 1317 c 128,-1,7
 106 1327 106 1327 23 1327 c 1,8,-1
 23 1399 l 1,9,-1
 600 1399 l 1,10,-1
 600 1327 l 1,11,12
 457 1327 457 1327 457 1280 c 0,13,14
 457 1276 457 1276 461 1264 c 1,15,-1
 831 653 l 1,16,-1
 1169 1208 l 1,17,18
 1182 1227 1182 1227 1182 1249 c 0,19,20
 1182 1290 1182 1290 1146.5 1308.5 c 128,-1,21
 1111 1327 1111 1327 1067 1327 c 1,22,-1
 1067 1399 l 1,23,-1
 1511 1399 l 1,24,-1
 1511 1327 l 1,25,26
 1431 1327 1431 1327 1362.5 1298.5 c 128,-1,27
 1294 1270 1294 1270 1255 1210 c 1,28,-1
 858 559 l 1,29,-1
 858 137 l 2,30,31
 858 72 858 72 1069 72 c 1,32,-1
 1069 0 l 1,33,-1
 463 0 l 1,0,-1
EndSplineSet
EndChar

StartChar: f
Encoding: 102 102 80
Width: 625
Flags: W
LayerCount: 2
Fore
SplineSet
66 0 m 1,0,-1
 66 72 l 1,1,2
 135 72 135 72 180 83 c 128,-1,3
 225 94 225 94 225 137 c 2,4,-1
 225 811 l 1,5,-1
 68 811 l 1,6,-1
 68 883 l 1,7,-1
 225 883 l 1,8,-1
 225 1128 l 2,9,10
 225 1194 225 1194 252.5 1251.5 c 128,-1,11
 280 1309 280 1309 326.5 1352 c 128,-1,12
 373 1395 373 1395 433.5 1419.5 c 128,-1,13
 494 1444 494 1444 559 1444 c 0,14,15
 628 1444 628 1444 683.5 1403 c 128,-1,16
 739 1362 739 1362 739 1294 c 0,17,18
 739 1255 739 1255 712.5 1228.5 c 128,-1,19
 686 1202 686 1202 647 1202 c 256,20,21
 608 1202 608 1202 580.5 1228.5 c 128,-1,22
 553 1255 553 1255 553 1294 c 0,23,24
 553 1358 553 1358 608 1380 c 1,25,26
 575 1391 575 1391 549 1391 c 0,27,28
 489 1391 489 1391 446.5 1348.5 c 128,-1,29
 404 1306 404 1306 383 1245 c 128,-1,30
 362 1184 362 1184 362 1124 c 2,31,-1
 362 883 l 1,32,-1
 598 883 l 1,33,-1
 598 811 l 1,34,-1
 369 811 l 1,35,-1
 369 137 l 2,36,37
 369 95 369 95 429 83.5 c 128,-1,38
 489 72 489 72 567 72 c 1,39,-1
 567 0 l 1,40,-1
 66 0 l 1,0,-1
EndSplineSet
EndChar

StartChar: cedilla
Encoding: 184 184 81
Width: 1024
Flags: W
LayerCount: 2
Fore
SplineSet
512 1065 m 0,0,1
 421 1065 421 1065 350 1116 c 128,-1,2
 279 1167 279 1167 240 1249.5 c 128,-1,3
 201 1332 201 1332 201 1421 c 1,4,-1
 254 1421 l 1,5,6
 254 1351 254 1351 288.5 1288.5 c 128,-1,7
 323 1226 323 1226 381.5 1188.5 c 128,-1,8
 440 1151 440 1151 512 1151 c 0,9,10
 583 1151 583 1151 642 1189 c 128,-1,11
 701 1227 701 1227 734.5 1289 c 128,-1,12
 768 1351 768 1351 768 1421 c 1,13,-1
 821 1421 l 1,14,15
 821 1332 821 1332 782 1249.5 c 128,-1,16
 743 1167 743 1167 672 1116 c 128,-1,17
 601 1065 601 1065 512 1065 c 0,0,1
EndSplineSet
EndChar

StartChar: s
Encoding: 115 115 82
Width: 807
Flags: W
LayerCount: 2
Fore
SplineSet
68 -6 m 2,0,-1
 68 328 l 2,1,2
 68 344 68 344 86 344 c 2,3,-1
 111 344 l 2,4,5
 123 344 123 344 127 328 c 0,6,7
 184 31 184 31 403 31 c 0,8,9
 500 31 500 31 565.5 75 c 128,-1,10
 631 119 631 119 631 211 c 0,11,12
 631 277 631 277 580 323.5 c 128,-1,13
 529 370 529 370 459 387 c 1,14,-1
 322 414 l 1,15,16
 253 429 253 429 196.5 460 c 128,-1,17
 140 491 140 491 104 542.5 c 128,-1,18
 68 594 68 594 68 662 c 0,19,20
 68 752 68 752 115.5 809.5 c 128,-1,21
 163 867 163 867 239 892.5 c 128,-1,22
 315 918 315 918 403 918 c 0,23,24
 508 918 508 918 586 862 c 1,25,-1
 645 913 l 1,26,27
 645 918 645 918 655 918 c 2,28,-1
 670 918 l 2,29,30
 676 918 676 918 681 912.5 c 128,-1,31
 686 907 686 907 686 901 c 2,32,-1
 686 633 l 2,33,34
 686 614 686 614 670 614 c 2,35,-1
 645 614 l 2,36,37
 627 614 627 614 627 633 c 0,38,39
 627 740 627 740 567.5 805 c 128,-1,40
 508 870 508 870 401 870 c 0,41,42
 309 870 309 870 241.5 836 c 128,-1,43
 174 802 174 802 174 719 c 0,44,45
 174 662 174 662 222.5 625.5 c 128,-1,46
 271 589 271 589 336 573 c 1,47,-1
 475 547 l 1,48,49
 545 531 545 531 605.5 493 c 128,-1,50
 666 455 666 455 701.5 397 c 128,-1,51
 737 339 737 339 737 266 c 0,52,53
 737 192 737 192 711.5 137.5 c 128,-1,54
 686 83 686 83 640.5 47 c 128,-1,55
 595 11 595 11 533 -6 c 128,-1,56
 471 -23 471 -23 403 -23 c 0,57,58
 275 -23 275 -23 184 63 c 1,59,-1
 109 -18 l 1,60,61
 109 -23 109 -23 98 -23 c 2,62,-1
 86 -23 l 2,63,64
 68 -23 68 -23 68 -6 c 2,0,-1
EndSplineSet
EndChar

StartChar: hyphen
Encoding: 45 45 84
Width: 682
Flags: W
LayerCount: 2
Fore
SplineSet
23 379 m 1,0,-1
 23 506 l 1,1,-1
 565 506 l 1,2,-1
 565 379 l 1,3,-1
 23 379 l 1,0,-1
EndSplineSet
EndChar

StartChar: colon
Encoding: 58 58 85
Width: 567
Flags: W
LayerCount: 2
Fore
SplineSet
172 113 m 0,0,1
 172 159 172 159 206 192 c 128,-1,2
 240 225 240 225 285 225 c 0,3,4
 313 225 313 225 340 210 c 128,-1,5
 367 195 367 195 382 168 c 128,-1,6
 397 141 397 141 397 113 c 0,7,8
 397 68 397 68 364 34 c 128,-1,9
 331 0 331 0 285 0 c 0,10,11
 240 0 240 0 206 34 c 128,-1,12
 172 68 172 68 172 113 c 0,0,1
172 770 m 0,13,14
 172 799 172 799 187 825 c 128,-1,15
 202 851 202 851 228.5 867 c 128,-1,16
 255 883 255 883 285 883 c 0,17,18
 314 883 314 883 340.5 867 c 128,-1,19
 367 851 367 851 382 825 c 128,-1,20
 397 799 397 799 397 770 c 0,21,22
 397 724 397 724 364.5 690.5 c 128,-1,23
 332 657 332 657 285 657 c 0,24,25
 239 657 239 657 205.5 690.5 c 128,-1,26
 172 724 172 724 172 770 c 0,13,14
EndSplineSet
EndChar

StartChar: A
Encoding: 65 65 86
Width: 1536
Flags: W
LayerCount: 2
Fore
SplineSet
66 0 m 1,0,-1
 66 72 l 1,1,2
 249 72 249 72 291 193 c 2,3,-1
 721 1444 l 1,4,5
 727 1466 727 1466 754 1466 c 2,6,-1
 780 1466 l 2,7,8
 807 1466 807 1466 813 1444 c 1,9,-1
 1262 137 l 1,10,11
 1281 94 1281 94 1334.5 83 c 128,-1,12
 1388 72 1388 72 1468 72 c 1,13,-1
 1468 0 l 1,14,-1
 897 0 l 1,15,-1
 897 72 l 1,16,17
 1067 72 1067 72 1067 127 c 2,18,-1
 1067 137 l 1,19,-1
 956 457 l 1,20,-1
 459 457 l 1,21,-1
 367 193 l 2,22,23
 365 186 365 186 365 172 c 0,24,25
 365 121 365 121 413.5 96.5 c 128,-1,26
 462 72 462 72 518 72 c 1,27,-1
 518 0 l 1,28,-1
 66 0 l 1,0,-1
483 528 m 1,29,-1
 932 528 l 1,30,-1
 707 1182 l 1,31,-1
 483 528 l 1,29,-1
EndSplineSet
EndChar

StartChar: N
Encoding: 78 78 87
Width: 1536
Flags: W
LayerCount: 2
Fore
SplineSet
63 0 m 1,0,-1
 63 72 l 1,1,2
 274 72 274 72 274 193 c 2,3,-1
 274 1315 l 1,4,5
 207 1327 207 1327 63 1327 c 1,6,-1
 63 1399 l 1,7,-1
 455 1399 l 2,8,9
 465 1399 465 1399 469 1391 c 1,10,-1
 1194 324 l 1,11,-1
 1194 1206 l 2,12,13
 1194 1327 1194 1327 983 1327 c 1,14,-1
 983 1399 l 1,15,-1
 1470 1399 l 1,16,-1
 1470 1327 l 1,17,18
 1260 1327 1260 1327 1260 1206 c 2,19,-1
 1260 18 l 2,20,21
 1260 12 1260 12 1252 6 c 128,-1,22
 1244 0 1244 0 1239 0 c 2,23,-1
 1214 0 l 2,24,25
 1204 0 1204 0 1200 8 c 1,26,-1
 340 1274 l 1,27,-1
 340 193 l 2,28,29
 340 72 340 72 551 72 c 1,30,-1
 551 0 l 1,31,-1
 63 0 l 1,0,-1
EndSplineSet
EndChar

StartChar: backslash
Encoding: 92 92 88
Width: 1024
Flags: W
LayerCount: 2
Fore
SplineSet
444 799 m 0,0,1
 371 799 371 799 337 866.5 c 128,-1,2
 303 934 303 934 303 1016 c 0,3,4
 303 1129 303 1129 350.5 1235 c 128,-1,5
 398 1341 398 1341 483 1417 c 1,6,7
 491 1421 491 1421 496 1421 c 0,8,9
 507 1421 507 1421 516.5 1411.5 c 128,-1,10
 526 1402 526 1402 526 1393 c 256,11,12
 526 1384 526 1384 518 1376 c 0,13,14
 469 1333 469 1333 431 1273 c 128,-1,15
 393 1213 393 1213 374.5 1147.5 c 128,-1,16
 356 1082 356 1082 356 1016 c 0,17,18
 356 995 356 995 358 985 c 1,19,20
 388 1024 388 1024 444 1024 c 0,21,22
 476 1024 476 1024 501.5 1009 c 128,-1,23
 527 994 527 994 542 969 c 128,-1,24
 557 944 557 944 557 911 c 0,25,26
 557 864 557 864 524.5 831.5 c 128,-1,27
 492 799 492 799 444 799 c 0,0,1
842 799 m 0,28,29
 768 799 768 799 734 866.5 c 128,-1,30
 700 934 700 934 700 1016 c 0,31,32
 700 1094 700 1094 722 1166.5 c 128,-1,33
 744 1239 744 1239 785.5 1304.5 c 128,-1,34
 827 1370 827 1370 881 1417 c 1,35,36
 889 1421 889 1421 893 1421 c 0,37,38
 903 1421 903 1421 913.5 1411.5 c 128,-1,39
 924 1402 924 1402 924 1393 c 0,40,41
 924 1383 924 1383 915 1376 c 0,42,43
 866 1333 866 1333 829 1274.5 c 128,-1,44
 792 1216 792 1216 773 1149 c 128,-1,45
 754 1082 754 1082 754 1016 c 0,46,47
 754 995 754 995 756 985 c 1,48,49
 785 1024 785 1024 842 1024 c 0,50,51
 891 1024 891 1024 922.5 991.5 c 128,-1,52
 954 959 954 959 954 911 c 0,53,54
 954 865 954 865 922 832 c 128,-1,55
 890 799 890 799 842 799 c 0,28,29
EndSplineSet
EndChar

StartChar: h
Encoding: 104 104 89
Width: 1137
Flags: W
LayerCount: 2
Fore
SplineSet
61 0 m 1,0,-1
 61 72 l 1,1,2
 131 72 131 72 176 83 c 128,-1,3
 221 94 221 94 221 137 c 2,4,-1
 221 1212 l 2,5,6
 221 1267 221 1267 204.5 1291.5 c 128,-1,7
 188 1316 188 1316 157 1321.5 c 128,-1,8
 126 1327 126 1327 61 1327 c 1,9,-1
 61 1399 l 1,10,-1
 365 1421 l 1,11,-1
 365 717 l 1,12,13
 408 802 408 802 485 853.5 c 128,-1,14
 562 905 562 905 655 905 c 0,15,16
 797 905 797 905 868.5 837 c 128,-1,17
 940 769 940 769 940 629 c 2,18,-1
 940 137 l 2,19,20
 940 94 940 94 985 83 c 128,-1,21
 1030 72 1030 72 1100 72 c 1,22,-1
 1100 0 l 1,23,-1
 631 0 l 1,24,-1
 631 72 l 1,25,26
 701 72 701 72 746 83 c 128,-1,27
 791 94 791 94 791 137 c 2,28,-1
 791 623 l 2,29,30
 791 723 791 723 762 787.5 c 128,-1,31
 733 852 733 852 643 852 c 0,32,33
 524 852 524 852 447.5 757 c 128,-1,34
 371 662 371 662 371 541 c 2,35,-1
 371 137 l 2,36,37
 371 94 371 94 416 83 c 128,-1,38
 461 72 461 72 530 72 c 1,39,-1
 530 0 l 1,40,-1
 61 0 l 1,0,-1
EndSplineSet
EndChar

StartChar: u
Encoding: 117 117 90
Width: 1137
Flags: W
LayerCount: 2
Fore
SplineSet
221 244 m 2,0,-1
 221 696 l 2,1,2
 221 751 221 751 204.5 775.5 c 128,-1,3
 188 800 188 800 157 805.5 c 128,-1,4
 126 811 126 811 61 811 c 1,5,-1
 61 883 l 1,6,-1
 371 905 l 1,7,-1
 371 244 l 2,8,9
 371 164 371 164 382.5 119.5 c 128,-1,10
 394 75 394 75 431.5 53 c 128,-1,11
 469 31 469 31 551 31 c 0,12,13
 661 31 661 31 726 123 c 128,-1,14
 791 215 791 215 791 332 c 2,15,-1
 791 696 l 2,16,17
 791 751 791 751 774 775.5 c 128,-1,18
 757 800 757 800 726.5 805.5 c 128,-1,19
 696 811 696 811 631 811 c 1,20,-1
 631 883 l 1,21,-1
 940 905 l 1,22,-1
 940 186 l 2,23,24
 940 132 940 132 956.5 107.5 c 128,-1,25
 973 83 973 83 1004 77.5 c 128,-1,26
 1035 72 1035 72 1100 72 c 1,27,-1
 1100 0 l 1,28,-1
 797 -23 l 1,29,-1
 797 150 l 1,30,31
 759 73 759 73 691 25 c 128,-1,32
 623 -23 623 -23 541 -23 c 0,33,34
 394 -23 394 -23 307.5 39.5 c 128,-1,35
 221 102 221 102 221 244 c 2,0,-1
EndSplineSet
EndChar

StartChar: Adieresis
Encoding: 196 196 91
Width: 1024
Flags: W
LayerCount: 2
Fore
SplineSet
207 1264 m 0,0,1
 207 1307 207 1307 237.5 1338.5 c 128,-1,2
 268 1370 268 1370 313 1370 c 256,3,4
 358 1370 358 1370 389 1339 c 128,-1,5
 420 1308 420 1308 420 1264 c 0,6,7
 420 1219 420 1219 389 1188 c 128,-1,8
 358 1157 358 1157 313 1157 c 256,9,10
 268 1157 268 1157 237.5 1188.5 c 128,-1,11
 207 1220 207 1220 207 1264 c 0,0,1
602 1264 m 0,12,13
 602 1307 602 1307 632.5 1338.5 c 128,-1,14
 663 1370 663 1370 709 1370 c 0,15,16
 753 1370 753 1370 784 1339 c 128,-1,17
 815 1308 815 1308 815 1264 c 0,18,19
 815 1219 815 1219 784 1188 c 128,-1,20
 753 1157 753 1157 709 1157 c 0,21,22
 663 1157 663 1157 632.5 1188.5 c 128,-1,23
 602 1220 602 1220 602 1264 c 0,12,13
EndSplineSet
EndChar

StartChar: slash
Encoding: 47 47 92
Width: 1024
Flags: W
LayerCount: 2
Fore
SplineSet
115 -471 m 0,0,1
 115 -465 115 -465 117 -463 c 1,2,-1
 829 1511 l 2,3,4
 833 1523 833 1523 843 1529.5 c 128,-1,5
 853 1536 853 1536 866 1536 c 0,6,7
 884 1536 884 1536 895.5 1525 c 128,-1,8
 907 1514 907 1514 907 1495 c 2,9,-1
 907 1487 l 1,10,-1
 195 -487 l 1,11,12
 183 -512 183 -512 156 -512 c 0,13,14
 139 -512 139 -512 127 -500 c 128,-1,15
 115 -488 115 -488 115 -471 c 0,0,1
EndSplineSet
EndChar

StartChar: C
Encoding: 67 67 93
Width: 1479
Flags: W
LayerCount: 2
Fore
SplineSet
467 219 m 0,0,1
 537 130 537 130 642 78.5 c 128,-1,2
 747 27 747 27 860 27 c 0,3,4
 955 27 955 27 1036 64.5 c 128,-1,5
 1117 102 1117 102 1177.5 169 c 128,-1,6
 1238 236 1238 236 1270.5 321 c 128,-1,7
 1303 406 1303 406 1303 500 c 0,8,9
 1303 516 1303 516 1321 516 c 2,10,-1
 1346 516 l 2,11,12
 1362 516 1362 516 1362 496 c 0,13,14
 1362 389 1362 389 1321 289.5 c 128,-1,15
 1280 190 1280 190 1205 114.5 c 128,-1,16
 1130 39 1130 39 1032.5 -3 c 128,-1,17
 935 -45 935 -45 829 -45 c 0,18,19
 682 -45 682 -45 550.5 14.5 c 128,-1,20
 419 74 419 74 321.5 177.5 c 128,-1,21
 224 281 224 281 169.5 417 c 128,-1,22
 115 553 115 553 115 700 c 256,23,24
 115 847 115 847 169.5 983 c 128,-1,25
 224 1119 224 1119 321.5 1223 c 128,-1,26
 419 1327 419 1327 550.5 1385.5 c 128,-1,27
 682 1444 682 1444 829 1444 c 0,28,29
 934 1444 934 1444 1030 1398.5 c 128,-1,30
 1126 1353 1126 1353 1198 1270 c 1,31,-1
 1317 1438 l 1,32,33
 1329 1444 1329 1444 1331 1444 c 2,34,-1
 1346 1444 l 2,35,36
 1352 1444 1352 1444 1357 1439 c 128,-1,37
 1362 1434 1362 1434 1362 1427 c 2,38,-1
 1362 874 l 2,39,40
 1362 856 1362 856 1346 856 c 2,41,-1
 1309 856 l 2,42,43
 1290 856 1290 856 1290 874 c 0,44,45
 1290 933 1290 933 1266.5 1006 c 128,-1,46
 1243 1079 1243 1079 1206.5 1144.5 c 128,-1,47
 1170 1210 1170 1210 1122 1260 c 1,48,49
 1007 1372 1007 1372 858 1372 c 0,50,51
 745 1372 745 1372 641.5 1321 c 128,-1,52
 538 1270 538 1270 467 1180 c 0,53,54
 392 1084 392 1084 363 961.5 c 128,-1,55
 334 839 334 839 334 700 c 256,56,57
 334 561 334 561 363 438 c 128,-1,58
 392 315 392 315 467 219 c 0,0,1
EndSplineSet
EndChar

StartChar: plusminus
Encoding: 177 177 94
Width: 1706
Flags: W
LayerCount: 2
Fore
SplineSet
53 0 m 1,0,-1
 53 72 l 1,1,2
 123 72 123 72 168 83 c 128,-1,3
 213 94 213 94 213 137 c 2,4,-1
 213 811 l 1,5,-1
 55 811 l 1,6,-1
 55 883 l 1,7,-1
 213 883 l 1,8,-1
 213 1128 l 2,9,10
 213 1205 213 1205 256.5 1265.5 c 128,-1,11
 300 1326 300 1326 367.5 1365 c 128,-1,12
 435 1404 435 1404 514 1424 c 128,-1,13
 593 1444 593 1444 666 1444 c 0,14,15
 735 1444 735 1444 796.5 1414 c 128,-1,16
 858 1384 858 1384 887 1331 c 1,17,18
 1023 1444 1023 1444 1237 1444 c 0,19,20
 1297 1444 1297 1444 1355.5 1418.5 c 128,-1,21
 1414 1393 1414 1393 1451.5 1344.5 c 128,-1,22
 1489 1296 1489 1296 1489 1233 c 0,23,24
 1489 1193 1489 1193 1460 1164 c 128,-1,25
 1431 1135 1431 1135 1391 1135 c 0,26,27
 1348 1135 1348 1135 1320 1163 c 128,-1,28
 1292 1191 1292 1191 1292 1233 c 0,29,30
 1292 1272 1292 1272 1319 1301.5 c 128,-1,31
 1346 1331 1346 1331 1384 1331 c 1,32,33
 1321 1391 1321 1391 1221 1391 c 0,34,35
 1147 1391 1147 1391 1076 1357 c 128,-1,36
 1005 1323 1005 1323 961.5 1261.5 c 128,-1,37
 918 1200 918 1200 918 1124 c 2,38,-1
 918 883 l 1,39,-1
 1188 883 l 1,40,-1
 1491 909 l 1,41,-1
 1491 137 l 2,42,43
 1491 94 1491 94 1536 83 c 128,-1,44
 1581 72 1581 72 1651 72 c 1,45,-1
 1651 0 l 1,46,-1
 1188 0 l 1,47,-1
 1188 72 l 1,48,49
 1258 72 1258 72 1303 83 c 128,-1,50
 1348 94 1348 94 1348 137 c 2,51,-1
 1348 700 l 2,52,53
 1348 758 1348 758 1334.5 781.5 c 128,-1,54
 1321 805 1321 805 1268 811 c 1,55,-1
 924 811 l 1,56,-1
 924 137 l 2,57,58
 924 94 924 94 969 83 c 128,-1,59
 1014 72 1014 72 1083 72 c 1,60,-1
 1083 0 l 1,61,-1
 621 0 l 1,62,-1
 621 72 l 1,63,64
 690 72 690 72 735 83 c 128,-1,65
 780 94 780 94 780 137 c 2,66,-1
 780 811 l 1,67,-1
 356 811 l 1,68,-1
 356 137 l 2,69,70
 356 94 356 94 401.5 83 c 128,-1,71
 447 72 447 72 516 72 c 1,72,-1
 516 0 l 1,73,-1
 53 0 l 1,0,-1
350 883 m 1,74,-1
 780 883 l 1,75,-1
 780 1128 l 1,76,-1
 780 1141 l 1,77,78
 751 1152 751 1152 735 1177.5 c 128,-1,79
 719 1203 719 1203 719 1233 c 0,80,81
 719 1273 719 1273 745.5 1302 c 128,-1,82
 772 1331 772 1331 811 1331 c 1,83,84
 748 1391 748 1391 649 1391 c 0,85,86
 574 1391 574 1391 504.5 1356.5 c 128,-1,87
 435 1322 435 1322 392.5 1260.5 c 128,-1,88
 350 1199 350 1199 350 1124 c 2,89,-1
 350 883 l 1,74,-1
EndSplineSet
EndChar

StartChar: P
Encoding: 80 80 95
Width: 1393
Flags: W
LayerCount: 2
Fore
SplineSet
68 0 m 1,0,-1
 68 72 l 1,1,2
 279 72 279 72 279 137 c 2,3,-1
 279 1262 l 2,4,5
 279 1327 279 1327 68 1327 c 1,6,-1
 68 1399 l 1,7,-1
 797 1399 l 2,8,9
 909 1399 909 1399 1021 1353 c 128,-1,10
 1133 1307 1133 1307 1205.5 1219 c 128,-1,11
 1278 1131 1278 1131 1278 1014 c 0,12,13
 1278 900 1278 900 1205 814 c 128,-1,14
 1132 728 1132 728 1021 683.5 c 128,-1,15
 910 639 910 639 797 639 c 2,16,-1
 469 639 l 1,17,-1
 469 137 l 2,18,19
 469 72 469 72 680 72 c 1,20,-1
 680 0 l 1,21,-1
 68 0 l 1,0,-1
463 700 m 1,22,-1
 741 700 l 2,23,24
 854 700 854 700 924 732.5 c 128,-1,25
 994 765 994 765 1026.5 833.5 c 128,-1,26
 1059 902 1059 902 1059 1014 c 0,27,28
 1059 1181 1059 1181 985.5 1254 c 128,-1,29
 912 1327 912 1327 741 1327 c 2,30,-1
 567 1327 l 2,31,32
 530 1327 530 1327 509.5 1324 c 128,-1,33
 489 1321 489 1321 476 1306.5 c 128,-1,34
 463 1292 463 1292 463 1262 c 2,35,-1
 463 700 l 1,22,-1
EndSplineSet
EndChar

StartChar: j
Encoding: 106 106 96
Width: 625
Flags: W
LayerCount: 2
Fore
SplineSet
41 -344 m 1,0,1
 88 -367 88 -367 147 -367 c 0,2,3
 228 -367 228 -367 259.5 -284.5 c 128,-1,4
 291 -202 291 -202 291 -106 c 2,5,-1
 291 696 l 2,6,7
 291 751 291 751 271 775.5 c 128,-1,8
 251 800 251 800 216.5 805.5 c 128,-1,9
 182 811 182 811 115 811 c 1,10,-1
 115 883 l 1,11,-1
 434 905 l 1,12,-1
 434 -115 l 2,13,14
 434 -194 434 -194 395 -264.5 c 128,-1,15
 356 -335 356 -335 289 -377.5 c 128,-1,16
 222 -420 222 -420 143 -420 c 0,17,18
 54 -420 54 -420 -18 -376 c 128,-1,19
 -90 -332 -90 -332 -90 -252 c 0,20,21
 -90 -212 -90 -212 -61 -183 c 128,-1,22
 -32 -154 -32 -154 8 -154 c 256,23,24
 48 -154 48 -154 77 -183 c 128,-1,25
 106 -212 106 -212 106 -252 c 0,26,27
 106 -283 106 -283 88.5 -309 c 128,-1,28
 71 -335 71 -335 41 -344 c 1,0,1
209 1257 m 0,29,30
 209 1302 209 1302 243 1336 c 128,-1,31
 277 1370 277 1370 322 1370 c 0,32,33
 350 1370 350 1370 377 1355 c 128,-1,34
 404 1340 404 1340 419 1313 c 128,-1,35
 434 1286 434 1286 434 1257 c 0,36,37
 434 1213 434 1213 401 1179 c 128,-1,38
 368 1145 368 1145 322 1145 c 0,39,40
 277 1145 277 1145 243 1179 c 128,-1,41
 209 1213 209 1213 209 1257 c 0,29,30
EndSplineSet
EndChar

StartChar: guillemotright
Encoding: 187 187 97
Width: 909
Flags: W
LayerCount: 2
Fore
SplineSet
264 -420 m 1,0,-1
 264 -367 l 1,1,2
 338 -367 338 -367 409.5 -361.5 c 128,-1,3
 481 -356 481 -356 543.5 -330.5 c 128,-1,4
 606 -305 606 -305 606 -256 c 0,5,6
 606 -199 606 -199 552.5 -172 c 128,-1,7
 499 -145 499 -145 436 -145 c 1,8,-1
 436 -45 l 1,9,-1
 586 -45 l 1,10,-1
 586 -104 l 1,11,12
 756 -140 756 -140 756 -256 c 0,13,14
 756 -362 756 -362 602 -391 c 128,-1,15
 448 -420 448 -420 264 -420 c 1,0,-1
EndSplineSet
EndChar

StartChar: w
Encoding: 119 119 98
Width: 1479
Flags: W
LayerCount: 2
Fore
SplineSet
453 0 m 1,0,-1
 188 745 l 1,1,2
 170 790 170 790 136 800.5 c 128,-1,3
 102 811 102 811 37 811 c 1,4,-1
 37 883 l 1,5,-1
 459 883 l 1,6,-1
 459 811 l 1,7,8
 338 811 338 811 338 760 c 1,9,10
 339 757 339 757 339.5 754 c 128,-1,11
 340 751 340 751 340 745 c 1,12,-1
 537 193 l 1,13,-1
 707 674 l 1,14,-1
 680 745 l 1,15,16
 664 790 664 790 629 800.5 c 128,-1,17
 594 811 594 811 530 811 c 1,18,-1
 530 883 l 1,19,-1
 934 883 l 1,20,-1
 934 811 l 1,21,22
 813 811 813 811 813 760 c 0,23,24
 813 752 813 752 815 745 c 2,25,-1
 1020 168 l 1,26,-1
 1206 690 l 1,27,28
 1210 706 1210 706 1210 719 c 0,29,30
 1210 762 1210 762 1173.5 786.5 c 128,-1,31
 1137 811 1137 811 1092 811 c 1,32,-1
 1092 883 l 1,33,-1
 1440 883 l 1,34,-1
 1440 811 l 1,35,36
 1378 811 1378 811 1333.5 778.5 c 128,-1,37
 1289 746 1289 746 1268 690 c 1,38,-1
 1024 0 l 1,39,40
 1017 -23 1017 -23 993 -23 c 2,41,-1
 977 -23 l 2,42,43
 953 -23 953 -23 946 0 c 1,44,-1
 739 584 l 1,45,-1
 532 0 l 1,46,47
 522 -23 522 -23 500 -23 c 2,48,-1
 485 -23 l 2,49,50
 460 -23 460 -23 453 0 c 1,0,-1
EndSplineSet
EndChar

StartChar: dollar
Encoding: 36 36 99
Width: 1024
Flags: W
LayerCount: 2
Fore
SplineSet
475 -115 m 1,0,-1
 475 -20 l 1,1,2
 366 -20 366 -20 284.5 34 c 128,-1,3
 203 88 203 88 159 179.5 c 128,-1,4
 115 271 115 271 115 377 c 0,5,6
 115 417 115 417 144 446 c 128,-1,7
 173 475 173 475 213 475 c 256,8,9
 253 475 253 475 282 446 c 128,-1,10
 311 417 311 417 311 377 c 256,11,12
 311 337 311 337 282 308 c 128,-1,13
 253 279 253 279 213 279 c 2,14,-1
 211 279 l 2,15,16
 197 279 197 279 190 281 c 0,17,18
 188 282 188 282 186.5 282.5 c 128,-1,19
 185 283 185 283 184 283 c 1,20,21
 198 218 198 218 241.5 164 c 128,-1,22
 285 110 285 110 347 80.5 c 128,-1,23
 409 51 409 51 475 51 c 1,24,-1
 475 649 l 1,25,26
 415 666 415 666 389.5 674 c 128,-1,27
 364 682 364 682 336.5 695 c 128,-1,28
 309 708 309 708 283.5 725 c 128,-1,29
 258 742 258 742 229 770 c 1,30,31
 115 886 115 886 115 1047 c 2,32,-1
 115 1049 l 1,33,-1
 115 1051 l 2,34,35
 115 1126 115 1126 145 1197.5 c 128,-1,36
 175 1269 175 1269 229 1327 c 1,37,38
 272 1370 272 1370 343 1406 c 128,-1,39
 414 1442 414 1442 475 1442 c 1,40,-1
 475 1536 l 1,41,-1
 547 1536 l 1,42,-1
 547 1444 l 1,43,44
 649 1444 649 1444 732 1395.5 c 128,-1,45
 815 1347 815 1347 861 1262.5 c 128,-1,46
 907 1178 907 1178 907 1073 c 0,47,48
 907 1033 907 1033 878 1004 c 128,-1,49
 849 975 849 975 809 975 c 256,50,51
 769 975 769 975 740 1004 c 128,-1,52
 711 1033 711 1033 711 1073 c 256,53,54
 711 1113 711 1113 740 1142 c 128,-1,55
 769 1171 769 1171 809 1171 c 2,56,-1
 811 1171 l 2,57,58
 825 1171 825 1171 831 1169 c 1,59,-1
 836 1169 l 1,60,61
 818 1230 818 1230 774 1275 c 128,-1,62
 730 1320 730 1320 669.5 1345 c 128,-1,63
 609 1370 609 1370 547 1370 c 1,64,-1
 547 827 l 1,65,66
 631 808 631 808 684 783.5 c 128,-1,67
 737 759 737 759 784 711 c 0,68,69
 844 651 844 651 875.5 570.5 c 128,-1,70
 907 490 907 490 907 403 c 2,71,-1
 907 399 l 2,72,73
 907 317 907 317 877.5 239 c 128,-1,74
 848 161 848 161 793 102 c 1,75,76
 743 52 743 52 674.5 16 c 128,-1,77
 606 -20 606 -20 547 -20 c 1,78,-1
 547 -115 l 1,79,-1
 475 -115 l 1,0,-1
547 51 m 1,80,81
 616 60 616 60 673.5 102.5 c 128,-1,82
 731 145 731 145 763 209 c 128,-1,83
 795 273 795 273 795 340 c 0,84,85
 795 419 795 419 764 477.5 c 128,-1,86
 733 536 733 536 677.5 575 c 128,-1,87
 622 614 622 614 547 633 c 1,88,-1
 547 51 l 1,80,81
475 846 m 1,89,-1
 475 1370 l 1,90,91
 412 1363 412 1363 353.5 1326.5 c 128,-1,92
 295 1290 295 1290 261 1233.5 c 128,-1,93
 227 1177 227 1177 227 1110 c 0,94,95
 227 911 227 911 475 846 c 1,89,-1
EndSplineSet
EndChar

StartChar: one
Encoding: 49 49 100
Width: 1024
Flags: W
LayerCount: 2
Fore
SplineSet
190 0 m 1,0,-1
 190 72 l 1,1,2
 446 72 446 72 446 137 c 2,3,-1
 446 1212 l 1,4,5
 340 1161 340 1161 178 1161 c 1,6,-1
 178 1233 l 1,7,8
 429 1233 429 1233 557 1364 c 1,9,-1
 586 1364 l 2,10,11
 593 1364 593 1364 599.5 1358.5 c 128,-1,12
 606 1353 606 1353 606 1346 c 2,13,-1
 606 137 l 2,14,15
 606 72 606 72 862 72 c 1,16,-1
 862 0 l 1,17,-1
 190 0 l 1,0,-1
EndSplineSet
EndChar

StartChar: E
Encoding: 69 69 101
Width: 1393
Flags: W
LayerCount: 2
Fore
SplineSet
63 0 m 1,0,-1
 63 72 l 1,1,2
 274 72 274 72 274 137 c 2,3,-1
 274 1262 l 2,4,5
 274 1327 274 1327 63 1327 c 1,6,-1
 63 1399 l 1,7,-1
 1221 1399 l 1,8,-1
 1278 930 l 1,9,-1
 1219 930 l 1,10,11
 1197 1107 1197 1107 1157.5 1187 c 128,-1,12
 1118 1267 1118 1267 1031 1297 c 128,-1,13
 944 1327 944 1327 770 1327 c 2,14,-1
 569 1327 l 2,15,16
 532 1327 532 1327 511.5 1324 c 128,-1,17
 491 1321 491 1321 478 1306.5 c 128,-1,18
 465 1292 465 1292 465 1262 c 2,19,-1
 465 762 l 1,20,-1
 616 762 l 2,21,22
 720 762 720 762 771.5 779.5 c 128,-1,23
 823 797 823 797 842.5 846.5 c 128,-1,24
 862 896 862 896 862 1001 c 1,25,-1
 922 1001 l 1,26,-1
 922 451 l 1,27,-1
 862 451 l 1,28,29
 862 555 862 555 842.5 605 c 128,-1,30
 823 655 823 655 771.5 672.5 c 128,-1,31
 720 690 720 690 616 690 c 2,32,-1
 465 690 l 1,33,-1
 465 137 l 2,34,35
 465 93 465 93 490 82.5 c 128,-1,36
 515 72 515 72 569 72 c 2,37,-1
 786 72 l 2,38,39
 928 72 928 72 1015.5 94.5 c 128,-1,40
 1103 117 1103 117 1151.5 169.5 c 128,-1,41
 1200 222 1200 222 1226.5 305.5 c 128,-1,42
 1253 389 1253 389 1276 537 c 1,43,-1
 1335 537 l 1,44,-1
 1249 0 l 1,45,-1
 63 0 l 1,0,-1
EndSplineSet
EndChar

StartChar: acute
Encoding: 180 180 102
Width: 625
Flags: W
LayerCount: 2
Fore
SplineSet
41 -344 m 1,0,1
 88 -367 88 -367 147 -367 c 0,2,3
 228 -367 228 -367 259.5 -284.5 c 128,-1,4
 291 -202 291 -202 291 -106 c 2,5,-1
 291 696 l 2,6,7
 291 751 291 751 271 775.5 c 128,-1,8
 251 800 251 800 216.5 805.5 c 128,-1,9
 182 811 182 811 115 811 c 1,10,-1
 115 883 l 1,11,-1
 434 905 l 1,12,-1
 434 -115 l 2,13,14
 434 -194 434 -194 395 -264.5 c 128,-1,15
 356 -335 356 -335 289 -377.5 c 128,-1,16
 222 -420 222 -420 143 -420 c 0,17,18
 54 -420 54 -420 -18 -376 c 128,-1,19
 -90 -332 -90 -332 -90 -252 c 0,20,21
 -90 -212 -90 -212 -61 -183 c 128,-1,22
 -32 -154 -32 -154 8 -154 c 256,23,24
 48 -154 48 -154 77 -183 c 128,-1,25
 106 -212 106 -212 106 -252 c 0,26,27
 106 -283 106 -283 88.5 -309 c 128,-1,28
 71 -335 71 -335 41 -344 c 1,0,1
EndSplineSet
EndChar

StartChar: less
Encoding: 60 60 103
Width: 567
Flags: W
LayerCount: 2
Fore
SplineSet
172 -340 m 2,0,-1
 172 -328 l 1,1,-1
 256 616 l 2,2,3
 256 622 256 622 260.5 628.5 c 128,-1,4
 265 635 265 635 272 635 c 2,5,-1
 297 635 l 2,6,7
 304 635 304 635 309.5 629 c 128,-1,8
 315 623 315 623 315 616 c 2,9,-1
 397 -328 l 1,10,-1
 397 -340 l 2,11,12
 397 -383 397 -383 363.5 -412.5 c 128,-1,13
 330 -442 330 -442 285 -442 c 0,14,15
 241 -442 241 -442 206.5 -412.5 c 128,-1,16
 172 -383 172 -383 172 -340 c 2,0,-1
172 911 m 0,17,18
 172 956 172 956 206 990 c 128,-1,19
 240 1024 240 1024 285 1024 c 0,20,21
 313 1024 313 1024 340 1009 c 128,-1,22
 367 994 367 994 382 967 c 128,-1,23
 397 940 397 940 397 911 c 0,24,25
 397 867 397 867 364 833 c 128,-1,26
 331 799 331 799 285 799 c 0,27,28
 240 799 240 799 206 833 c 128,-1,29
 172 867 172 867 172 911 c 0,17,18
EndSplineSet
EndChar

StartChar: macron
Encoding: 175 175 104
Width: 1137
Flags: W
LayerCount: 2
Fore
SplineSet
53 0 m 1,0,-1
 53 72 l 1,1,2
 123 72 123 72 168 83 c 128,-1,3
 213 94 213 94 213 137 c 2,4,-1
 213 811 l 1,5,-1
 55 811 l 1,6,-1
 55 883 l 1,7,-1
 213 883 l 1,8,-1
 213 1128 l 2,9,10
 213 1207 213 1207 256.5 1266.5 c 128,-1,11
 300 1326 300 1326 369.5 1365.5 c 128,-1,12
 439 1405 439 1405 518.5 1424.5 c 128,-1,13
 598 1444 598 1444 670 1444 c 0,14,15
 729 1444 729 1444 788.5 1418 c 128,-1,16
 848 1392 848 1392 885 1344 c 128,-1,17
 922 1296 922 1296 922 1233 c 0,18,19
 922 1192 922 1192 893.5 1163.5 c 128,-1,20
 865 1135 865 1135 823 1135 c 256,21,22
 781 1135 781 1135 753 1163 c 128,-1,23
 725 1191 725 1191 725 1233 c 0,24,25
 725 1272 725 1272 752 1301.5 c 128,-1,26
 779 1331 779 1331 817 1331 c 1,27,28
 754 1391 754 1391 653 1391 c 0,29,30
 580 1391 580 1391 509 1357 c 128,-1,31
 438 1323 438 1323 394 1261.5 c 128,-1,32
 350 1200 350 1200 350 1124 c 2,33,-1
 350 883 l 1,34,-1
 621 883 l 1,35,-1
 924 909 l 1,36,-1
 924 137 l 2,37,38
 924 94 924 94 969 83 c 128,-1,39
 1014 72 1014 72 1083 72 c 1,40,-1
 1083 0 l 1,41,-1
 621 0 l 1,42,-1
 621 72 l 1,43,44
 690 72 690 72 735 83 c 128,-1,45
 780 94 780 94 780 137 c 2,46,-1
 780 700 l 2,47,48
 780 742 780 742 775 762 c 128,-1,49
 770 782 770 782 754.5 794 c 128,-1,50
 739 806 739 806 700 811 c 1,51,-1
 356 811 l 1,52,-1
 356 137 l 2,53,54
 356 94 356 94 401.5 83 c 128,-1,55
 447 72 447 72 516 72 c 1,56,-1
 516 0 l 1,57,-1
 53 0 l 1,0,-1
EndSplineSet
EndChar

StartChar: R
Encoding: 82 82 105
Width: 1507
Flags: W
LayerCount: 2
Fore
SplineSet
68 0 m 1,0,-1
 68 72 l 1,1,2
 279 72 279 72 279 137 c 2,3,-1
 279 1262 l 2,4,5
 279 1327 279 1327 68 1327 c 1,6,-1
 68 1399 l 1,7,-1
 711 1399 l 2,8,9
 826 1399 826 1399 952.5 1357.5 c 128,-1,10
 1079 1316 1079 1316 1164 1231 c 128,-1,11
 1249 1146 1249 1146 1249 1028 c 0,12,13
 1249 942 1249 942 1197.5 874.5 c 128,-1,14
 1146 807 1146 807 1065.5 761.5 c 128,-1,15
 985 716 985 716 901 696 c 1,16,17
 993 664 993 664 1062 594 c 128,-1,18
 1131 524 1131 524 1145 434 c 2,19,-1
 1174 252 l 2,20,21
 1194 129 1194 129 1216 68.5 c 128,-1,22
 1238 8 1238 8 1313 8 c 0,23,24
 1377 8 1377 8 1408.5 67.5 c 128,-1,25
 1440 127 1440 127 1440 197 c 0,26,27
 1440 204 1440 204 1446.5 209.5 c 128,-1,28
 1453 215 1453 215 1460 215 c 2,29,-1
 1479 215 l 2,30,31
 1499 215 1499 215 1499 188 c 0,32,33
 1499 132 1499 132 1477 78.5 c 128,-1,34
 1455 25 1455 25 1413.5 -10 c 128,-1,35
 1372 -45 1372 -45 1315 -45 c 0,36,37
 1167 -45 1167 -45 1060.5 28.5 c 128,-1,38
 954 102 954 102 954 244 c 2,39,-1
 954 426 l 2,40,41
 954 528 954 528 883 601 c 128,-1,42
 812 674 812 674 709 674 c 2,43,-1
 463 674 l 1,44,-1
 463 137 l 2,45,46
 463 72 463 72 674 72 c 1,47,-1
 674 0 l 1,48,-1
 68 0 l 1,0,-1
463 727 m 1,49,-1
 682 727 l 2,50,51
 852 727 852 727 941 795.5 c 128,-1,52
 1030 864 1030 864 1030 1028 c 0,53,54
 1030 1191 1030 1191 942 1259 c 128,-1,55
 854 1327 854 1327 682 1327 c 2,56,-1
 567 1327 l 2,57,58
 530 1327 530 1327 509.5 1324 c 128,-1,59
 489 1321 489 1321 476 1306.5 c 128,-1,60
 463 1292 463 1292 463 1262 c 2,61,-1
 463 727 l 1,49,-1
EndSplineSet
EndChar

StartChar: l
Encoding: 108 108 106
Width: 567
Flags: W
LayerCount: 2
Fore
SplineSet
63 0 m 1,0,-1
 63 72 l 1,1,2
 133 72 133 72 178 83 c 128,-1,3
 223 94 223 94 223 137 c 2,4,-1
 223 1212 l 2,5,6
 223 1267 223 1267 206.5 1291.5 c 128,-1,7
 190 1316 190 1316 159 1321.5 c 128,-1,8
 128 1327 128 1327 63 1327 c 1,9,-1
 63 1399 l 1,10,-1
 367 1421 l 1,11,-1
 367 137 l 2,12,13
 367 94 367 94 412 83 c 128,-1,14
 457 72 457 72 526 72 c 1,15,-1
 526 0 l 1,16,-1
 63 0 l 1,0,-1
EndSplineSet
EndChar

StartChar: y
Encoding: 121 121 107
Width: 1079
Flags: W
LayerCount: 2
Fore
SplineSet
141 -336 m 1,0,1
 180 -367 180 -367 227 -367 c 0,2,3
 356 -367 356 -367 438 -172 c 1,4,-1
 508 0 l 1,5,-1
 201 752 l 1,6,7
 182 790 182 790 143 800.5 c 128,-1,8
 104 811 104 811 39 811 c 1,9,-1
 39 883 l 1,10,-1
 469 883 l 1,11,-1
 469 811 l 1,12,13
 356 811 356 811 356 762 c 0,14,15
 356 754 356 754 358 750 c 2,16,-1
 586 190 l 1,17,-1
 791 694 l 2,18,19
 797 710 797 710 797 729 c 0,20,21
 797 754 797 754 783.5 772.5 c 128,-1,22
 770 791 770 791 748.5 801 c 128,-1,23
 727 811 727 811 700 811 c 1,24,-1
 700 883 l 1,25,-1
 1040 883 l 1,26,-1
 1040 811 l 1,27,28
 977 811 977 811 929.5 782 c 128,-1,29
 882 753 882 753 856 696 c 1,30,-1
 502 -172 l 1,31,32
 474 -238 474 -238 436.5 -293.5 c 128,-1,33
 399 -349 399 -349 345 -384.5 c 128,-1,34
 291 -420 291 -420 227 -420 c 0,35,36
 152 -420 152 -420 95.5 -370.5 c 128,-1,37
 39 -321 39 -321 39 -248 c 0,38,39
 39 -210 39 -210 65 -184 c 128,-1,40
 91 -158 91 -158 129 -158 c 0,41,42
 155 -158 155 -158 175.5 -169.5 c 128,-1,43
 196 -181 196 -181 207.5 -201 c 128,-1,44
 219 -221 219 -221 219 -248 c 0,45,46
 219 -281 219 -281 197 -307 c 128,-1,47
 175 -333 175 -333 141 -336 c 1,0,1
EndSplineSet
EndChar

StartChar: ampersand
Encoding: 38 38 109
Width: 1591
Flags: W
LayerCount: 2
Fore
SplineSet
86 266 m 0,0,1
 86 381 86 381 168 463 c 1,2,-1
 412 717 l 1,3,4
 373 819 373 819 351.5 926.5 c 128,-1,5
 330 1034 330 1034 330 1139 c 0,6,7
 330 1220 330 1220 365.5 1295.5 c 128,-1,8
 401 1371 401 1371 466.5 1418.5 c 128,-1,9
 532 1466 532 1466 618 1466 c 0,10,11
 712 1466 712 1466 755.5 1380 c 128,-1,12
 799 1294 799 1294 799 1190 c 0,13,14
 799 1099 799 1099 729.5 1002 c 128,-1,15
 660 905 660 905 547 782 c 1,16,17
 576 711 576 711 609 648 c 128,-1,18
 642 585 642 585 684.5 518 c 128,-1,19
 727 451 727 451 777.5 382 c 128,-1,20
 828 313 828 313 879 248 c 1,21,22
 940 320 940 320 985.5 390.5 c 128,-1,23
 1031 461 1031 461 1114 600 c 1,24,-1
 1165 690 l 1,25,26
 1176 702 1176 702 1176 725 c 0,27,28
 1176 773 1176 773 1132 792 c 128,-1,29
 1088 811 1088 811 1032 811 c 1,30,-1
 1032 883 l 1,31,-1
 1489 883 l 1,32,-1
 1489 811 l 1,33,34
 1304 811 1304 811 1233 690 c 2,35,-1
 1167 578 l 1,36,37
 1099 460 1099 460 1042.5 372.5 c 128,-1,38
 986 285 986 285 918 205 c 1,39,40
 985 128 985 128 1052.5 77.5 c 128,-1,41
 1120 27 1120 27 1194 27 c 0,42,43
 1253 27 1253 27 1304.5 57 c 128,-1,44
 1356 87 1356 87 1386.5 137.5 c 128,-1,45
 1417 188 1417 188 1417 248 c 1,46,-1
 1477 248 l 1,47,48
 1477 172 1477 172 1439 104 c 128,-1,49
 1401 36 1401 36 1336 -4.5 c 128,-1,50
 1271 -45 1271 -45 1194 -45 c 0,51,52
 996 -45 996 -45 827 111 c 1,53,54
 656 -45 656 -45 455 -45 c 0,55,56
 365 -45 365 -45 279 -7 c 128,-1,57
 193 31 193 31 139.5 102.5 c 128,-1,58
 86 174 86 174 86 266 c 0,0,1
473 27 m 0,59,60
 641 27 641 27 782 152 c 1,61,62
 681 257 681 257 587 395 c 128,-1,63
 493 533 493 533 434 664 c 1,64,-1
 352 580 l 1,65,66
 264 488 264 488 264 330 c 0,67,68
 264 261 264 261 286 191.5 c 128,-1,69
 308 122 308 122 355.5 74.5 c 128,-1,70
 403 27 403 27 473 27 c 0,59,60
526 838 m 1,71,72
 619 941 619 941 679 1027 c 128,-1,73
 739 1113 739 1113 739 1192 c 0,74,75
 739 1241 739 1241 729 1290 c 128,-1,76
 719 1339 719 1339 691.5 1376 c 128,-1,77
 664 1413 664 1413 618 1413 c 0,78,79
 566 1413 566 1413 531.5 1377.5 c 128,-1,80
 497 1342 497 1342 481 1290.5 c 128,-1,81
 465 1239 465 1239 465 1190 c 0,82,83
 465 1013 465 1013 526 838 c 1,71,72
EndSplineSet
EndChar

StartChar: three
Encoding: 51 51 110
Width: 1024
Flags: W
LayerCount: 2
Fore
SplineSet
195 158 m 1,0,1
 243 88 243 88 324 54 c 128,-1,2
 405 20 405 20 498 20 c 0,3,4
 617 20 617 20 667 121.5 c 128,-1,5
 717 223 717 223 717 352 c 0,6,7
 717 410 717 410 706.5 468 c 128,-1,8
 696 526 696 526 671 576 c 128,-1,9
 646 626 646 626 602.5 656 c 128,-1,10
 559 686 559 686 496 686 c 2,11,-1
 360 686 l 2,12,13
 342 686 342 686 342 705 c 2,14,-1
 342 723 l 2,15,16
 342 739 342 739 360 739 c 1,17,-1
 473 748 l 1,18,19
 545 748 545 748 592.5 802 c 128,-1,20
 640 856 640 856 662 933.5 c 128,-1,21
 684 1011 684 1011 684 1081 c 0,22,23
 684 1179 684 1179 638 1242 c 128,-1,24
 592 1305 592 1305 498 1305 c 0,25,26
 420 1305 420 1305 349 1275.5 c 128,-1,27
 278 1246 278 1246 236 1186 c 1,28,29
 240 1187 240 1187 243 1187.5 c 128,-1,30
 246 1188 246 1188 250 1188 c 0,31,32
 296 1188 296 1188 327 1156 c 128,-1,33
 358 1124 358 1124 358 1079 c 0,34,35
 358 1035 358 1035 327 1003 c 128,-1,36
 296 971 296 971 250 971 c 0,37,38
 205 971 205 971 173 1003 c 128,-1,39
 141 1035 141 1035 141 1079 c 0,40,41
 141 1167 141 1167 194 1232 c 128,-1,42
 247 1297 247 1297 330.5 1330.5 c 128,-1,43
 414 1364 414 1364 498 1364 c 0,44,45
 560 1364 560 1364 629 1345.5 c 128,-1,46
 698 1327 698 1327 754 1292.5 c 128,-1,47
 810 1258 810 1258 845.5 1204 c 128,-1,48
 881 1150 881 1150 881 1081 c 0,49,50
 881 995 881 995 842.5 922 c 128,-1,51
 804 849 804 849 737 796 c 128,-1,52
 670 743 670 743 590 717 c 1,53,54
 679 700 679 700 759 650 c 128,-1,55
 839 600 839 600 887.5 522 c 128,-1,56
 936 444 936 444 936 354 c 0,57,58
 936 241 936 241 874 149.5 c 128,-1,59
 812 58 812 58 711 6.5 c 128,-1,60
 610 -45 610 -45 498 -45 c 0,61,62
 402 -45 402 -45 305.5 -8.5 c 128,-1,63
 209 28 209 28 147.5 101 c 128,-1,64
 86 174 86 174 86 276 c 0,65,66
 86 327 86 327 120 361 c 128,-1,67
 154 395 154 395 205 395 c 0,68,69
 238 395 238 395 265.5 379.5 c 128,-1,70
 293 364 293 364 308.5 336 c 128,-1,71
 324 308 324 308 324 276 c 0,72,73
 324 226 324 226 289 192 c 128,-1,74
 254 158 254 158 205 158 c 2,75,-1
 195 158 l 1,0,1
EndSplineSet
EndChar

StartChar: at
Encoding: 64 64 111
Width: 1591
Flags: W
LayerCount: 2
Fore
SplineSet
797 -23 m 0,0,1
 651 -23 651 -23 526.5 36.5 c 128,-1,2
 402 96 402 96 309 200.5 c 128,-1,3
 216 305 216 305 165.5 437.5 c 128,-1,4
 115 570 115 570 115 711 c 256,5,6
 115 852 115 852 165.5 984.5 c 128,-1,7
 216 1117 216 1117 309 1221.5 c 128,-1,8
 402 1326 402 1326 526.5 1385 c 128,-1,9
 651 1444 651 1444 797 1444 c 0,10,11
 942 1444 942 1444 1067 1385 c 128,-1,12
 1192 1326 1192 1326 1284.5 1221.5 c 128,-1,13
 1377 1117 1377 1117 1427 984.5 c 128,-1,14
 1477 852 1477 852 1477 711 c 0,15,16
 1477 523 1477 523 1439 391.5 c 128,-1,17
 1401 260 1401 260 1264 260 c 0,18,19
 1192 260 1192 260 1132 296 c 128,-1,20
 1072 332 1072 332 1057 397 c 1,21,22
 1009 335 1009 335 940.5 297.5 c 128,-1,23
 872 260 872 260 797 260 c 0,24,25
 679 260 679 260 586 323.5 c 128,-1,26
 493 387 493 387 440 492 c 128,-1,27
 387 597 387 597 387 711 c 0,28,29
 387 823 387 823 440 928.5 c 128,-1,30
 493 1034 493 1034 586 1097.5 c 128,-1,31
 679 1161 679 1161 797 1161 c 0,32,33
 884 1161 884 1161 961 1112 c 128,-1,34
 1038 1063 1038 1063 1085 985 c 1,35,-1
 1188 985 l 2,36,37
 1194 985 1194 985 1199 979.5 c 128,-1,38
 1204 974 1204 974 1204 967 c 2,39,-1
 1204 430 l 2,40,41
 1204 388 1204 388 1219 350.5 c 128,-1,42
 1234 313 1234 313 1270 313 c 0,43,44
 1364 313 1364 313 1390.5 434 c 128,-1,45
 1417 555 1417 555 1417 709 c 0,46,47
 1417 837 1417 837 1371 962.5 c 128,-1,48
 1325 1088 1325 1088 1243.5 1183.5 c 128,-1,49
 1162 1279 1162 1279 1045.5 1335 c 128,-1,50
 929 1391 929 1391 797 1391 c 256,51,52
 665 1391 665 1391 548.5 1334.5 c 128,-1,53
 432 1278 432 1278 349.5 1183.5 c 128,-1,54
 267 1089 267 1089 220.5 965 c 128,-1,55
 174 841 174 841 174 711 c 256,56,57
 174 581 174 581 219.5 459.5 c 128,-1,58
 265 338 265 338 349 240.5 c 128,-1,59
 433 143 433 143 550 87 c 128,-1,60
 667 31 667 31 799 31 c 0,61,62
 896 31 896 31 993.5 46.5 c 128,-1,63
 1091 62 1091 62 1185 91 c 128,-1,64
 1279 120 1279 120 1368 164 c 1,65,-1
 1460 164 l 2,66,67
 1466 164 1466 164 1471.5 158 c 128,-1,68
 1477 152 1477 152 1477 145 c 0,69,70
 1477 131 1477 131 1464 127 c 1,71,72
 1144 -23 1144 -23 797 -23 c 0,0,1
797 313 m 0,73,74
 879 313 879 313 948 366.5 c 128,-1,75
 1017 420 1017 420 1055 502 c 1,76,-1
 1055 920 l 1,77,78
 1030 972 1030 972 991.5 1014.5 c 128,-1,79
 953 1057 953 1057 901.5 1082.5 c 128,-1,80
 850 1108 850 1108 797 1108 c 0,81,82
 731 1108 731 1108 681 1068.5 c 128,-1,83
 631 1029 631 1029 600 969 c 128,-1,84
 569 909 569 909 553 839.5 c 128,-1,85
 537 770 537 770 537 711 c 0,86,87
 537 627 537 627 565.5 534 c 128,-1,88
 594 441 594 441 652 377 c 128,-1,89
 710 313 710 313 797 313 c 0,73,74
EndSplineSet
EndChar

StartChar: G
Encoding: 71 71 112
Width: 1606
Flags: W
LayerCount: 2
Fore
SplineSet
471 219 m 0,0,1
 545 129 545 129 651.5 78 c 128,-1,2
 758 27 758 27 874 27 c 0,3,4
 988 27 988 27 1081 85 c 128,-1,5
 1174 143 1174 143 1174 250 c 2,6,-1
 1174 422 l 2,7,8
 1174 487 1174 487 918 487 c 1,9,-1
 918 559 l 1,10,-1
 1505 559 l 1,11,-1
 1505 487 l 1,12,13
 1440 487 1440 487 1402 476 c 128,-1,14
 1364 465 1364 465 1364 422 c 2,15,-1
 1364 18 l 2,16,17
 1364 11 1364 11 1358.5 5.5 c 128,-1,18
 1353 0 1353 0 1346 0 c 0,19,20
 1327 0 1327 0 1282.5 45 c 128,-1,21
 1238 90 1238 90 1212 125 c 1,22,23
 1162 39 1162 39 1055 -3 c 128,-1,24
 948 -45 948 -45 831 -45 c 0,25,26
 632 -45 632 -45 468.5 57.5 c 128,-1,27
 305 160 305 160 210 331.5 c 128,-1,28
 115 503 115 503 115 700 c 0,29,30
 115 845 115 845 170 982 c 128,-1,31
 225 1119 225 1119 323.5 1223 c 128,-1,32
 422 1327 422 1327 553 1385.5 c 128,-1,33
 684 1444 684 1444 831 1444 c 0,34,35
 937 1444 937 1444 1031.5 1398.5 c 128,-1,36
 1126 1353 1126 1353 1200 1270 c 1,37,-1
 1319 1438 l 1,38,39
 1331 1444 1331 1444 1333 1444 c 2,40,-1
 1348 1444 l 2,41,42
 1354 1444 1354 1444 1359 1439 c 128,-1,43
 1364 1434 1364 1434 1364 1427 c 2,44,-1
 1364 874 l 2,45,46
 1364 856 1364 856 1348 856 c 2,47,-1
 1311 856 l 2,48,49
 1292 856 1292 856 1292 874 c 0,50,51
 1292 933 1292 933 1268.5 1006 c 128,-1,52
 1245 1079 1245 1079 1208.5 1144.5 c 128,-1,53
 1172 1210 1172 1210 1124 1260 c 1,54,55
 1009 1372 1009 1372 860 1372 c 0,56,57
 746 1372 746 1372 642 1321 c 128,-1,58
 538 1270 538 1270 467 1180 c 0,59,60
 392 1084 392 1084 363 961.5 c 128,-1,61
 334 839 334 839 334 700 c 0,62,63
 334 386 334 386 471 219 c 0,0,1
EndSplineSet
EndChar

StartChar: T
Encoding: 84 84 113
Width: 1479
Flags: W
LayerCount: 2
Fore
SplineSet
346 0 m 1,0,-1
 346 72 l 1,1,2
 449 72 449 72 546 83.5 c 128,-1,3
 643 95 643 95 643 137 c 2,4,-1
 643 1262 l 2,5,6
 643 1306 643 1306 618.5 1316.5 c 128,-1,7
 594 1327 594 1327 539 1327 c 2,8,-1
 453 1327 l 2,9,10
 284 1327 284 1327 213 1253 c 1,11,12
 176 1216 176 1216 160 1134.5 c 128,-1,13
 144 1053 144 1053 133 930 c 1,14,-1
 74 930 l 1,15,-1
 113 1399 l 1,16,-1
 1364 1399 l 1,17,-1
 1403 930 l 1,18,-1
 1343 930 l 1,19,20
 1331 1062 1331 1062 1316.5 1139.5 c 128,-1,21
 1302 1217 1302 1217 1264 1253 c 1,22,23
 1192 1327 1192 1327 1024 1327 c 2,24,-1
 938 1327 l 2,25,26
 901 1327 901 1327 880.5 1324 c 128,-1,27
 860 1321 860 1321 847 1306.5 c 128,-1,28
 834 1292 834 1292 834 1262 c 2,29,-1
 834 137 l 2,30,31
 834 95 834 95 931 83.5 c 128,-1,32
 1028 72 1028 72 1130 72 c 1,33,-1
 1130 0 l 1,34,-1
 346 0 l 1,0,-1
EndSplineSet
EndChar

StartChar: uni00B5
Encoding: 181 181 114
Width: 1024
Flags: W
LayerCount: 2
Fore
SplineSet
248 1294 m 1,0,1
 219 1320 219 1320 219 1352 c 256,2,3
 219 1384 219 1384 242 1407 c 128,-1,4
 265 1430 265 1430 297 1430 c 0,5,6
 332 1430 332 1430 356 1399 c 2,7,-1
 602 1083 l 1,8,-1
 559 1042 l 1,9,-1
 248 1294 l 1,0,1
EndSplineSet
EndChar

StartChar: a
Encoding: 97 97 115
Width: 1024
Flags: W
LayerCount: 2
Fore
SplineSet
82 201 m 0,0,1
 82 323 82 323 178 399.5 c 128,-1,2
 274 476 274 476 408.5 507.5 c 128,-1,3
 543 539 543 539 664 539 c 1,4,-1
 664 623 l 2,5,6
 664 682 664 682 638 737.5 c 128,-1,7
 612 793 612 793 563 828.5 c 128,-1,8
 514 864 514 864 455 864 c 0,9,10
 319 864 319 864 248 803 c 1,11,12
 287 803 287 803 312.5 773.5 c 128,-1,13
 338 744 338 744 338 705 c 0,14,15
 338 664 338 664 309 635 c 128,-1,16
 280 606 280 606 240 606 c 0,17,18
 199 606 199 606 170 635 c 128,-1,19
 141 664 141 664 141 705 c 0,20,21
 141 813 141 813 239 865.5 c 128,-1,22
 337 918 337 918 455 918 c 0,23,24
 538 918 538 918 622 882.5 c 128,-1,25
 706 847 706 847 759.5 781 c 128,-1,26
 813 715 813 715 813 627 c 2,27,-1
 813 166 l 2,28,29
 813 126 813 126 830 92.5 c 128,-1,30
 847 59 847 59 883 59 c 0,31,32
 917 59 917 59 933.5 93 c 128,-1,33
 950 127 950 127 950 166 c 2,34,-1
 950 297 l 1,35,-1
 1010 297 l 1,36,-1
 1010 166 l 2,37,38
 1010 120 1010 120 986 78.5 c 128,-1,39
 962 37 962 37 921.5 12.5 c 128,-1,40
 881 -12 881 -12 834 -12 c 0,41,42
 774 -12 774 -12 730.5 34.5 c 128,-1,43
 687 81 687 81 682 145 c 1,44,45
 644 68 644 68 570 22.5 c 128,-1,46
 496 -23 496 -23 412 -23 c 0,47,48
 334 -23 334 -23 258.5 0 c 128,-1,49
 183 23 183 23 132.5 72.5 c 128,-1,50
 82 122 82 122 82 201 c 0,0,1
248 201 m 0,51,52
 248 129 248 129 301 80 c 128,-1,53
 354 31 354 31 426 31 c 0,54,55
 492 31 492 31 546 64 c 128,-1,56
 600 97 600 97 632 154 c 128,-1,57
 664 211 664 211 664 274 c 2,58,-1
 664 487 l 1,59,60
 571 487 571 487 473.5 456.5 c 128,-1,61
 376 426 376 426 312 361 c 128,-1,62
 248 296 248 296 248 201 c 0,51,52
EndSplineSet
EndChar

StartChar: n
Encoding: 110 110 116
Width: 1137
Flags: W
LayerCount: 2
Fore
SplineSet
61 0 m 1,0,-1
 61 72 l 1,1,2
 131 72 131 72 176 83 c 128,-1,3
 221 94 221 94 221 137 c 2,4,-1
 221 696 l 2,5,6
 221 751 221 751 204.5 775.5 c 128,-1,7
 188 800 188 800 157 805.5 c 128,-1,8
 126 811 126 811 61 811 c 1,9,-1
 61 883 l 1,10,-1
 358 905 l 1,11,-1
 358 705 l 1,12,13
 399 793 399 793 479.5 849 c 128,-1,14
 560 905 560 905 655 905 c 0,15,16
 797 905 797 905 868.5 837 c 128,-1,17
 940 769 940 769 940 629 c 2,18,-1
 940 137 l 2,19,20
 940 94 940 94 985 83 c 128,-1,21
 1030 72 1030 72 1100 72 c 1,22,-1
 1100 0 l 1,23,-1
 631 0 l 1,24,-1
 631 72 l 1,25,26
 701 72 701 72 746 83 c 128,-1,27
 791 94 791 94 791 137 c 2,28,-1
 791 623 l 2,29,30
 791 723 791 723 762 787.5 c 128,-1,31
 733 852 733 852 643 852 c 0,32,33
 524 852 524 852 447.5 757 c 128,-1,34
 371 662 371 662 371 541 c 2,35,-1
 371 137 l 2,36,37
 371 94 371 94 416 83 c 128,-1,38
 461 72 461 72 530 72 c 1,39,-1
 530 0 l 1,40,-1
 61 0 l 1,0,-1
EndSplineSet
EndChar

StartChar: braceleft
Encoding: 123 123 117
Width: 1024
Flags: W
LayerCount: 2
Fore
SplineSet
0 518 m 1,0,-1
 0 571 l 1,1,-1
 1022 571 l 1,2,-1
 1022 518 l 1,3,-1
 0 518 l 1,0,-1
EndSplineSet
EndChar

StartChar: bar
Encoding: 124 124 118
Width: 2048
Flags: W
LayerCount: 2
Fore
SplineSet
0 518 m 1,0,-1
 0 571 l 1,1,-1
 2046 571 l 1,2,-1
 2046 518 l 1,3,-1
 0 518 l 1,0,-1
EndSplineSet
EndChar

StartChar: parenleft
Encoding: 40 40 119
Width: 795
Flags: W
LayerCount: 2
Fore
SplineSet
635 -508 m 1,0,1
 521 -418 521 -418 438.5 -301.5 c 128,-1,2
 356 -185 356 -185 303.5 -53 c 128,-1,3
 251 79 251 79 225 223 c 128,-1,4
 199 367 199 367 199 512 c 0,5,6
 199 659 199 659 225 803 c 128,-1,7
 251 947 251 947 304.5 1080 c 128,-1,8
 358 1213 358 1213 441 1329 c 128,-1,9
 524 1445 524 1445 635 1532 c 1,10,11
 635 1536 635 1536 645 1536 c 2,12,-1
 664 1536 l 2,13,14
 670 1536 670 1536 675 1530.5 c 128,-1,15
 680 1525 680 1525 680 1518 c 0,16,17
 680 1509 680 1509 676 1505 c 0,18,19
 576 1407 576 1407 509.5 1295 c 128,-1,20
 443 1183 443 1183 402.5 1056.5 c 128,-1,21
 362 930 362 930 344 794.5 c 128,-1,22
 326 659 326 659 326 512 c 0,23,24
 326 -139 326 -139 674 -477 c 0,25,26
 680 -483 680 -483 680 -494 c 0,27,28
 680 -499 680 -499 674.5 -505.5 c 128,-1,29
 669 -512 669 -512 664 -512 c 2,30,-1
 645 -512 l 2,31,32
 635 -512 635 -512 635 -508 c 1,0,1
EndSplineSet
EndChar

StartChar: five
Encoding: 53 53 120
Width: 1024
Flags: W
LayerCount: 2
Fore
SplineSet
178 233 m 1,0,1
 199 173 199 173 242.5 124 c 128,-1,2
 286 75 286 75 345.5 47.5 c 128,-1,3
 405 20 405 20 469 20 c 0,4,5
 617 20 617 20 673 135 c 128,-1,6
 729 250 729 250 729 414 c 0,7,8
 729 485 729 485 726.5 533.5 c 128,-1,9
 724 582 724 582 713 627 c 0,10,11
 694 699 694 699 646.5 753 c 128,-1,12
 599 807 599 807 530 807 c 256,13,14
 461 807 461 807 411.5 786 c 128,-1,15
 362 765 362 765 331 737 c 128,-1,16
 300 709 300 709 276 678 c 128,-1,17
 252 647 252 647 246 645 c 1,18,-1
 223 645 l 2,19,20
 218 645 218 645 210.5 651.5 c 128,-1,21
 203 658 203 658 203 664 c 2,22,-1
 203 1348 l 2,23,24
 203 1353 203 1353 209.5 1358.5 c 128,-1,25
 216 1364 216 1364 223 1364 c 2,26,-1
 229 1364 l 1,27,28
 367 1298 367 1298 522 1298 c 0,29,30
 674 1298 674 1298 815 1364 c 1,31,-1
 821 1364 l 2,32,33
 828 1364 828 1364 834 1359 c 128,-1,34
 840 1354 840 1354 840 1348 c 2,35,-1
 840 1329 l 2,36,37
 840 1319 840 1319 836 1319 c 1,38,39
 766 1226 766 1226 660.5 1174 c 128,-1,40
 555 1122 555 1122 442 1122 c 0,41,42
 360 1122 360 1122 274 1145 c 1,43,-1
 274 758 l 1,44,45
 342 813 342 813 395.5 836.5 c 128,-1,46
 449 860 449 860 532 860 c 0,47,48
 645 860 645 860 734.5 795 c 128,-1,49
 824 730 824 730 872 625.5 c 128,-1,50
 920 521 920 521 920 412 c 0,51,52
 920 289 920 289 859.5 184 c 128,-1,53
 799 79 799 79 695 17 c 128,-1,54
 591 -45 591 -45 469 -45 c 0,55,56
 368 -45 368 -45 283.5 7 c 128,-1,57
 199 59 199 59 150.5 147 c 128,-1,58
 102 235 102 235 102 334 c 0,59,60
 102 380 102 380 132 409 c 128,-1,61
 162 438 162 438 207 438 c 256,62,63
 252 438 252 438 282.5 408.5 c 128,-1,64
 313 379 313 379 313 334 c 0,65,66
 313 290 313 290 282.5 259.5 c 128,-1,67
 252 229 252 229 207 229 c 0,68,69
 200 229 200 229 191 230.5 c 128,-1,70
 182 232 182 232 178 233 c 1,0,1
EndSplineSet
EndChar

StartChar: I
Encoding: 73 73 121
Width: 739
Flags: W
LayerCount: 2
Fore
SplineSet
53 0 m 1,0,-1
 53 72 l 1,1,2
 274 72 274 72 274 137 c 2,3,-1
 274 1262 l 2,4,5
 274 1327 274 1327 53 1327 c 1,6,-1
 53 1399 l 1,7,-1
 686 1399 l 1,8,-1
 686 1327 l 1,9,10
 465 1327 465 1327 465 1262 c 2,11,-1
 465 137 l 2,12,13
 465 72 465 72 686 72 c 1,14,-1
 686 0 l 1,15,-1
 53 0 l 1,0,-1
EndSplineSet
EndChar

StartChar: V
Encoding: 86 86 122
Width: 1536
Flags: W
LayerCount: 2
Fore
SplineSet
721 -23 m 1,0,-1
 238 1262 l 1,1,2
 220 1305 220 1305 169 1316 c 128,-1,3
 118 1327 118 1327 39 1327 c 1,4,-1
 39 1399 l 1,5,-1
 602 1399 l 1,6,-1
 602 1327 l 1,7,8
 432 1327 432 1327 432 1274 c 1,9,10
 433 1271 433 1271 433.5 1268.5 c 128,-1,11
 434 1266 434 1266 434 1262 c 1,12,-1
 827 217 l 1,13,-1
 1198 1206 l 2,14,15
 1202 1214 1202 1214 1202 1231 c 0,16,17
 1202 1281 1202 1281 1156 1304 c 128,-1,18
 1110 1327 1110 1327 1053 1327 c 1,19,-1
 1053 1399 l 1,20,-1
 1495 1399 l 1,21,-1
 1495 1327 l 1,22,23
 1418 1327 1418 1327 1359.5 1298.5 c 128,-1,24
 1301 1270 1301 1270 1276 1206 c 2,25,-1
 813 -23 l 1,26,27
 807 -45 807 -45 780 -45 c 2,28,-1
 754 -45 l 2,29,30
 727 -45 727 -45 721 -23 c 1,0,-1
EndSplineSet
EndChar

StartChar: c
Encoding: 99 99 123
Width: 909
Flags: W
LayerCount: 2
Fore
SplineSet
510 -23 m 0,0,1
 386 -23 386 -23 285 41.5 c 128,-1,2
 184 106 184 106 126 213.5 c 128,-1,3
 68 321 68 321 68 442 c 256,4,5
 68 563 68 563 125.5 674 c 128,-1,6
 183 785 183 785 284.5 851.5 c 128,-1,7
 386 918 386 918 510 918 c 0,8,9
 630 918 630 918 728.5 871 c 128,-1,10
 827 824 827 824 827 717 c 0,11,12
 827 677 827 677 798.5 647.5 c 128,-1,13
 770 618 770 618 729 618 c 256,14,15
 688 618 688 618 659.5 647.5 c 128,-1,16
 631 677 631 677 631 717 c 0,17,18
 631 753 631 753 654 779.5 c 128,-1,19
 677 806 677 806 711 813 c 1,20,21
 640 858 640 858 512 858 c 0,22,23
 414 858 414 858 354 793 c 128,-1,24
 294 728 294 728 270 632 c 128,-1,25
 246 536 246 536 246 442 c 0,26,27
 246 343 246 343 275.5 250.5 c 128,-1,28
 305 158 305 158 370.5 97.5 c 128,-1,29
 436 37 436 37 535 37 c 0,30,31
 632 37 632 37 700 96.5 c 128,-1,32
 768 156 768 156 793 252 c 1,33,34
 793 264 793 264 809 264 c 2,35,-1
 834 264 l 2,36,37
 840 264 840 264 845 258.5 c 128,-1,38
 850 253 850 253 850 246 c 2,39,-1
 850 240 l 1,40,41
 819 119 819 119 727 48 c 128,-1,42
 635 -23 635 -23 510 -23 c 0,0,1
EndSplineSet
EndChar

StartChar: asciicircum
Encoding: 94 94 124
Width: 1024
Flags: W
LayerCount: 2
Fore
SplineSet
276 1102 m 1,0,-1
 236 1145 l 1,1,-1
 512 1421 l 1,2,-1
 786 1145 l 1,3,-1
 745 1102 l 1,4,-1
 512 1307 l 1,5,-1
 276 1102 l 1,0,-1
EndSplineSet
EndChar

StartChar: p
Encoding: 112 112 125
Width: 1137
Flags: W
LayerCount: 2
Fore
SplineSet
53 -397 m 1,0,-1
 53 -326 l 1,1,2
 123 -326 123 -326 168 -314 c 128,-1,3
 213 -302 213 -302 213 -260 c 2,4,-1
 213 727 l 2,5,6
 213 783 213 783 173 797 c 128,-1,7
 133 811 133 811 53 811 c 1,8,-1
 53 883 l 1,9,-1
 356 905 l 1,10,-1
 356 778 l 1,11,12
 412 840 412 840 486.5 872.5 c 128,-1,13
 561 905 561 905 645 905 c 0,14,15
 766 905 766 905 863 839.5 c 128,-1,16
 960 774 960 774 1014.5 667.5 c 128,-1,17
 1069 561 1069 561 1069 442 c 0,18,19
 1069 318 1069 318 1008.5 211 c 128,-1,20
 948 104 948 104 843.5 40.5 c 128,-1,21
 739 -23 739 -23 614 -23 c 0,22,23
 465 -23 465 -23 362 98 c 1,24,-1
 362 -260 l 2,25,26
 362 -302 362 -302 407.5 -314 c 128,-1,27
 453 -326 453 -326 522 -326 c 1,28,-1
 522 -397 l 1,29,-1
 53 -397 l 1,0,-1
362 199 m 1,30,31
 398 126 398 126 462 78.5 c 128,-1,32
 526 31 526 31 602 31 c 0,33,34
 673 31 673 31 727.5 69 c 128,-1,35
 782 107 782 107 819 171 c 128,-1,36
 856 235 856 235 873.5 305.5 c 128,-1,37
 891 376 891 376 891 442 c 0,38,39
 891 524 891 524 861.5 619.5 c 128,-1,40
 832 715 832 715 771.5 780.5 c 128,-1,41
 711 846 711 846 625 846 c 0,42,43
 542 846 542 846 472.5 803.5 c 128,-1,44
 403 761 403 761 362 688 c 1,45,-1
 362 199 l 1,30,31
EndSplineSet
EndChar

StartChar: asterisk
Encoding: 42 42 126
Width: 1024
Flags: W
LayerCount: 2
Fore
SplineSet
193 844 m 0,0,1
 170 844 170 844 151.5 863.5 c 128,-1,2
 133 883 133 883 133 907 c 0,3,4
 133 941 133 941 162 956 c 1,5,-1
 457 1096 l 1,6,-1
 162 1233 l 1,7,8
 133 1248 133 1248 133 1282 c 0,9,10
 133 1308 133 1308 151 1327 c 128,-1,11
 169 1346 169 1346 193 1346 c 0,12,13
 209 1346 209 1346 223 1335 c 2,14,-1
 483 1145 l 1,15,-1
 453 1477 l 1,16,-1
 451 1481 l 1,17,18
 451 1504 451 1504 469.5 1520 c 128,-1,19
 488 1536 488 1536 512 1536 c 0,20,21
 534 1536 534 1536 552.5 1521 c 128,-1,22
 571 1506 571 1506 571 1481 c 2,23,-1
 571 1477 l 1,24,-1
 539 1145 l 1,25,-1
 799 1335 l 2,26,27
 813 1346 813 1346 829 1346 c 0,28,29
 854 1346 854 1346 871.5 1327 c 128,-1,30
 889 1308 889 1308 889 1282 c 0,31,32
 889 1248 889 1248 860 1233 c 1,33,-1
 565 1096 l 1,34,-1
 860 956 l 1,35,36
 889 941 889 941 889 907 c 0,37,38
 889 883 889 883 871.5 863.5 c 128,-1,39
 854 844 854 844 829 844 c 0,40,41
 812 844 812 844 799 854 c 2,42,-1
 539 1044 l 1,43,-1
 571 713 l 1,44,-1
 571 709 l 2,45,46
 571 685 571 685 552.5 669 c 128,-1,47
 534 653 534 653 512 653 c 0,48,49
 488 653 488 653 469.5 669.5 c 128,-1,50
 451 686 451 686 451 709 c 1,51,-1
 453 713 l 1,52,-1
 483 1044 l 1,53,-1
 223 854 l 2,54,55
 211 844 211 844 193 844 c 0,0,1
EndSplineSet
EndChar

StartChar: seven
Encoding: 55 55 127
Width: 1024
Flags: W
LayerCount: 2
Fore
SplineSet
356 53 m 0,0,1
 356 167 356 167 376 276 c 128,-1,2
 396 385 396 385 434.5 491.5 c 128,-1,3
 473 598 473 598 527.5 700.5 c 128,-1,4
 582 803 582 803 647 893 c 2,5,-1
 834 1153 l 1,6,-1
 600 1153 l 2,7,8
 236 1153 236 1153 225 1143 c 1,9,10
 198 1110 198 1110 174 954 c 1,11,-1
 115 954 l 1,12,-1
 182 1384 l 1,13,-1
 242 1384 l 1,14,-1
 242 1378 l 2,15,16
 242 1341 242 1341 367 1330 c 128,-1,17
 492 1319 492 1319 612 1319 c 2,18,-1
 993 1319 l 1,19,-1
 993 1266 l 2,20,21
 993 1264 993 1264 992.5 1263 c 128,-1,22
 992 1262 992 1262 991 1260 c 2,23,-1
 709 864 l 1,24,25
 605 710 605 710 579 522 c 128,-1,26
 553 334 553 334 553 53 c 0,27,28
 553 13 553 13 524 -16 c 128,-1,29
 495 -45 495 -45 455 -45 c 0,30,31
 414 -45 414 -45 385 -16 c 128,-1,32
 356 13 356 13 356 53 c 0,0,1
EndSplineSet
EndChar

StartChar: K
Encoding: 75 75 128
Width: 1591
Flags: W
LayerCount: 2
Fore
SplineSet
63 0 m 1,0,-1
 63 72 l 1,1,2
 274 72 274 72 274 137 c 2,3,-1
 274 1262 l 2,4,5
 274 1327 274 1327 63 1327 c 1,6,-1
 63 1399 l 1,7,-1
 676 1399 l 1,8,-1
 676 1327 l 1,9,10
 465 1327 465 1327 465 1262 c 2,11,-1
 465 598 l 1,12,-1
 1098 1206 l 1,13,14
 1124 1234 1124 1234 1124 1262 c 0,15,16
 1124 1294 1124 1294 1096.5 1310.5 c 128,-1,17
 1069 1327 1069 1327 1034 1327 c 1,18,-1
 1034 1399 l 1,19,-1
 1479 1399 l 1,20,-1
 1479 1327 l 1,21,22
 1311 1327 1311 1327 1184 1206 c 2,23,-1
 821 858 l 1,24,-1
 1270 193 l 2,25,26
 1325 112 1325 112 1366.5 92 c 128,-1,27
 1408 72 1408 72 1507 72 c 1,28,-1
 1507 0 l 1,29,-1
 971 0 l 1,30,-1
 971 72 l 1,31,32
 1020 72 1020 72 1053.5 82 c 128,-1,33
 1087 92 1087 92 1087 129 c 0,34,35
 1087 154 1087 154 1061 193 c 2,36,-1
 694 737 l 1,37,-1
 465 516 l 1,38,-1
 465 137 l 2,39,40
 465 72 465 72 676 72 c 1,41,-1
 676 0 l 1,42,-1
 63 0 l 1,0,-1
EndSplineSet
EndChar

StartChar: X
Encoding: 88 88 129
Width: 1536
Flags: W
LayerCount: 2
Fore
SplineSet
47 0 m 1,0,-1
 47 72 l 1,1,2
 255 72 255 72 338 188 c 1,3,-1
 678 694 l 1,4,-1
 301 1268 l 1,5,6
 269 1306 269 1306 214.5 1316.5 c 128,-1,7
 160 1327 160 1327 76 1327 c 1,8,-1
 76 1399 l 1,9,-1
 649 1399 l 1,10,-1
 649 1327 l 1,11,12
 612 1327 612 1327 564 1312.5 c 128,-1,13
 516 1298 516 1298 516 1272 c 0,14,15
 516 1268 516 1268 518 1264 c 2,16,-1
 786 856 l 1,17,-1
 1022 1208 l 1,18,19
 1030 1226 1030 1226 1030 1237 c 0,20,21
 1030 1279 1030 1279 988.5 1303 c 128,-1,22
 947 1327 947 1327 901 1327 c 1,23,-1
 901 1399 l 1,24,-1
 1401 1399 l 1,25,-1
 1401 1327 l 1,26,27
 1193 1327 1193 1327 1110 1210 c 1,28,-1
 829 791 l 1,29,-1
 1262 131 l 1,30,31
 1297 92 1297 92 1350.5 82 c 128,-1,32
 1404 72 1404 72 1487 72 c 1,33,-1
 1487 0 l 1,34,-1
 913 0 l 1,35,-1
 913 72 l 1,36,37
 946 72 946 72 996.5 86.5 c 128,-1,38
 1047 101 1047 101 1047 127 c 0,39,40
 1047 133 1047 133 1044 135 c 1,41,-1
 721 629 l 1,42,-1
 426 190 l 1,43,44
 420 178 420 178 420 162 c 0,45,46
 420 120 420 120 461 96 c 128,-1,47
 502 72 502 72 547 72 c 1,48,-1
 547 0 l 1,49,-1
 47 0 l 1,0,-1
EndSplineSet
EndChar

StartChar: e
Encoding: 101 101 130
Width: 909
Flags: W
LayerCount: 2
Fore
SplineSet
510 -23 m 0,0,1
 385 -23 385 -23 280.5 42.5 c 128,-1,2
 176 108 176 108 116.5 217.5 c 128,-1,3
 57 327 57 327 57 449 c 0,4,5
 57 569 57 569 111.5 677 c 128,-1,6
 166 785 166 785 263.5 851.5 c 128,-1,7
 361 918 361 918 481 918 c 0,8,9
 575 918 575 918 644.5 886.5 c 128,-1,10
 714 855 714 855 759 799 c 128,-1,11
 804 743 804 743 827 667 c 128,-1,12
 850 591 850 591 850 500 c 0,13,14
 850 473 850 473 829 473 c 2,15,-1
 236 473 l 1,16,-1
 236 451 l 2,17,18
 236 281 236 281 304.5 159 c 128,-1,19
 373 37 373 37 528 37 c 0,20,21
 591 37 591 37 644.5 65 c 128,-1,22
 698 93 698 93 737.5 143 c 128,-1,23
 777 193 777 193 791 250 c 0,24,25
 793 257 793 257 798.5 262.5 c 128,-1,26
 804 268 804 268 811 268 c 2,27,-1
 829 268 l 2,28,29
 850 268 850 268 850 242 c 1,30,31
 821 126 821 126 725 51.5 c 128,-1,32
 629 -23 629 -23 510 -23 c 0,0,1
238 524 m 1,33,-1
 705 524 l 1,34,35
 705 601 705 601 683.5 680 c 128,-1,36
 662 759 662 759 612 811.5 c 128,-1,37
 562 864 562 864 481 864 c 0,38,39
 365 864 365 864 301.5 755.5 c 128,-1,40
 238 647 238 647 238 524 c 1,33,-1
EndSplineSet
EndChar

StartChar: uni00B9
Encoding: 185 185 131
Width: 1024
Flags: W
LayerCount: 2
Fore
SplineSet
141 1137 m 1,0,-1
 141 1208 l 1,1,-1
 881 1208 l 1,2,-1
 881 1137 l 1,3,-1
 141 1137 l 1,0,-1
EndSplineSet
EndChar

StartChar: r
Encoding: 114 114 132
Width: 801
Flags: W
LayerCount: 2
Fore
SplineSet
53 0 m 1,0,-1
 53 72 l 1,1,2
 123 72 123 72 168 83 c 128,-1,3
 213 94 213 94 213 137 c 2,4,-1
 213 696 l 2,5,6
 213 751 213 751 196.5 775.5 c 128,-1,7
 180 800 180 800 149 805.5 c 128,-1,8
 118 811 118 811 53 811 c 1,9,-1
 53 883 l 1,10,-1
 346 905 l 1,11,-1
 346 705 l 1,12,13
 379 794 379 794 440 849.5 c 128,-1,14
 501 905 501 905 588 905 c 0,15,16
 649 905 649 905 697 869 c 128,-1,17
 745 833 745 833 745 774 c 0,18,19
 745 737 745 737 718.5 709.5 c 128,-1,20
 692 682 692 682 653 682 c 0,21,22
 615 682 615 682 588 709 c 128,-1,23
 561 736 561 736 561 774 c 0,24,25
 561 829 561 829 600 852 c 1,26,-1
 588 852 l 2,27,28
 505 852 505 852 452.5 792 c 128,-1,29
 400 732 400 732 378 643 c 128,-1,30
 356 554 356 554 356 473 c 2,31,-1
 356 137 l 2,32,33
 356 72 356 72 555 72 c 1,34,-1
 555 0 l 1,35,-1
 53 0 l 1,0,-1
EndSplineSet
EndChar

StartChar: logicalnot
Encoding: 172 172 133
Width: 1479
Flags: W
LayerCount: 2
Fore
SplineSet
158 0 m 1,0,-1
 90 340 l 1,1,-1
 150 340 l 1,2,3
 161 281 161 281 170 235.5 c 128,-1,4
 179 190 179 190 193.5 171.5 c 128,-1,5
 208 153 208 153 240 147 c 128,-1,6
 272 141 272 141 346 141 c 2,7,-1
 471 141 l 1,8,9
 441 257 441 257 321.5 443.5 c 128,-1,10
 202 630 202 630 158.5 714.5 c 128,-1,11
 115 799 115 799 115 932 c 0,12,13
 115 1087 115 1087 207 1203.5 c 128,-1,14
 299 1320 299 1320 444.5 1382 c 128,-1,15
 590 1444 590 1444 739 1444 c 0,16,17
 887 1444 887 1444 1032.5 1382 c 128,-1,18
 1178 1320 1178 1320 1270 1202.5 c 128,-1,19
 1362 1085 1362 1085 1362 932 c 0,20,21
 1362 828 1362 828 1324 736 c 128,-1,22
 1286 644 1286 644 1227 552 c 128,-1,23
 1168 460 1168 460 1099.5 347 c 128,-1,24
 1031 234 1031 234 1006 141 c 1,25,-1
 1130 141 l 2,26,27
 1205 141 1205 141 1238 147 c 128,-1,28
 1271 153 1271 153 1285 171.5 c 128,-1,29
 1299 190 1299 190 1307.5 235.5 c 128,-1,30
 1316 281 1316 281 1327 340 c 1,31,-1
 1386 340 l 1,32,-1
 1319 0 l 1,33,-1
 956 0 l 2,34,35
 936 0 936 0 936 27 c 0,36,37
 936 131 936 131 961.5 231 c 128,-1,38
 987 331 987 331 1037 473 c 128,-1,39
 1087 615 1087 615 1115 723.5 c 128,-1,40
 1143 832 1143 832 1143 932 c 0,41,42
 1143 1055 1143 1055 1095 1160 c 128,-1,43
 1047 1265 1047 1265 955 1328 c 128,-1,44
 863 1391 863 1391 739 1391 c 0,45,46
 552 1391 552 1391 443 1257.5 c 128,-1,47
 334 1124 334 1124 334 932 c 1,48,49
 335 827 335 827 359 734 c 128,-1,50
 383 641 383 641 436.5 486 c 128,-1,51
 490 331 490 331 515.5 231 c 128,-1,52
 541 131 541 131 541 27 c 0,53,54
 541 0 541 0 520 0 c 2,55,-1
 158 0 l 1,0,-1
EndSplineSet
EndChar
